%TF.GenerationSoftware,Altium Limited,Altium Designer,25.0.2 (28)*%
G04 Layer_Color=16711935*
%FSLAX45Y45*%
%MOMM*%
%TF.SameCoordinates,35A56F3A-7D9F-4CF9-8D97-DF5CB8944ECC*%
%TF.FilePolarity,Positive*%
%TF.FileFunction,Other,Mechanical_13*%
%TF.Part,Single*%
G01*
G75*
%TA.AperFunction,NonConductor*%
%ADD56C,0.20000*%
%ADD57C,0.07620*%
%ADD59C,0.12700*%
%ADD85C,0.00000*%
%ADD86C,0.50800*%
%ADD87C,0.07000*%
%ADD88C,0.02540*%
%ADD89C,0.10000*%
D56*
X11021000Y6878600D02*
G03*
X11021000Y6878600I-10000J0D01*
G01*
D57*
X9241790Y6674239D02*
X9326429Y6589600D01*
X9241790D02*
X9326429Y6674239D01*
X9241790Y6631919D02*
X9326429D01*
X9284110Y6589600D02*
Y6674239D01*
D59*
X11176000Y6146100D02*
X12446000D01*
X11176000D02*
Y8846100D01*
X12446000Y8846100D01*
X12446000Y6146100D01*
X8707350Y6405308D02*
X10934350D01*
X8707350D02*
Y8790308D01*
X10934350D01*
Y6405308D02*
Y8790308D01*
D85*
X10434649Y8748725D02*
G03*
X10434649Y8748725I-7620J0D01*
G01*
X10590117Y8798700D02*
G03*
X10644283Y8798700I27083J0D01*
G01*
X9634220Y6606540D02*
G03*
X9695180Y6606540I30480J0D01*
G01*
X10046010Y7855300D02*
G03*
X10046010Y7855300I-7620J0D01*
G01*
D86*
X11582400Y8683500D02*
G03*
X11582400Y8683500I-38100J0D01*
G01*
X9346200Y9000490D02*
G03*
X9346200Y9000490I-38100J0D01*
G01*
X8813800Y8382000D02*
G03*
X8813800Y8382000I-38100J0D01*
G01*
Y7658100D02*
G03*
X8813800Y7658100I-38100J0D01*
G01*
X8826500Y6919500D02*
G03*
X8826500Y6919500I-38100J0D01*
G01*
D87*
X10264700Y9648500D02*
G03*
X10264700Y9648500I-20000J0D01*
G01*
D88*
X11277600Y8488680D02*
Y8757920D01*
Y8488680D02*
X11343640D01*
Y8757920D01*
X11277600D02*
X11343640D01*
X11069320Y8488680D02*
Y8757920D01*
X11003280D02*
X11069320D01*
X11003280Y8488680D02*
Y8757920D01*
Y8488680D02*
X11069320D01*
X11003280Y8757920D02*
X11343640D01*
X11003280Y8488680D02*
Y8757920D01*
Y8488680D02*
X11343640D01*
Y8757920D01*
X10937240Y5416550D02*
Y5937250D01*
X9738360Y5416550D02*
X10937240D01*
X9738360D02*
Y5937250D01*
X10937240D01*
X10435590Y5960110D02*
Y6054090D01*
X10389870Y5960110D02*
X10435590D01*
X10389870D02*
Y6054090D01*
X10435590D01*
X10519410Y5960110D02*
Y6054090D01*
X10565130D01*
Y5960110D02*
Y6054090D01*
X10519410Y5960110D02*
X10565130D01*
X10389870Y6054090D02*
X10565130D01*
Y5960110D02*
Y6054090D01*
X10389870Y5960110D02*
X10565130D01*
X10389870D02*
Y6054090D01*
X10563860Y6137910D02*
Y6231890D01*
X10388600D02*
X10563860D01*
X10388600Y6137910D02*
Y6231890D01*
Y6137910D02*
X10563860D01*
X10388600Y6231890D02*
X10434320D01*
X10388600Y6137910D02*
Y6231890D01*
Y6137910D02*
X10434320D01*
Y6231890D01*
X10518140Y6137910D02*
X10563860D01*
Y6231890D01*
X10518140D02*
X10563860D01*
X10518140Y6137910D02*
Y6231890D01*
X9911080Y5509260D02*
X10180320D01*
Y5443220D02*
Y5509260D01*
X9911080Y5443220D02*
X10180320D01*
X9911080D02*
Y5509260D01*
Y5717540D02*
X10180320D01*
X9911080D02*
Y5783580D01*
X10180320D01*
Y5717540D02*
Y5783580D01*
X9911080Y5443220D02*
Y5783580D01*
X10180320D01*
Y5443220D02*
Y5783580D01*
X9911080Y5443220D02*
X10180320D01*
X10368280Y5521960D02*
X10637520D01*
Y5455920D02*
Y5521960D01*
X10368280Y5455920D02*
X10637520D01*
X10368280D02*
Y5521960D01*
Y5730240D02*
X10637520D01*
X10368280D02*
Y5796280D01*
X10637520D01*
Y5730240D02*
Y5796280D01*
X10368280Y5455920D02*
Y5796280D01*
X10637520D01*
Y5455920D02*
Y5796280D01*
X10368280Y5455920D02*
X10637520D01*
X10454700Y8498700D02*
Y8798700D01*
Y8498700D02*
X10779700D01*
Y8798700D01*
X10454700D02*
X10779700D01*
X9395460Y6068060D02*
Y6606540D01*
X9933940D01*
Y6068060D02*
Y6606540D01*
X9395460Y6068060D02*
X9933940D01*
Y6551930D02*
X10069830D01*
Y6503670D02*
Y6551930D01*
X9933940Y6503670D02*
X10069830D01*
X9933940D02*
Y6551930D01*
Y6424930D02*
X10069830D01*
Y6376670D02*
Y6424930D01*
X9933940Y6376670D02*
X10069830D01*
X9933940D02*
Y6424930D01*
Y6297930D02*
X10069830D01*
Y6249670D02*
Y6297930D01*
X9933940Y6249670D02*
X10069830D01*
X9933940D02*
Y6297930D01*
Y6170930D02*
X10069830D01*
Y6122670D02*
Y6170930D01*
X9933940Y6122670D02*
X10069830D01*
X9933940D02*
Y6170930D01*
X9259570Y6122670D02*
X9395460D01*
X9259570D02*
Y6170930D01*
X9395460D01*
Y6122670D02*
Y6170930D01*
X9259570Y6249670D02*
X9395460D01*
X9259570D02*
Y6297930D01*
X9395460D01*
Y6249670D02*
Y6297930D01*
X9259570Y6376670D02*
X9395460D01*
X9259570D02*
Y6424930D01*
X9395460D01*
Y6376670D02*
Y6424930D01*
X9259570Y6503670D02*
X9395460D01*
X9259570D02*
Y6551930D01*
X9395460D01*
Y6503670D02*
Y6551930D01*
X9542780Y8526780D02*
X9812020D01*
Y8186420D02*
Y8526780D01*
X9542780Y8186420D02*
X9812020D01*
X9542780D02*
Y8526780D01*
X9812020Y8186420D02*
Y8252460D01*
X9542780Y8186420D02*
X9812020D01*
X9542780D02*
Y8252460D01*
X9812020D01*
X9542780Y8460740D02*
Y8526780D01*
X9812020D01*
Y8460740D02*
Y8526780D01*
X9542780Y8460740D02*
X9812020D01*
X9989820Y7853680D02*
X10116820Y7980680D01*
X9989820Y6979920D02*
X10990580D01*
Y7980680D01*
X9989820D02*
X10990580D01*
X9989820Y6979920D02*
Y7980680D01*
X12308840Y6115050D02*
Y6635750D01*
X11109960Y6115050D02*
X12308840D01*
X11109960D02*
Y6635750D01*
X12308840D01*
X12210180Y6986550D02*
Y8980450D01*
X11709800D02*
X12210180D01*
X11709800Y6986550D02*
Y8980450D01*
Y6986550D02*
X12210180D01*
X9532620Y8840470D02*
Y9244330D01*
X8958580Y8840470D02*
X9532620D01*
X8958580D02*
Y9244330D01*
X9532620D01*
X8531860Y8032480D02*
Y8606520D01*
Y8032480D02*
X8935720D01*
Y8606520D01*
X8531860D02*
X8935720D01*
X8531860Y7882620D02*
X8935720D01*
Y7308580D02*
Y7882620D01*
X8531860Y7308580D02*
X8935720D01*
X8531860D02*
Y7882620D01*
X8544560Y6569980D02*
Y7144020D01*
Y6569980D02*
X8948420D01*
Y7144020D01*
X8544560D02*
X8948420D01*
D89*
X10194700Y9483500D02*
Y9693500D01*
X10404700Y9483500D02*
Y9693500D01*
X10194700D02*
X10404700D01*
X10194700Y9483500D02*
X10404700D01*
X9602550Y9008450D02*
Y9545950D01*
X10000050D01*
Y9008450D02*
Y9545950D01*
X9602550Y9008450D02*
X10000050D01*
%TF.MD5,d9647d7a97a007436a6303c662ab67ec*%
M02*
