%TF.GenerationSoftware,Altium Limited,Altium Designer,25.0.2 (28)*%
G04 Layer_Color=2752767*
%FSLAX45Y45*%
%MOMM*%
%TF.SameCoordinates,35A56F3A-7D9F-4CF9-8D97-DF5CB8944ECC*%
%TF.FilePolarity,Positive*%
%TF.FileFunction,Drawing*%
%TF.Part,Single*%
G01*
G75*
%TA.AperFunction,NonConductor*%
%ADD59C,0.12700*%
D59*
X10845800Y6070600D02*
X10795000Y6172200D01*
X10896600D01*
X10845800Y6070600D01*
Y5740400D02*
X10795000Y5842000D01*
X10896600D01*
X10845800Y5740400D01*
X8369300Y8051800D02*
X8318500Y8153400D01*
X8420100D01*
X8369300Y8051800D01*
X8445500Y6578600D02*
X8394700Y6680200D01*
X8496300D01*
X8445500Y6578600D01*
X8382000Y6807200D02*
X8331200Y6908800D01*
X8432800D01*
X8382000Y6807200D01*
X8369300Y6997700D02*
X8318500Y7099300D01*
X8420100D01*
X8369300Y6997700D01*
X8305800Y7353300D02*
X8255000Y7454900D01*
X8356600D01*
X8305800Y7353300D01*
X8318500Y7696200D02*
X8267700Y7797800D01*
X8369300D01*
X8318500Y7696200D01*
X8420100Y8356600D02*
X8369300Y8458200D01*
X8470900D01*
X8420100Y8356600D01*
X9779000Y9664700D02*
X9728200Y9766300D01*
X9829800D01*
X9779000Y9664700D01*
X10312400Y9779000D02*
X10261600Y9880600D01*
X10363200D01*
X10312400Y9779000D01*
X10502900D02*
X10452100Y9880600D01*
X10553700D01*
X10502900Y9779000D01*
X11214100Y9677400D02*
X11163300Y9779000D01*
X11264900D01*
X11214100Y9677400D01*
X11010900Y9728200D02*
X10960100Y9829800D01*
X11061700D01*
X11010900Y9728200D01*
X12192000Y7073900D02*
X12141200Y7175500D01*
X12242800D01*
X12192000Y7073900D01*
X12293600Y7302500D02*
X12242800Y7404100D01*
X12344400D01*
X12293600Y7302500D01*
Y7137400D02*
X12242800Y7239000D01*
X12344400D01*
X12293600Y7137400D01*
X10833100Y6210300D02*
X10782300Y6311900D01*
X10883900D01*
X10833100Y6210300D01*
%TF.MD5,131d22fd75aa0349e7c58ff981d52de2*%
M02*
