%TF.GenerationSoftware,Altium Limited,Altium Designer,25.0.2 (28)*%
G04 Layer_Color=8388736*
%FSLAX45Y45*%
%MOMM*%
%TF.SameCoordinates,35A56F3A-7D9F-4CF9-8D97-DF5CB8944ECC*%
%TF.FilePolarity,Positive*%
%TF.FileFunction,Other,Mechanical_6*%
%TF.Part,Single*%
G01*
G75*
G36*
X10025263Y5896656D02*
X10025263Y5962696D01*
X10010023D01*
X10010023Y5896656D01*
X10025263D01*
D01*
D02*
G37*
G36*
X10030460Y6124786D02*
X10058824D01*
X10058824Y6109546D01*
X10030460D01*
Y6082030D01*
X10015220D01*
Y6109546D01*
X9992784D01*
X9992784Y6124786D01*
X10015220D01*
Y6148070D01*
X10030460D01*
Y6124786D01*
D02*
G37*
G36*
X10214186Y6304280D02*
X10237470D01*
Y6289040D01*
X10214186D01*
Y6260676D01*
X10198946Y6260676D01*
Y6289040D01*
X10171430D01*
Y6304280D01*
X10198946D01*
Y6326716D01*
X10214186Y6326716D01*
Y6304280D01*
D02*
G37*
G36*
X10052096Y6294237D02*
X9986056Y6294237D01*
Y6309477D01*
X10052096Y6309477D01*
Y6294237D01*
D02*
G37*
%TF.MD5,a4fe611aeb71b7ab52e96844e0fb4db1*%
M02*
