%TF.GenerationSoftware,Altium Limited,Altium Designer,25.0.2 (28)*%
G04 Layer_Physical_Order=4*
G04 Layer_Color=16711680*
%FSLAX45Y45*%
%MOMM*%
%TF.SameCoordinates,35A56F3A-7D9F-4CF9-8D97-DF5CB8944ECC*%
%TF.FilePolarity,Positive*%
%TF.FileFunction,Copper,L4,Bot,Signal*%
%TF.Part,Single*%
G01*
G75*
%TA.AperFunction,SMDPad,CuDef*%
%ADD19R,1.10000X1.15000*%
%ADD21R,2.69240X1.01600*%
%TA.AperFunction,Conductor*%
%ADD35C,0.25400*%
%ADD36C,0.50800*%
%ADD38C,0.35000*%
%TA.AperFunction,ComponentPad*%
%ADD39C,1.30000*%
%ADD40P,2.12132X4X180.0*%
%ADD41C,1.50000*%
%ADD42R,1.50000X1.50000*%
%TA.AperFunction,ViaPad*%
%ADD43C,0.50800*%
%ADD44C,0.60000*%
%TA.AperFunction,SMDPad,CuDef*%
%ADD45R,0.66040X0.93980*%
%ADD46R,0.80000X0.80000*%
%ADD47R,1.30000X1.00000*%
%ADD48R,1.00000X1.30000*%
%ADD49R,9.00000X9.00000*%
%ADD50R,5.08000X5.08000*%
%ADD51R,0.80000X0.80000*%
%ADD52R,2.60000X8.20000*%
G36*
X10728388Y9915922D02*
X10861076Y9900972D01*
X10992723Y9878604D01*
X11122906Y9848891D01*
X11251214Y9811926D01*
X11377254Y9767822D01*
X11500620Y9716723D01*
X11620927Y9658785D01*
X11737796Y9594194D01*
X11850863Y9523150D01*
X11959761Y9445882D01*
X12064162Y9362625D01*
X12163724Y9273651D01*
X12258149Y9179227D01*
X12347123Y9079664D01*
X12430382Y8975261D01*
X12507653Y8866358D01*
X12578694Y8753296D01*
X12643286Y8636426D01*
X12701221Y8516122D01*
X12752322Y8392754D01*
X12796426Y8266714D01*
X12833391Y8138405D01*
X12863104Y8008223D01*
X12885472Y7876575D01*
X12900423Y7743888D01*
X12907909Y7610564D01*
Y7543800D01*
Y7477036D01*
X12900423Y7343712D01*
X12885472Y7211024D01*
X12863104Y7079377D01*
X12833391Y6949194D01*
X12796426Y6820886D01*
X12752322Y6694845D01*
X12738903Y6662447D01*
X12726446Y6664925D01*
Y6781800D01*
X12722420Y6791520D01*
X12712700Y6795546D01*
X10931603D01*
X10926743Y6807280D01*
X10958305Y6838842D01*
X11098300D01*
Y6833400D01*
X11253700D01*
Y6958800D01*
X11098300D01*
Y6890637D01*
X10947578D01*
X10937667Y6888666D01*
X10929266Y6883052D01*
X10675088Y6628874D01*
X10669474Y6620472D01*
X10667502Y6610561D01*
Y6301784D01*
X10661100Y6295382D01*
X10655300Y6281379D01*
Y6266221D01*
X10661100Y6252218D01*
X10671818Y6241500D01*
X10685821Y6235700D01*
X10700979D01*
X10714982Y6241500D01*
X10725700Y6252218D01*
X10731500Y6266221D01*
Y6281379D01*
X10725700Y6295382D01*
X10719298Y6301784D01*
Y6599834D01*
X10845720Y6726257D01*
X10857454Y6721397D01*
Y6305998D01*
X10844753Y6297512D01*
X10840679Y6299200D01*
X10825521D01*
X10811518Y6293400D01*
X10800800Y6282682D01*
X10795000Y6268679D01*
Y6259625D01*
X10746173Y6210798D01*
X10596880D01*
Y6244590D01*
X10505440D01*
Y6240556D01*
X10447020D01*
Y6244590D01*
X10392205D01*
X10319282Y6317512D01*
X10310881Y6323126D01*
X10300970Y6325098D01*
X10243180D01*
Y6351900D01*
X10137780D01*
Y6246500D01*
X10243180D01*
Y6273302D01*
X10290243D01*
X10355580Y6207965D01*
Y6125210D01*
X10447020D01*
Y6129244D01*
X10505440D01*
Y6125210D01*
X10596880D01*
Y6159002D01*
X10756900D01*
X10766811Y6160974D01*
X10775212Y6166588D01*
X10831625Y6223000D01*
X10840679D01*
X10844753Y6224688D01*
X10857454Y6216202D01*
Y6162223D01*
X10853378Y6159500D01*
X10838221D01*
X10824218Y6153700D01*
X10813500Y6142982D01*
X10807700Y6128979D01*
Y6119925D01*
X10720773Y6032998D01*
X10598150D01*
Y6066790D01*
X10506710D01*
Y6062756D01*
X10448290D01*
Y6066790D01*
X10393475D01*
X10340872Y6119393D01*
X10332471Y6125007D01*
X10322560Y6126978D01*
X10073000D01*
Y6153780D01*
X9967600D01*
Y6048380D01*
X10073000D01*
Y6075183D01*
X10180585D01*
X10185846Y6062483D01*
X10127451Y6004089D01*
X10119031Y5991486D01*
X10116073Y5976620D01*
Y5831840D01*
X9898380D01*
Y5704840D01*
X10193020D01*
Y5789987D01*
X10193767Y5793740D01*
Y5960529D01*
X10250969Y6017731D01*
X10253094Y6020913D01*
X10255800Y6023618D01*
X10257264Y6027153D01*
X10259389Y6030334D01*
X10260136Y6034087D01*
X10261600Y6037621D01*
Y6041447D01*
X10262347Y6045200D01*
X10261600Y6048953D01*
Y6052779D01*
X10260136Y6056313D01*
X10259389Y6060066D01*
X10257775Y6062483D01*
X10258360Y6065192D01*
X10262907Y6073257D01*
X10265020Y6075183D01*
X10311833D01*
X10356850Y6030165D01*
Y5947410D01*
X10448290D01*
Y5951444D01*
X10506710D01*
Y5947410D01*
X10598150D01*
Y5981202D01*
X10731500D01*
X10741411Y5983174D01*
X10749812Y5988788D01*
X10844325Y6083300D01*
X10853378D01*
X10857454Y6080577D01*
Y5892800D01*
X10861480Y5883080D01*
X10871200Y5879054D01*
X12212236D01*
X12217096Y5867320D01*
X12163727Y5813951D01*
X12064164Y5724977D01*
X11959761Y5641718D01*
X11850858Y5564447D01*
X11737796Y5493406D01*
X11620926Y5428814D01*
X11500622Y5370878D01*
X11377254Y5319778D01*
X11251214Y5275674D01*
X11122905Y5238709D01*
X10992723Y5208996D01*
X10861075Y5186628D01*
X10728388Y5171678D01*
X10595064Y5164191D01*
X10461536D01*
X10328212Y5171678D01*
X10195524Y5186628D01*
X10063877Y5208996D01*
X10021564Y5218654D01*
X10022995Y5231354D01*
X10604499D01*
X10604500Y5231353D01*
X10614221Y5235379D01*
X10614221Y5235381D01*
X10665020Y5286180D01*
X10669047Y5295900D01*
X10669046Y5295901D01*
Y5511800D01*
X10665020Y5521520D01*
X10665020Y5521521D01*
X10639620Y5546920D01*
X10629900Y5550947D01*
X10629899Y5550946D01*
X9918700D01*
X9908980Y5546920D01*
X9908979Y5546920D01*
X9883580Y5521520D01*
X9879553Y5511800D01*
X9879554Y5511799D01*
Y5321300D01*
X9883580Y5311580D01*
X9946301Y5248858D01*
X9939908Y5237291D01*
X9933694Y5238709D01*
X9805386Y5275674D01*
X9679345Y5319778D01*
X9555980Y5370877D01*
X9435673Y5428814D01*
X9318804Y5493406D01*
X9205737Y5564450D01*
X9096838Y5641718D01*
X8992438Y5724975D01*
X8892876Y5813948D01*
X8798451Y5908373D01*
X8709477Y6007935D01*
X8626218Y6112338D01*
X8548947Y6221241D01*
X8477906Y6334304D01*
X8413314Y6451174D01*
X8355378Y6571478D01*
X8304278Y6694845D01*
X8260174Y6820886D01*
X8223209Y6949195D01*
X8193496Y7079377D01*
X8171128Y7211025D01*
X8156178Y7343712D01*
X8148691Y7477036D01*
Y7543800D01*
Y7610564D01*
X8156178Y7743888D01*
X8171128Y7876576D01*
X8193496Y8008223D01*
X8223209Y8138406D01*
X8260174Y8266714D01*
X8304278Y8392754D01*
X8355377Y8516120D01*
X8413314Y8636427D01*
X8477906Y8753296D01*
X8548950Y8866363D01*
X8626218Y8975261D01*
X8709475Y9079662D01*
X8798448Y9179224D01*
X8892873Y9273649D01*
X8992435Y9362623D01*
X9096838Y9445882D01*
X9205741Y9523153D01*
X9318804Y9594194D01*
X9435674Y9658786D01*
X9555978Y9716721D01*
X9679345Y9767822D01*
X9805386Y9811926D01*
X9933695Y9848891D01*
X10063877Y9878604D01*
X10195525Y9900972D01*
X10328211Y9915922D01*
X10461536Y9923409D01*
X10595064D01*
X10728388Y9915922D01*
D02*
G37*
G36*
X10655300Y5511800D02*
Y5295900D01*
X10604500Y5245100D01*
X9969500D01*
X9893300Y5321300D01*
Y5511800D01*
X9918700Y5537200D01*
X10629900D01*
X10655300Y5511800D01*
D02*
G37*
%LPC*%
G36*
X10871200Y9792747D02*
X10871199Y9792746D01*
X10642600D01*
X10640510Y9791881D01*
X10638253Y9792041D01*
X10635836Y9789945D01*
X10632880Y9788720D01*
X10632014Y9786630D01*
X10630305Y9785148D01*
X10604905Y9734348D01*
X10604678Y9731156D01*
X10603454Y9728200D01*
Y9225894D01*
X10586106Y9208546D01*
X10414000D01*
X10404280Y9204520D01*
X10404279Y9204520D01*
X10378880Y9179120D01*
X10374853Y9169400D01*
X10374854Y9169399D01*
Y9080500D01*
X10378880Y9070780D01*
X10378880Y9070779D01*
X10442380Y9007280D01*
X10452100Y9003253D01*
X10452101Y9003254D01*
X10497206D01*
X10632880Y8867580D01*
X10642600Y8863553D01*
X10642601Y8863554D01*
X10883900D01*
X10893620Y8867580D01*
X10893621Y8867580D01*
X10919020Y8892980D01*
X10923047Y8902700D01*
X10923046Y8902701D01*
Y9740899D01*
X10923047Y9740900D01*
X10919020Y9750620D01*
X10880920Y9788720D01*
X10871200Y9792747D01*
D02*
G37*
G36*
X10340200Y9731800D02*
X10054800D01*
Y8886400D01*
X10340200D01*
Y9583109D01*
X10467110D01*
X10468618Y9581600D01*
X10482621Y9575800D01*
X10497779D01*
X10511782Y9581600D01*
X10522500Y9592318D01*
X10528300Y9606321D01*
Y9621479D01*
X10522500Y9635482D01*
X10511782Y9646200D01*
X10497779Y9652000D01*
X10482621D01*
X10468618Y9646200D01*
X10467110Y9644691D01*
X10340200D01*
Y9731800D01*
D02*
G37*
G36*
X11122729Y9602700D02*
X11102271D01*
X11082509Y9597405D01*
X11064791Y9587175D01*
X11050325Y9572709D01*
X11040095Y9554991D01*
X11034800Y9535229D01*
Y9514771D01*
X11040095Y9495009D01*
X11050325Y9477291D01*
X11064791Y9462825D01*
X11082509Y9452595D01*
X11102271Y9447300D01*
X11122729D01*
X11142491Y9452595D01*
X11160209Y9462825D01*
X11174675Y9477291D01*
X11184905Y9495009D01*
X11190200Y9514771D01*
Y9535229D01*
X11184905Y9554991D01*
X11174675Y9572709D01*
X11160209Y9587175D01*
X11142491Y9597405D01*
X11122729Y9602700D01*
D02*
G37*
G36*
X11503729Y9590000D02*
X11483271D01*
X11463509Y9584705D01*
X11445791Y9574475D01*
X11431325Y9560009D01*
X11421095Y9542291D01*
X11415800Y9522529D01*
Y9502071D01*
X11421095Y9482309D01*
X11431325Y9464591D01*
X11445791Y9450125D01*
X11463509Y9439895D01*
X11483271Y9434600D01*
X11503729D01*
X11523491Y9439895D01*
X11541209Y9450125D01*
X11555675Y9464591D01*
X11565905Y9482309D01*
X11571200Y9502071D01*
Y9522529D01*
X11565905Y9542291D01*
X11555675Y9560009D01*
X11541209Y9574475D01*
X11523491Y9584705D01*
X11503729Y9590000D01*
D02*
G37*
G36*
X9446329Y9564600D02*
X9425871D01*
X9406109Y9559305D01*
X9388391Y9549075D01*
X9373925Y9534609D01*
X9363695Y9516891D01*
X9358400Y9497129D01*
Y9476671D01*
X9363695Y9456909D01*
X9373925Y9439191D01*
X9388391Y9424725D01*
X9406109Y9414495D01*
X9425871Y9409200D01*
X9446329D01*
X9466091Y9414495D01*
X9483809Y9424725D01*
X9498275Y9439191D01*
X9508505Y9456909D01*
X9513800Y9476671D01*
Y9497129D01*
X9508505Y9516891D01*
X9498275Y9534609D01*
X9483809Y9549075D01*
X9466091Y9559305D01*
X9446329Y9564600D01*
D02*
G37*
G36*
X11797146Y9295200D02*
X11774054D01*
X11751749Y9289223D01*
X11731751Y9277677D01*
X11715423Y9261349D01*
X11703877Y9241351D01*
X11697900Y9219046D01*
Y9195954D01*
X11703877Y9173649D01*
X11715423Y9153651D01*
X11731751Y9137323D01*
X11751749Y9125777D01*
X11774054Y9119800D01*
X11797146D01*
X11819451Y9125777D01*
X11839449Y9137323D01*
X11855777Y9153651D01*
X11867323Y9173649D01*
X11873300Y9195954D01*
Y9219046D01*
X11867323Y9241351D01*
X11855777Y9261349D01*
X11839449Y9277677D01*
X11819451Y9289223D01*
X11797146Y9295200D01*
D02*
G37*
G36*
X11543146D02*
X11520054D01*
X11497749Y9289223D01*
X11477751Y9277677D01*
X11461423Y9261349D01*
X11449877Y9241351D01*
X11443900Y9219046D01*
Y9195954D01*
X11449877Y9173649D01*
X11461423Y9153651D01*
X11477751Y9137323D01*
X11497749Y9125777D01*
X11520054Y9119800D01*
X11543146D01*
X11565451Y9125777D01*
X11585449Y9137323D01*
X11601777Y9153651D01*
X11613323Y9173649D01*
X11619300Y9195954D01*
Y9219046D01*
X11613323Y9241351D01*
X11601777Y9261349D01*
X11585449Y9277677D01*
X11565451Y9289223D01*
X11543146Y9295200D01*
D02*
G37*
G36*
X11289146D02*
X11266054D01*
X11243749Y9289223D01*
X11223751Y9277677D01*
X11207423Y9261349D01*
X11195877Y9241351D01*
X11189900Y9219046D01*
Y9195954D01*
X11195877Y9173649D01*
X11207423Y9153651D01*
X11223751Y9137323D01*
X11243749Y9125777D01*
X11266054Y9119800D01*
X11289146D01*
X11311451Y9125777D01*
X11331449Y9137323D01*
X11347777Y9153651D01*
X11359323Y9173649D01*
X11365300Y9195954D01*
Y9219046D01*
X11359323Y9241351D01*
X11347777Y9261349D01*
X11331449Y9277677D01*
X11311451Y9289223D01*
X11289146Y9295200D01*
D02*
G37*
G36*
X11035146D02*
X11012054D01*
X10989749Y9289223D01*
X10969751Y9277677D01*
X10953423Y9261349D01*
X10941877Y9241351D01*
X10935900Y9219046D01*
Y9195954D01*
X10941877Y9173649D01*
X10953423Y9153651D01*
X10969751Y9137323D01*
X10989749Y9125777D01*
X11012054Y9119800D01*
X11035146D01*
X11057451Y9125777D01*
X11077449Y9137323D01*
X11093777Y9153651D01*
X11105323Y9173649D01*
X11111300Y9195954D01*
Y9219046D01*
X11105323Y9241351D01*
X11093777Y9261349D01*
X11077449Y9277677D01*
X11057451Y9289223D01*
X11035146Y9295200D01*
D02*
G37*
G36*
X11125200Y8903747D02*
X11125199Y8903746D01*
X10998201D01*
X10998200Y8903747D01*
X10988480Y8899720D01*
X10950380Y8861620D01*
X10946353Y8851900D01*
X10946354Y8851899D01*
Y8483601D01*
X10946353Y8483600D01*
X10950379Y8473879D01*
X10950381Y8473879D01*
X10963080Y8461180D01*
X10972800Y8457153D01*
X10972801Y8457154D01*
X11098300D01*
Y8333400D01*
X11217075D01*
X11229942Y8320533D01*
X11225082Y8308800D01*
X11098300D01*
Y8183400D01*
X11253700D01*
Y8280182D01*
X11265433Y8285042D01*
X11302502Y8247973D01*
Y7336989D01*
X11292201Y7326687D01*
X11285700Y7310994D01*
Y7294006D01*
X11292201Y7278313D01*
X11304213Y7266301D01*
X11319906Y7259800D01*
X11336894D01*
X11352587Y7266301D01*
X11364599Y7278313D01*
X11371100Y7294006D01*
Y7310994D01*
X11364599Y7326687D01*
X11354298Y7336989D01*
Y8258700D01*
X11352326Y8268610D01*
X11346712Y8277012D01*
X11253700Y8370025D01*
Y8458799D01*
X11253700Y8458799D01*
X11253700D01*
X11253700Y8458800D01*
X11257830Y8469789D01*
X11261920Y8473880D01*
X11265947Y8483600D01*
X11265946Y8483601D01*
Y8597900D01*
X11261920Y8607620D01*
X11261920Y8607621D01*
X11236520Y8633020D01*
X11226800Y8637047D01*
X11226799Y8637046D01*
X11118194D01*
X11112120Y8643120D01*
X11109221Y8644321D01*
X11108020Y8647220D01*
X11108020Y8647220D01*
X11100846Y8654394D01*
Y8757306D01*
X11147620Y8804080D01*
X11151647Y8813800D01*
X11151646Y8813801D01*
Y8877299D01*
X11151647Y8877300D01*
X11147621Y8887021D01*
X11147619Y8887021D01*
X11134920Y8899720D01*
X11125200Y8903747D01*
D02*
G37*
G36*
X12248700Y8923800D02*
X12123300D01*
Y8768400D01*
X12248700D01*
Y8923800D01*
D02*
G37*
G36*
X12098700D02*
X11973300D01*
Y8768400D01*
X12098700D01*
Y8923800D01*
D02*
G37*
G36*
X11948700D02*
X11823300D01*
Y8768400D01*
X11948700D01*
Y8923800D01*
D02*
G37*
G36*
X11798700D02*
X11673300D01*
Y8768400D01*
X11798700D01*
Y8923800D01*
D02*
G37*
G36*
X11648700D02*
X11523300D01*
Y8768400D01*
X11648700D01*
Y8923800D01*
D02*
G37*
G36*
X11348700D02*
X11223300D01*
Y8768400D01*
X11348700D01*
Y8923800D01*
D02*
G37*
G36*
X11498700Y8923800D02*
X11373300D01*
Y8768400D01*
X11498700D01*
Y8923800D01*
D02*
G37*
G36*
X9804400Y9360947D02*
X9804399Y9360946D01*
X9156700D01*
X9146980Y9356920D01*
X9146979Y9356920D01*
X8524680Y8734620D01*
X8520653Y8724900D01*
X8520654Y8724899D01*
Y6616701D01*
X8520653Y6616700D01*
X8524679Y6606979D01*
X8524681Y6606979D01*
X9286680Y5844980D01*
X9296400Y5840953D01*
X9296401Y5840954D01*
X9855200D01*
X9864920Y5844980D01*
X9864921Y5844980D01*
X9890320Y5870380D01*
X9894347Y5880100D01*
X9894346Y5880101D01*
Y6388099D01*
X9894347Y6388100D01*
X9890320Y6397820D01*
X9852220Y6435920D01*
X9842500Y6439947D01*
X9842499Y6439946D01*
X9073494D01*
X8954546Y6558894D01*
Y8617606D01*
X8997294Y8660354D01*
X9944099D01*
X9944100Y8660353D01*
X9953821Y8664379D01*
X9953821Y8664381D01*
X10004620Y8715180D01*
X10008647Y8724900D01*
X10008646Y8724901D01*
Y9055099D01*
X10008647Y9055100D01*
X10004620Y9064820D01*
X9966520Y9102920D01*
X9956800Y9106947D01*
X9956799Y9106946D01*
X9898994D01*
X9881646Y9124294D01*
Y9283700D01*
X9877620Y9293420D01*
X9877620Y9293421D01*
X9814120Y9356920D01*
X9804400Y9360947D01*
D02*
G37*
G36*
X12523700Y8608800D02*
X12368300D01*
Y8483400D01*
X12523700D01*
Y8608800D01*
D02*
G37*
G36*
Y8458800D02*
X12368300D01*
Y8333400D01*
X12523700D01*
Y8458800D01*
D02*
G37*
G36*
Y8308800D02*
X12368300D01*
Y8183400D01*
X12523700D01*
Y8308800D01*
D02*
G37*
G36*
X12710229Y8205700D02*
X12689771D01*
X12670009Y8200405D01*
X12652291Y8190175D01*
X12637825Y8175709D01*
X12627595Y8157991D01*
X12622300Y8138229D01*
Y8117771D01*
X12627595Y8098009D01*
X12637825Y8080291D01*
X12652291Y8065825D01*
X12670009Y8055595D01*
X12689771Y8050300D01*
X12710229D01*
X12729991Y8055595D01*
X12747709Y8065825D01*
X12762175Y8080291D01*
X12772405Y8098009D01*
X12777700Y8117771D01*
Y8138229D01*
X12772405Y8157991D01*
X12762175Y8175709D01*
X12747709Y8190175D01*
X12729991Y8200405D01*
X12710229Y8205700D01*
D02*
G37*
G36*
X12523700Y8158800D02*
X12368300D01*
Y8033400D01*
X12523700D01*
Y8158800D01*
D02*
G37*
G36*
X11253700D02*
X11098300D01*
Y8033400D01*
X11253700D01*
Y8158800D01*
D02*
G37*
G36*
X12523700Y8008800D02*
X12368300D01*
Y7883400D01*
X12523700D01*
Y8008800D01*
D02*
G37*
G36*
X11253700D02*
X11098300D01*
Y7883400D01*
X11253700D01*
Y8008800D01*
D02*
G37*
G36*
X8328729Y8002500D02*
X8308271D01*
X8288509Y7997205D01*
X8270791Y7986975D01*
X8256325Y7972509D01*
X8246095Y7954791D01*
X8240800Y7935029D01*
Y7914571D01*
X8246095Y7894809D01*
X8256325Y7877091D01*
X8270791Y7862625D01*
X8288509Y7852395D01*
X8308271Y7847100D01*
X8328729D01*
X8348491Y7852395D01*
X8366209Y7862625D01*
X8380675Y7877091D01*
X8390905Y7894809D01*
X8396200Y7914571D01*
Y7935029D01*
X8390905Y7954791D01*
X8380675Y7972509D01*
X8366209Y7986975D01*
X8348491Y7997205D01*
X8328729Y8002500D01*
D02*
G37*
G36*
X12523700Y7858800D02*
X12368300D01*
Y7733400D01*
X12523700D01*
Y7858800D01*
D02*
G37*
G36*
X11253700Y7858800D02*
X11098300D01*
Y7733400D01*
X11253700D01*
Y7858800D01*
D02*
G37*
G36*
X12735629Y7812000D02*
X12715171D01*
X12695409Y7806705D01*
X12677691Y7796475D01*
X12663225Y7782009D01*
X12652995Y7764291D01*
X12647700Y7744529D01*
Y7724071D01*
X12652995Y7704309D01*
X12663225Y7686591D01*
X12677691Y7672125D01*
X12695409Y7661895D01*
X12715171Y7656600D01*
X12735629D01*
X12755391Y7661895D01*
X12773109Y7672125D01*
X12787575Y7686591D01*
X12797805Y7704309D01*
X12803101Y7724071D01*
Y7744529D01*
X12797805Y7764291D01*
X12787575Y7782009D01*
X12773109Y7796475D01*
X12755391Y7806705D01*
X12735629Y7812000D01*
D02*
G37*
G36*
X12523700Y7708800D02*
X12368300D01*
Y7583400D01*
X12523700D01*
Y7708800D01*
D02*
G37*
G36*
X11253700D02*
X11098300D01*
Y7583400D01*
X11253700D01*
Y7708800D01*
D02*
G37*
G36*
X8328729Y7646900D02*
X8308271D01*
X8288509Y7641605D01*
X8270791Y7631375D01*
X8256325Y7616909D01*
X8246095Y7599191D01*
X8240800Y7579429D01*
Y7558971D01*
X8246095Y7539209D01*
X8256325Y7521491D01*
X8270791Y7507025D01*
X8288509Y7496795D01*
X8308271Y7491500D01*
X8328729D01*
X8348491Y7496795D01*
X8366209Y7507025D01*
X8380675Y7521491D01*
X8390905Y7539209D01*
X8396200Y7558971D01*
Y7579429D01*
X8390905Y7599191D01*
X8380675Y7616909D01*
X8366209Y7631375D01*
X8348491Y7641605D01*
X8328729Y7646900D01*
D02*
G37*
G36*
X12523700Y7558800D02*
X12368300D01*
Y7433400D01*
X12523700D01*
Y7558800D01*
D02*
G37*
G36*
X11253700Y7558799D02*
X11098300D01*
Y7433400D01*
X11253700D01*
Y7558799D01*
D02*
G37*
G36*
X12523700Y7408800D02*
X12368300D01*
Y7379198D01*
X12321584D01*
X12315182Y7385600D01*
X12301179Y7391400D01*
X12286021D01*
X12272018Y7385600D01*
X12261300Y7374882D01*
X12255500Y7360879D01*
Y7345721D01*
X12261300Y7331718D01*
X12272018Y7321000D01*
X12286021Y7315200D01*
X12301179D01*
X12315182Y7321000D01*
X12321584Y7327402D01*
X12368300D01*
Y7283400D01*
X12523700D01*
Y7408800D01*
D02*
G37*
G36*
X11253700D02*
X11098300D01*
Y7283400D01*
X11253700D01*
Y7408800D01*
D02*
G37*
G36*
X12735629Y7386550D02*
X12715171D01*
X12695409Y7381255D01*
X12677691Y7371025D01*
X12663225Y7356559D01*
X12652995Y7338841D01*
X12647700Y7319079D01*
Y7298621D01*
X12652995Y7278859D01*
X12663225Y7261141D01*
X12677691Y7246675D01*
X12695409Y7236445D01*
X12715171Y7231150D01*
X12735629D01*
X12755391Y7236445D01*
X12773109Y7246675D01*
X12787575Y7261141D01*
X12797805Y7278859D01*
X12803101Y7298621D01*
Y7319079D01*
X12797805Y7338841D01*
X12787575Y7356559D01*
X12773109Y7371025D01*
X12755391Y7381255D01*
X12735629Y7386550D01*
D02*
G37*
G36*
X12523700Y7258800D02*
X12368300D01*
Y7214098D01*
X12321584D01*
X12315182Y7220500D01*
X12301179Y7226300D01*
X12286021D01*
X12272018Y7220500D01*
X12261300Y7209782D01*
X12255500Y7195779D01*
Y7180621D01*
X12261300Y7166618D01*
X12272018Y7155900D01*
X12286021Y7150100D01*
X12301179D01*
X12315182Y7155900D01*
X12321584Y7162302D01*
X12368300D01*
Y7133400D01*
X12523700D01*
Y7258800D01*
D02*
G37*
G36*
X8328729Y7291300D02*
X8308271D01*
X8288509Y7286005D01*
X8270791Y7275775D01*
X8256325Y7261309D01*
X8246095Y7243591D01*
X8240800Y7223829D01*
Y7203371D01*
X8246095Y7183609D01*
X8256325Y7165891D01*
X8270791Y7151425D01*
X8288509Y7141195D01*
X8308271Y7135900D01*
X8328729D01*
X8348491Y7141195D01*
X8366209Y7151425D01*
X8380675Y7165891D01*
X8390905Y7183609D01*
X8396200Y7203371D01*
Y7223829D01*
X8390905Y7243591D01*
X8380675Y7261309D01*
X8366209Y7275775D01*
X8348491Y7286005D01*
X8328729Y7291300D01*
D02*
G37*
G36*
X11253700Y7258800D02*
X11098300D01*
Y7133400D01*
X11253700D01*
Y7258800D01*
D02*
G37*
G36*
X12523700Y7108800D02*
X12368300D01*
Y6983400D01*
X12523700D01*
Y7108800D01*
D02*
G37*
G36*
X12684829Y6999200D02*
X12664371D01*
X12644609Y6993905D01*
X12626891Y6983675D01*
X12612425Y6969209D01*
X12602195Y6951491D01*
X12596900Y6931729D01*
Y6911271D01*
X12602195Y6891509D01*
X12612425Y6873791D01*
X12626891Y6859325D01*
X12644609Y6849095D01*
X12664371Y6843800D01*
X12684829D01*
X12704591Y6849095D01*
X12722309Y6859325D01*
X12736775Y6873791D01*
X12747005Y6891509D01*
X12752300Y6911271D01*
Y6931729D01*
X12747005Y6951491D01*
X12736775Y6969209D01*
X12722309Y6983675D01*
X12704591Y6993905D01*
X12684829Y6999200D01*
D02*
G37*
G36*
X12199579Y7162800D02*
X12184421D01*
X12170418Y7157000D01*
X12159700Y7146282D01*
X12153900Y7132279D01*
Y7117121D01*
X12159700Y7103118D01*
X12166102Y7096716D01*
Y7061200D01*
X12168074Y7051290D01*
X12173688Y7042888D01*
X12338788Y6877788D01*
X12347190Y6872174D01*
X12357100Y6870202D01*
X12368300D01*
Y6833400D01*
X12523700D01*
Y6958800D01*
X12368300D01*
Y6939485D01*
X12355600Y6934225D01*
X12217898Y7071927D01*
Y7096716D01*
X12224300Y7103118D01*
X12230100Y7117121D01*
Y7132279D01*
X12224300Y7146282D01*
X12213582Y7157000D01*
X12199579Y7162800D01*
D02*
G37*
G36*
X11253700Y7108800D02*
X11098300D01*
Y7034697D01*
X10971200D01*
X10961289Y7032726D01*
X10952887Y7027112D01*
X10484588Y6558812D01*
X10478974Y6550411D01*
X10477002Y6540500D01*
Y6352584D01*
X10470600Y6346182D01*
X10464800Y6332179D01*
Y6317021D01*
X10470600Y6303018D01*
X10481318Y6292300D01*
X10495321Y6286500D01*
X10510479D01*
X10524482Y6292300D01*
X10535200Y6303018D01*
X10541000Y6317021D01*
Y6332179D01*
X10535200Y6346182D01*
X10528798Y6352584D01*
Y6529773D01*
X10981927Y6982902D01*
X11138700D01*
X11141204Y6983400D01*
X11253700D01*
Y7108800D01*
D02*
G37*
G36*
X8669335Y6377810D02*
X8646244D01*
X8623939Y6371834D01*
X8603941Y6360288D01*
X8587612Y6343959D01*
X8576066Y6323961D01*
X8570090Y6301656D01*
Y6278565D01*
X8576066Y6256260D01*
X8587612Y6236261D01*
X8603941Y6219933D01*
X8623939Y6208387D01*
X8646244Y6202411D01*
X8669335D01*
X8691640Y6208387D01*
X8711639Y6219933D01*
X8727967Y6236261D01*
X8739513Y6256260D01*
X8745489Y6278565D01*
Y6301656D01*
X8739513Y6323961D01*
X8727967Y6343959D01*
X8711639Y6360288D01*
X8691640Y6371834D01*
X8669335Y6377810D01*
D02*
G37*
G36*
X9028546Y6018600D02*
X9005454D01*
X8983149Y6012623D01*
X8963151Y6001077D01*
X8946823Y5984749D01*
X8935277Y5964751D01*
X8929300Y5942446D01*
Y5919354D01*
X8935277Y5897049D01*
X8946823Y5877051D01*
X8963151Y5860723D01*
X8983149Y5849177D01*
X9005454Y5843200D01*
X9028546D01*
X9050851Y5849177D01*
X9070849Y5860723D01*
X9087177Y5877051D01*
X9098723Y5897049D01*
X9104700Y5919354D01*
Y5942446D01*
X9098723Y5964751D01*
X9087177Y5984749D01*
X9070849Y6001077D01*
X9050851Y6012623D01*
X9028546Y6018600D01*
D02*
G37*
G36*
X10811900Y5852500D02*
X10676500D01*
Y5816297D01*
X10650220D01*
Y5844540D01*
X10355580D01*
Y5717540D01*
X10650220D01*
Y5764502D01*
X10676500D01*
Y5712100D01*
X10811900D01*
Y5753258D01*
X10824218Y5758900D01*
X10838221Y5753100D01*
X10853379D01*
X10867382Y5758900D01*
X10878100Y5769618D01*
X10883900Y5783621D01*
Y5798779D01*
X10878100Y5812782D01*
X10867382Y5823500D01*
X10853379Y5829300D01*
X10838221D01*
X10824218Y5823500D01*
X10811900Y5829142D01*
Y5852500D01*
D02*
G37*
G36*
X11214100Y5805186D02*
Y5727700D01*
X11291586D01*
X11285639Y5749893D01*
X11273738Y5770507D01*
X11256907Y5787338D01*
X11236293Y5799239D01*
X11214100Y5805186D01*
D02*
G37*
G36*
X11188700D02*
X11166507Y5799239D01*
X11145893Y5787338D01*
X11129062Y5770507D01*
X11117161Y5749893D01*
X11111214Y5727700D01*
X11188700D01*
Y5805186D01*
D02*
G37*
G36*
X9560629Y5792700D02*
X9540171D01*
X9520409Y5787405D01*
X9502691Y5777175D01*
X9488225Y5762709D01*
X9477995Y5744991D01*
X9472700Y5725229D01*
Y5704771D01*
X9477995Y5685009D01*
X9488225Y5667291D01*
X9502691Y5652825D01*
X9520409Y5642595D01*
X9540171Y5637300D01*
X9560629D01*
X9580391Y5642595D01*
X9598109Y5652825D01*
X9612575Y5667291D01*
X9622805Y5685009D01*
X9628100Y5704771D01*
Y5725229D01*
X9622805Y5744991D01*
X9612575Y5762709D01*
X9598109Y5777175D01*
X9580391Y5787405D01*
X9560629Y5792700D01*
D02*
G37*
G36*
X9196605Y5875321D02*
X9072579Y5751295D01*
X9196605Y5627268D01*
X9320632Y5751295D01*
X9196605Y5875321D01*
D02*
G37*
G36*
X11291586Y5702300D02*
X11214100D01*
Y5624814D01*
X11236293Y5630761D01*
X11256907Y5642662D01*
X11273738Y5659493D01*
X11285639Y5680107D01*
X11291586Y5702300D01*
D02*
G37*
G36*
X11188700D02*
X11111214D01*
X11117161Y5680107D01*
X11129062Y5659493D01*
X11145893Y5642662D01*
X11166507Y5630761D01*
X11188700Y5624814D01*
Y5702300D01*
D02*
G37*
G36*
X11579929Y5691100D02*
X11559471D01*
X11539709Y5685805D01*
X11521991Y5675575D01*
X11507525Y5661109D01*
X11497295Y5643391D01*
X11492000Y5623629D01*
Y5603171D01*
X11497295Y5583409D01*
X11507525Y5565691D01*
X11521991Y5551225D01*
X11539709Y5540995D01*
X11559471Y5535700D01*
X11579929D01*
X11599691Y5540995D01*
X11617409Y5551225D01*
X11631875Y5565691D01*
X11642105Y5583409D01*
X11647400Y5603171D01*
Y5623629D01*
X11642105Y5643391D01*
X11631875Y5661109D01*
X11617409Y5675575D01*
X11599691Y5685805D01*
X11579929Y5691100D01*
D02*
G37*
G36*
X9573329Y5564100D02*
X9552871D01*
X9533109Y5558805D01*
X9515391Y5548575D01*
X9500925Y5534109D01*
X9490695Y5516391D01*
X9485400Y5496629D01*
Y5476171D01*
X9490695Y5456409D01*
X9500925Y5438691D01*
X9515391Y5424225D01*
X9533109Y5413995D01*
X9552871Y5408700D01*
X9573329D01*
X9593091Y5413995D01*
X9610809Y5424225D01*
X9625275Y5438691D01*
X9635505Y5456409D01*
X9640800Y5476171D01*
Y5496629D01*
X9635505Y5516391D01*
X9625275Y5534109D01*
X9610809Y5548575D01*
X9593091Y5558805D01*
X9573329Y5564100D01*
D02*
G37*
G36*
X11211629Y5526000D02*
X11191171D01*
X11171409Y5520705D01*
X11153691Y5510475D01*
X11139225Y5496009D01*
X11128995Y5478291D01*
X11123700Y5458529D01*
Y5438071D01*
X11128995Y5418309D01*
X11139225Y5400591D01*
X11153691Y5386125D01*
X11171409Y5375895D01*
X11191171Y5370600D01*
X11211629D01*
X11231391Y5375895D01*
X11249109Y5386125D01*
X11263575Y5400591D01*
X11273805Y5418309D01*
X11279100Y5438071D01*
Y5458529D01*
X11273805Y5478291D01*
X11263575Y5496009D01*
X11249109Y5510475D01*
X11231391Y5520705D01*
X11211629Y5526000D01*
D02*
G37*
%LPD*%
G36*
X10909300Y9740900D02*
Y8902700D01*
X10883900Y8877300D01*
X10642600D01*
X10502900Y9017000D01*
X10452100D01*
X10388600Y9080500D01*
Y9169400D01*
X10414000Y9194800D01*
X10591800D01*
X10617200Y9220200D01*
Y9728200D01*
X10642600Y9779000D01*
X10871200D01*
X10909300Y9740900D01*
D02*
G37*
G36*
X11137900Y8877300D02*
Y8813800D01*
X11087100Y8763000D01*
Y8648700D01*
X11098300Y8637500D01*
Y8633400D01*
X11102400D01*
X11112500Y8623300D01*
X11226800D01*
X11252200Y8597900D01*
Y8483600D01*
X11239500Y8470900D01*
X10972800D01*
X10960100Y8483600D01*
Y8851900D01*
X10998200Y8890000D01*
X11125200D01*
X11137900Y8877300D01*
D02*
G37*
G36*
X9867900Y9283700D02*
Y9118600D01*
X9893300Y9093200D01*
X9956800D01*
X9994900Y9055100D01*
Y8724900D01*
X9944100Y8674100D01*
X8991600D01*
X8940800Y8623300D01*
Y6553200D01*
X9067800Y6426200D01*
X9842500D01*
X9880600Y6388100D01*
Y5880100D01*
X9855200Y5854700D01*
X9296400D01*
X8534400Y6616700D01*
Y8724900D01*
X9156700Y9347200D01*
X9804400D01*
X9867900Y9283700D01*
D02*
G37*
D19*
X10744200Y5782300D02*
D03*
Y5622300D02*
D03*
D21*
X10045700Y5458460D02*
D03*
Y5768340D02*
D03*
X10502900Y5471160D02*
D03*
Y5781040D02*
D03*
D35*
X11328400Y7302500D02*
Y8258700D01*
X11191000Y8396100D02*
X11328400Y8258700D01*
X10502900Y6324600D02*
Y6540500D01*
X10731500Y6007100D02*
X10845800Y6121400D01*
X10552430Y6007100D02*
X10731500D01*
X10756900Y6184900D02*
X10833100Y6261100D01*
X10551160Y6184900D02*
X10756900D01*
X10401300D02*
Y6198870D01*
X10300970Y6299200D02*
X10401300Y6198870D01*
X10190480Y6299200D02*
X10300970D01*
X10402570Y6007100D02*
Y6021070D01*
X10322560Y6101080D02*
X10402570Y6021070D01*
X10020300Y6101080D02*
X10322560D01*
X10512260Y5790400D02*
X10731500D01*
X10731900Y5790800D02*
X10845400D01*
X10502900Y5781040D02*
X10512260Y5790400D01*
X10731500D02*
X10731900Y5790800D01*
X10845400D02*
X10845800Y5791200D01*
X11176000Y8396100D02*
X11191000D01*
X12192000Y7061200D02*
Y7124700D01*
Y7061200D02*
X12357100Y6896100D01*
X12446000D01*
X12438100Y7188200D02*
X12446000Y7196100D01*
X12293600Y7188200D02*
X12438100D01*
X12438800Y7353300D02*
X12446000Y7346100D01*
X12293600Y7353300D02*
X12438800D01*
X10502900Y6540500D02*
X10971200Y7008800D01*
X11138700D01*
X10947578Y6864739D02*
X11144639D01*
X10693400Y6610561D02*
X10947578Y6864739D01*
X10693400Y6273800D02*
Y6610561D01*
X11144639Y6864739D02*
X11176000Y6896100D01*
X11138700Y7008800D02*
X11176000Y7046100D01*
X10197500Y9309100D02*
Y9496600D01*
X10314800Y9613900D01*
D36*
X10154920Y5976620D02*
X10223500Y6045200D01*
X10154920Y5793740D02*
Y5976620D01*
X10129520Y5768340D02*
X10154920Y5793740D01*
X10045700Y5768340D02*
X10129520D01*
D38*
X10314800Y9613900D02*
X10490200D01*
D39*
X11201400Y5448300D02*
D03*
Y5715000D02*
D03*
X9563100Y5486400D02*
D03*
X12700000Y8128000D02*
D03*
X11112500Y9525000D02*
D03*
X9436100Y9486900D02*
D03*
X9550400Y5715000D02*
D03*
X11569700Y5613400D02*
D03*
X8318500Y7213600D02*
D03*
Y7569200D02*
D03*
Y7924800D02*
D03*
X12725400Y7308850D02*
D03*
X12674600Y6921500D02*
D03*
X11493500Y9512300D02*
D03*
X12725400Y7734300D02*
D03*
D40*
X9196605Y5751295D02*
D03*
D41*
X9017000Y5930900D02*
D03*
X8837395Y6110505D02*
D03*
X8657790Y6290110D02*
D03*
X11023600Y9207500D02*
D03*
X11277600D02*
D03*
X11531600D02*
D03*
X11785600D02*
D03*
D42*
X12039600D02*
D03*
D43*
X10223500Y6045200D02*
D03*
X11747500Y5791200D02*
D03*
X10502900Y6324600D02*
D03*
X10845800Y6121400D02*
D03*
Y5791200D02*
D03*
X8216900Y7442200D02*
D03*
X8432800Y7670800D02*
D03*
X8369300Y8102600D02*
D03*
X8420100Y6972300D02*
D03*
X8445500Y6629400D02*
D03*
X8382000Y6858000D02*
D03*
X8369300Y7048500D02*
D03*
X8305800Y7404100D02*
D03*
X8318500Y7747000D02*
D03*
X8382000Y8216900D02*
D03*
X8420100Y8407400D02*
D03*
X9779000Y9715500D02*
D03*
X10312400Y9829800D02*
D03*
X10502900D02*
D03*
X11214100Y9728200D02*
D03*
X11010900Y9779000D02*
D03*
X10502900Y9131300D02*
D03*
X10426700D02*
D03*
X12192000Y7124700D02*
D03*
X12293600Y7353300D02*
D03*
Y7188200D02*
D03*
X10833100Y6261100D02*
D03*
X10693400Y6273800D02*
D03*
X10325100Y5308600D02*
D03*
X10236200D02*
D03*
X11099800Y8839200D02*
D03*
X11010900D02*
D03*
X10490200Y9613900D02*
D03*
X9867900Y8864600D02*
D03*
X9944100D02*
D03*
D44*
X11328400Y7302500D02*
D03*
D45*
X10402570Y6007100D02*
D03*
X10552430D02*
D03*
X10401300Y6184900D02*
D03*
X10551160D02*
D03*
D46*
X10020300Y6299200D02*
D03*
X10190480D02*
D03*
D47*
X11176000Y8696100D02*
D03*
Y8546100D02*
D03*
Y8396100D02*
D03*
Y8246100D02*
D03*
Y8096100D02*
D03*
Y7946100D02*
D03*
Y7796100D02*
D03*
Y7646100D02*
D03*
Y7496100D02*
D03*
Y7346100D02*
D03*
Y7196100D02*
D03*
Y7046100D02*
D03*
Y6896100D02*
D03*
X12446000D02*
D03*
Y7046100D02*
D03*
Y7196100D02*
D03*
Y7346100D02*
D03*
X12446000Y7496100D02*
D03*
X12446000Y7646100D02*
D03*
X12446000Y7796100D02*
D03*
X12446000Y7946100D02*
D03*
Y8096100D02*
D03*
Y8246100D02*
D03*
Y8396100D02*
D03*
Y8546100D02*
D03*
Y8696100D02*
D03*
D48*
X12336000Y8846100D02*
D03*
X12186000D02*
D03*
X12036000D02*
D03*
X11886000D02*
D03*
X11586000D02*
D03*
X11436000Y8846100D02*
D03*
X11286000Y8846100D02*
D03*
X11736000D02*
D03*
D49*
X9582350Y7597808D02*
D03*
D50*
Y9044308D02*
D03*
Y6151308D02*
D03*
D51*
X10020300Y6101080D02*
D03*
Y5930900D02*
D03*
D52*
X10757500Y9309100D02*
D03*
X10197500D02*
D03*
%TF.MD5,4a51117cbf2d0a439cc39d6651576104*%
M02*
