%TF.GenerationSoftware,Altium Limited,Altium Designer,25.0.2 (28)*%
G04 Layer_Physical_Order=3*
G04 Layer_Color=16440176*
%FSLAX45Y45*%
%MOMM*%
%TF.SameCoordinates,35A56F3A-7D9F-4CF9-8D97-DF5CB8944ECC*%
%TF.FilePolarity,Positive*%
%TF.FileFunction,Copper,L3,Inr,Signal*%
%TF.Part,Single*%
G01*
G75*
%TA.AperFunction,ComponentPad*%
%ADD39C,1.30000*%
%ADD40P,2.12132X4X180.0*%
%ADD41C,1.50000*%
%ADD42R,1.50000X1.50000*%
%TA.AperFunction,ViaPad*%
%ADD43C,0.50800*%
%ADD44C,0.60000*%
G36*
X10728388Y9915922D02*
X10861076Y9900972D01*
X10992723Y9878604D01*
X11122906Y9848891D01*
X11251214Y9811926D01*
X11377254Y9767822D01*
X11500620Y9716723D01*
X11620927Y9658785D01*
X11737796Y9594194D01*
X11850863Y9523150D01*
X11959761Y9445882D01*
X12064162Y9362625D01*
X12125400Y9307900D01*
X12120552Y9295200D01*
X12117098Y9295200D01*
X11951900D01*
Y9119800D01*
X12127300D01*
Y9285258D01*
X12127300Y9289169D01*
X12132780Y9291621D01*
X12140000Y9294852D01*
X12163724Y9273651D01*
X12258149Y9179227D01*
X12347123Y9079664D01*
X12430382Y8975261D01*
X12507653Y8866358D01*
X12578694Y8753296D01*
X12643286Y8636426D01*
X12701221Y8516122D01*
X12752322Y8392754D01*
X12796426Y8266714D01*
X12833391Y8138405D01*
X12863104Y8008223D01*
X12885472Y7876575D01*
X12900423Y7743888D01*
X12907909Y7610564D01*
Y7543800D01*
Y7477036D01*
X12900423Y7343712D01*
X12885472Y7211024D01*
X12863104Y7079377D01*
X12833391Y6949194D01*
X12796426Y6820886D01*
X12792003Y6808246D01*
X10998200D01*
X10988480Y6804220D01*
X10984454Y6794500D01*
Y5892800D01*
X10988480Y5883080D01*
X10998200Y5879054D01*
X12212236D01*
X12217096Y5867320D01*
X12163727Y5813951D01*
X12064164Y5724977D01*
X11959761Y5641718D01*
X11850858Y5564447D01*
X11737796Y5493406D01*
X11620926Y5428814D01*
X11500622Y5370878D01*
X11377254Y5319778D01*
X11251214Y5275674D01*
X11122905Y5238709D01*
X10992723Y5208996D01*
X10861075Y5186628D01*
X10728388Y5171678D01*
X10595064Y5164191D01*
X10461536D01*
X10328212Y5171678D01*
X10195524Y5186628D01*
X10063877Y5208996D01*
X9933694Y5238709D01*
X9805386Y5275674D01*
X9679345Y5319778D01*
X9555980Y5370877D01*
X9435673Y5428814D01*
X9318804Y5493406D01*
X9205737Y5564450D01*
X9096838Y5641718D01*
X8992438Y5724975D01*
X8892876Y5813948D01*
X8798451Y5908373D01*
X8709477Y6007935D01*
X8626218Y6112338D01*
X8548947Y6221241D01*
X8477906Y6334304D01*
X8413314Y6451174D01*
X8355378Y6571478D01*
X8304278Y6694845D01*
X8260174Y6820886D01*
X8223209Y6949195D01*
X8193496Y7079377D01*
X8171128Y7211025D01*
X8156178Y7343712D01*
X8148691Y7477036D01*
Y7543800D01*
Y7610564D01*
X8156178Y7743888D01*
X8171128Y7876576D01*
X8193496Y8008223D01*
X8223209Y8138406D01*
X8260174Y8266714D01*
X8304278Y8392754D01*
X8355377Y8516120D01*
X8413314Y8636427D01*
X8477906Y8753296D01*
X8548950Y8866363D01*
X8626218Y8975261D01*
X8709475Y9079662D01*
X8798448Y9179224D01*
X8892873Y9273649D01*
X8992435Y9362623D01*
X9096838Y9445882D01*
X9205741Y9523153D01*
X9318804Y9594194D01*
X9435674Y9658786D01*
X9555978Y9716721D01*
X9679345Y9767822D01*
X9805386Y9811926D01*
X9933695Y9848891D01*
X10063877Y9878604D01*
X10195525Y9900972D01*
X10328211Y9915922D01*
X10461536Y9923409D01*
X10595064D01*
X10728388Y9915922D01*
D02*
G37*
%LPC*%
G36*
X10510479Y9867900D02*
X10495321D01*
X10481318Y9862100D01*
X10470600Y9851382D01*
X10464800Y9837379D01*
Y9822221D01*
X10470600Y9808218D01*
X10481318Y9797500D01*
X10495321Y9791700D01*
X10510479D01*
X10524482Y9797500D01*
X10535200Y9808218D01*
X10541000Y9822221D01*
Y9837379D01*
X10535200Y9851382D01*
X10524482Y9862100D01*
X10510479Y9867900D01*
D02*
G37*
G36*
X10319979D02*
X10304821D01*
X10290818Y9862100D01*
X10280100Y9851382D01*
X10274300Y9837379D01*
Y9822221D01*
X10280100Y9808218D01*
X10290818Y9797500D01*
X10304821Y9791700D01*
X10319979D01*
X10333982Y9797500D01*
X10344700Y9808218D01*
X10350500Y9822221D01*
Y9837379D01*
X10344700Y9851382D01*
X10333982Y9862100D01*
X10319979Y9867900D01*
D02*
G37*
G36*
X11018479Y9817100D02*
X11003321D01*
X10989318Y9811300D01*
X10978600Y9800582D01*
X10972800Y9786579D01*
Y9771421D01*
X10978600Y9757418D01*
X10989318Y9746700D01*
X11003321Y9740900D01*
X11018479D01*
X11032482Y9746700D01*
X11043200Y9757418D01*
X11049000Y9771421D01*
Y9786579D01*
X11043200Y9800582D01*
X11032482Y9811300D01*
X11018479Y9817100D01*
D02*
G37*
G36*
X11221679Y9766300D02*
X11206521D01*
X11192518Y9760500D01*
X11181800Y9749782D01*
X11176000Y9735779D01*
Y9720621D01*
X11181800Y9706618D01*
X11192518Y9695900D01*
X11206521Y9690100D01*
X11221679D01*
X11235682Y9695900D01*
X11246400Y9706618D01*
X11252200Y9720621D01*
Y9735779D01*
X11246400Y9749782D01*
X11235682Y9760500D01*
X11221679Y9766300D01*
D02*
G37*
G36*
X9786579Y9753600D02*
X9771421D01*
X9757418Y9747800D01*
X9746700Y9737082D01*
X9740900Y9723079D01*
Y9707921D01*
X9746700Y9693918D01*
X9757418Y9683200D01*
X9771421Y9677400D01*
X9786579D01*
X9800582Y9683200D01*
X9811300Y9693918D01*
X9817100Y9707921D01*
Y9723079D01*
X9811300Y9737082D01*
X9800582Y9747800D01*
X9786579Y9753600D01*
D02*
G37*
G36*
X10497779Y9652000D02*
X10482621D01*
X10468618Y9646200D01*
X10457900Y9635482D01*
X10452100Y9621479D01*
Y9606321D01*
X10457900Y9592318D01*
X10468618Y9581600D01*
X10482621Y9575800D01*
X10497779D01*
X10511782Y9581600D01*
X10522500Y9592318D01*
X10528300Y9606321D01*
Y9621479D01*
X10522500Y9635482D01*
X10511782Y9646200D01*
X10497779Y9652000D01*
D02*
G37*
G36*
X11125200Y9615186D02*
Y9537700D01*
X11202686D01*
X11196739Y9559893D01*
X11184838Y9580507D01*
X11168007Y9597338D01*
X11147393Y9609239D01*
X11125200Y9615186D01*
D02*
G37*
G36*
X11099800D02*
X11077607Y9609239D01*
X11056993Y9597338D01*
X11040162Y9580507D01*
X11028261Y9559893D01*
X11022314Y9537700D01*
X11099800D01*
Y9615186D01*
D02*
G37*
G36*
X11202686Y9512300D02*
X11125200D01*
Y9434814D01*
X11147393Y9440761D01*
X11168007Y9452662D01*
X11184838Y9469493D01*
X11196739Y9490107D01*
X11202686Y9512300D01*
D02*
G37*
G36*
X11099800D02*
X11022314D01*
X11028261Y9490107D01*
X11040162Y9469493D01*
X11056993Y9452662D01*
X11077607Y9440761D01*
X11099800Y9434814D01*
Y9512300D01*
D02*
G37*
G36*
X11503729Y9590000D02*
X11483271D01*
X11463509Y9584705D01*
X11445791Y9574475D01*
X11431325Y9560009D01*
X11421095Y9542291D01*
X11415800Y9522529D01*
Y9502071D01*
X11421095Y9482309D01*
X11431325Y9464591D01*
X11445791Y9450125D01*
X11463509Y9439895D01*
X11483271Y9434600D01*
X11503729D01*
X11523491Y9439895D01*
X11541209Y9450125D01*
X11555675Y9464591D01*
X11565905Y9482309D01*
X11571200Y9502071D01*
Y9522529D01*
X11565905Y9542291D01*
X11555675Y9560009D01*
X11541209Y9574475D01*
X11523491Y9584705D01*
X11503729Y9590000D01*
D02*
G37*
G36*
X9446329Y9564600D02*
X9425871D01*
X9406109Y9559305D01*
X9388391Y9549075D01*
X9373925Y9534609D01*
X9363695Y9516891D01*
X9358400Y9497129D01*
Y9476671D01*
X9363695Y9456909D01*
X9373925Y9439191D01*
X9388391Y9424725D01*
X9406109Y9414495D01*
X9425871Y9409200D01*
X9446329D01*
X9466091Y9414495D01*
X9483809Y9424725D01*
X9498275Y9439191D01*
X9508505Y9456909D01*
X9513800Y9476671D01*
Y9497129D01*
X9508505Y9516891D01*
X9498275Y9534609D01*
X9483809Y9549075D01*
X9466091Y9559305D01*
X9446329Y9564600D01*
D02*
G37*
G36*
X11797146Y9295200D02*
X11774054D01*
X11751749Y9289223D01*
X11731751Y9277677D01*
X11715423Y9261349D01*
X11703877Y9241351D01*
X11697900Y9219046D01*
Y9195954D01*
X11703877Y9173649D01*
X11715423Y9153651D01*
X11731751Y9137323D01*
X11751749Y9125777D01*
X11774054Y9119800D01*
X11797146D01*
X11819451Y9125777D01*
X11839449Y9137323D01*
X11855777Y9153651D01*
X11867323Y9173649D01*
X11873300Y9195954D01*
Y9219046D01*
X11867323Y9241351D01*
X11855777Y9261349D01*
X11839449Y9277677D01*
X11819451Y9289223D01*
X11797146Y9295200D01*
D02*
G37*
G36*
X11543146D02*
X11520054D01*
X11497749Y9289223D01*
X11477751Y9277677D01*
X11461423Y9261349D01*
X11449877Y9241351D01*
X11443900Y9219046D01*
Y9195954D01*
X11449877Y9173649D01*
X11461423Y9153651D01*
X11477751Y9137323D01*
X11497749Y9125777D01*
X11520054Y9119800D01*
X11543146D01*
X11565451Y9125777D01*
X11585449Y9137323D01*
X11601777Y9153651D01*
X11613323Y9173649D01*
X11619300Y9195954D01*
Y9219046D01*
X11613323Y9241351D01*
X11601777Y9261349D01*
X11585449Y9277677D01*
X11565451Y9289223D01*
X11543146Y9295200D01*
D02*
G37*
G36*
X11289146D02*
X11266054D01*
X11243749Y9289223D01*
X11223751Y9277677D01*
X11207423Y9261349D01*
X11195877Y9241351D01*
X11189900Y9219046D01*
Y9195954D01*
X11195877Y9173649D01*
X11207423Y9153651D01*
X11223751Y9137323D01*
X11243749Y9125777D01*
X11266054Y9119800D01*
X11289146D01*
X11311451Y9125777D01*
X11331449Y9137323D01*
X11347777Y9153651D01*
X11359323Y9173649D01*
X11365300Y9195954D01*
Y9219046D01*
X11359323Y9241351D01*
X11347777Y9261349D01*
X11331449Y9277677D01*
X11311451Y9289223D01*
X11289146Y9295200D01*
D02*
G37*
G36*
X9951679Y8902700D02*
X9936521D01*
X9922518Y8896900D01*
X9913318Y8887699D01*
X9906000Y8886853D01*
X9898682Y8887699D01*
X9889482Y8896900D01*
X9875479Y8902700D01*
X9860321D01*
X9846318Y8896900D01*
X9835600Y8886182D01*
X9829800Y8872179D01*
Y8857021D01*
X9835600Y8843018D01*
X9846318Y8832300D01*
X9860321Y8826500D01*
X9875479D01*
X9889482Y8832300D01*
X9898682Y8841501D01*
X9906000Y8842347D01*
X9913318Y8841501D01*
X9922518Y8832300D01*
X9936521Y8826500D01*
X9951679D01*
X9965682Y8832300D01*
X9976400Y8843018D01*
X9982200Y8857021D01*
Y8872179D01*
X9976400Y8886182D01*
X9965682Y8896900D01*
X9951679Y8902700D01*
D02*
G37*
G36*
X11107379Y8877300D02*
X11092221D01*
X11078218Y8871500D01*
X11067500Y8860782D01*
X11061700Y8846779D01*
Y8831621D01*
X11067500Y8817618D01*
X11078218Y8806900D01*
X11092221Y8801100D01*
X11107379D01*
X11121382Y8806900D01*
X11132100Y8817618D01*
X11137900Y8831621D01*
Y8846779D01*
X11132100Y8860782D01*
X11121382Y8871500D01*
X11107379Y8877300D01*
D02*
G37*
G36*
X11018479D02*
X11003321D01*
X10989318Y8871500D01*
X10978600Y8860782D01*
X10972800Y8846779D01*
Y8831621D01*
X10978600Y8817618D01*
X10989318Y8806900D01*
X11003321Y8801100D01*
X11018479D01*
X11032482Y8806900D01*
X11043200Y8817618D01*
X11049000Y8831621D01*
Y8846779D01*
X11043200Y8860782D01*
X11032482Y8871500D01*
X11018479Y8877300D01*
D02*
G37*
G36*
X8427679Y8445500D02*
X8412521D01*
X8398518Y8439700D01*
X8387800Y8428982D01*
X8382000Y8414979D01*
Y8399821D01*
X8387800Y8385818D01*
X8398518Y8375100D01*
X8412521Y8369300D01*
X8427679D01*
X8441682Y8375100D01*
X8452400Y8385818D01*
X8458200Y8399821D01*
Y8414979D01*
X8452400Y8428982D01*
X8441682Y8439700D01*
X8427679Y8445500D01*
D02*
G37*
G36*
X8389579Y8255000D02*
X8374421D01*
X8360418Y8249200D01*
X8349700Y8238482D01*
X8343900Y8224479D01*
Y8209321D01*
X8349700Y8195318D01*
X8360418Y8184600D01*
X8374421Y8178800D01*
X8389579D01*
X8403582Y8184600D01*
X8414300Y8195318D01*
X8420100Y8209321D01*
Y8224479D01*
X8414300Y8238482D01*
X8403582Y8249200D01*
X8389579Y8255000D01*
D02*
G37*
G36*
X8376879Y8140700D02*
X8361721D01*
X8347718Y8134900D01*
X8337000Y8124182D01*
X8331200Y8110179D01*
Y8095021D01*
X8337000Y8081018D01*
X8347718Y8070300D01*
X8361721Y8064500D01*
X8376879D01*
X8390882Y8070300D01*
X8401600Y8081018D01*
X8407400Y8095021D01*
Y8110179D01*
X8401600Y8124182D01*
X8390882Y8134900D01*
X8376879Y8140700D01*
D02*
G37*
G36*
X12710229Y8205700D02*
X12689771D01*
X12670009Y8200405D01*
X12652291Y8190175D01*
X12637825Y8175709D01*
X12627595Y8157991D01*
X12622300Y8138229D01*
Y8117771D01*
X12627595Y8098009D01*
X12637825Y8080291D01*
X12652291Y8065825D01*
X12670009Y8055595D01*
X12689771Y8050300D01*
X12710229D01*
X12729991Y8055595D01*
X12747709Y8065825D01*
X12762175Y8080291D01*
X12772405Y8098009D01*
X12777700Y8117771D01*
Y8138229D01*
X12772405Y8157991D01*
X12762175Y8175709D01*
X12747709Y8190175D01*
X12729991Y8200405D01*
X12710229Y8205700D01*
D02*
G37*
G36*
X8328729Y8002500D02*
X8308271D01*
X8288509Y7997205D01*
X8270791Y7986975D01*
X8256325Y7972509D01*
X8246095Y7954791D01*
X8240800Y7935029D01*
Y7914571D01*
X8246095Y7894809D01*
X8256325Y7877091D01*
X8270791Y7862625D01*
X8288509Y7852395D01*
X8308271Y7847100D01*
X8328729D01*
X8348491Y7852395D01*
X8366209Y7862625D01*
X8380675Y7877091D01*
X8390905Y7894809D01*
X8396200Y7914571D01*
Y7935029D01*
X8390905Y7954791D01*
X8380675Y7972509D01*
X8366209Y7986975D01*
X8348491Y7997205D01*
X8328729Y8002500D01*
D02*
G37*
G36*
X8326079Y7785100D02*
X8310921D01*
X8296918Y7779300D01*
X8286200Y7768582D01*
X8280400Y7754579D01*
Y7739421D01*
X8286200Y7725418D01*
X8296918Y7714700D01*
X8310921Y7708900D01*
X8326079D01*
X8340082Y7714700D01*
X8350800Y7725418D01*
X8356600Y7739421D01*
Y7754579D01*
X8350800Y7768582D01*
X8340082Y7779300D01*
X8326079Y7785100D01*
D02*
G37*
G36*
X12735629Y7812000D02*
X12715171D01*
X12695409Y7806705D01*
X12677691Y7796475D01*
X12663225Y7782009D01*
X12652995Y7764291D01*
X12647700Y7744529D01*
Y7724071D01*
X12652995Y7704309D01*
X12663225Y7686591D01*
X12677691Y7672125D01*
X12695409Y7661895D01*
X12715171Y7656600D01*
X12735629D01*
X12755391Y7661895D01*
X12773109Y7672125D01*
X12787575Y7686591D01*
X12797805Y7704309D01*
X12803101Y7724071D01*
Y7744529D01*
X12797805Y7764291D01*
X12787575Y7782009D01*
X12773109Y7796475D01*
X12755391Y7806705D01*
X12735629Y7812000D01*
D02*
G37*
G36*
X8440379Y7708900D02*
X8425221D01*
X8411218Y7703100D01*
X8400500Y7692382D01*
X8394700Y7678379D01*
Y7663221D01*
X8400500Y7649218D01*
X8411218Y7638500D01*
X8425221Y7632700D01*
X8440379D01*
X8454382Y7638500D01*
X8465100Y7649218D01*
X8470900Y7663221D01*
Y7678379D01*
X8465100Y7692382D01*
X8454382Y7703100D01*
X8440379Y7708900D01*
D02*
G37*
G36*
X8328729Y7646900D02*
X8308271D01*
X8288509Y7641605D01*
X8270791Y7631375D01*
X8256325Y7616909D01*
X8246095Y7599191D01*
X8240800Y7579429D01*
Y7558971D01*
X8246095Y7539209D01*
X8256325Y7521491D01*
X8270791Y7507025D01*
X8288509Y7496795D01*
X8308271Y7491500D01*
X8328729D01*
X8348491Y7496795D01*
X8366209Y7507025D01*
X8380675Y7521491D01*
X8390905Y7539209D01*
X8396200Y7558971D01*
Y7579429D01*
X8390905Y7599191D01*
X8380675Y7616909D01*
X8366209Y7631375D01*
X8348491Y7641605D01*
X8328729Y7646900D01*
D02*
G37*
G36*
X8224479Y7480300D02*
X8209321D01*
X8195318Y7474500D01*
X8184600Y7463782D01*
X8178800Y7449779D01*
Y7434621D01*
X8184600Y7420618D01*
X8195318Y7409900D01*
X8209321Y7404100D01*
X8224479D01*
X8238482Y7409900D01*
X8249200Y7420618D01*
X8255000Y7434621D01*
Y7449779D01*
X8249200Y7463782D01*
X8238482Y7474500D01*
X8224479Y7480300D01*
D02*
G37*
G36*
X8313379Y7442200D02*
X8298221D01*
X8284218Y7436400D01*
X8273500Y7425682D01*
X8267700Y7411679D01*
Y7396521D01*
X8273500Y7382518D01*
X8284218Y7371800D01*
X8298221Y7366000D01*
X8313379D01*
X8327382Y7371800D01*
X8338100Y7382518D01*
X8343900Y7396521D01*
Y7411679D01*
X8338100Y7425682D01*
X8327382Y7436400D01*
X8313379Y7442200D01*
D02*
G37*
G36*
X12301179Y7391400D02*
X12286021D01*
X12272018Y7385600D01*
X12261300Y7374882D01*
X12255500Y7360879D01*
Y7345721D01*
X12261300Y7331718D01*
X12272018Y7321000D01*
X12286021Y7315200D01*
X12301179D01*
X12315182Y7321000D01*
X12325900Y7331718D01*
X12331700Y7345721D01*
Y7360879D01*
X12325900Y7374882D01*
X12315182Y7385600D01*
X12301179Y7391400D01*
D02*
G37*
G36*
X11336894Y7345200D02*
X11319906D01*
X11304213Y7338699D01*
X11292201Y7326687D01*
X11285700Y7310994D01*
Y7294006D01*
X11292201Y7278313D01*
X11304213Y7266301D01*
X11319906Y7259800D01*
X11336894D01*
X11352587Y7266301D01*
X11364599Y7278313D01*
X11371100Y7294006D01*
Y7310994D01*
X11364599Y7326687D01*
X11352587Y7338699D01*
X11336894Y7345200D01*
D02*
G37*
G36*
X12735629Y7386550D02*
X12715171D01*
X12695409Y7381255D01*
X12677691Y7371025D01*
X12663225Y7356559D01*
X12652995Y7338841D01*
X12647700Y7319079D01*
Y7298621D01*
X12652995Y7278859D01*
X12663225Y7261141D01*
X12677691Y7246675D01*
X12695409Y7236445D01*
X12715171Y7231150D01*
X12735629D01*
X12755391Y7236445D01*
X12773109Y7246675D01*
X12787575Y7261141D01*
X12797805Y7278859D01*
X12803101Y7298621D01*
Y7319079D01*
X12797805Y7338841D01*
X12787575Y7356559D01*
X12773109Y7371025D01*
X12755391Y7381255D01*
X12735629Y7386550D01*
D02*
G37*
G36*
X12301179Y7226300D02*
X12286021D01*
X12272018Y7220500D01*
X12261300Y7209782D01*
X12255500Y7195779D01*
Y7180621D01*
X12261300Y7166618D01*
X12272018Y7155900D01*
X12286021Y7150100D01*
X12301179D01*
X12315182Y7155900D01*
X12325900Y7166618D01*
X12331700Y7180621D01*
Y7195779D01*
X12325900Y7209782D01*
X12315182Y7220500D01*
X12301179Y7226300D01*
D02*
G37*
G36*
X8328729Y7291300D02*
X8308271D01*
X8288509Y7286005D01*
X8270791Y7275775D01*
X8256325Y7261309D01*
X8246095Y7243591D01*
X8240800Y7223829D01*
Y7203371D01*
X8246095Y7183609D01*
X8256325Y7165891D01*
X8270791Y7151425D01*
X8288509Y7141195D01*
X8308271Y7135900D01*
X8328729D01*
X8348491Y7141195D01*
X8366209Y7151425D01*
X8380675Y7165891D01*
X8390905Y7183609D01*
X8396200Y7203371D01*
Y7223829D01*
X8390905Y7243591D01*
X8380675Y7261309D01*
X8366209Y7275775D01*
X8348491Y7286005D01*
X8328729Y7291300D01*
D02*
G37*
G36*
X12199579Y7162800D02*
X12184421D01*
X12170418Y7157000D01*
X12159700Y7146282D01*
X12153900Y7132279D01*
Y7117121D01*
X12159700Y7103118D01*
X12170418Y7092400D01*
X12184421Y7086600D01*
X12199579D01*
X12213582Y7092400D01*
X12224300Y7103118D01*
X12230100Y7117121D01*
Y7132279D01*
X12224300Y7146282D01*
X12213582Y7157000D01*
X12199579Y7162800D01*
D02*
G37*
G36*
X8376879Y7086600D02*
X8361721D01*
X8347718Y7080800D01*
X8337000Y7070082D01*
X8331200Y7056079D01*
Y7040921D01*
X8337000Y7026918D01*
X8347718Y7016200D01*
X8361721Y7010400D01*
X8376879D01*
X8390882Y7016200D01*
X8401600Y7026918D01*
X8407400Y7040921D01*
Y7056079D01*
X8401600Y7070082D01*
X8390882Y7080800D01*
X8376879Y7086600D01*
D02*
G37*
G36*
X8427679Y7010400D02*
X8412521D01*
X8398518Y7004600D01*
X8387800Y6993882D01*
X8382000Y6979879D01*
Y6964721D01*
X8387800Y6950718D01*
X8398518Y6940000D01*
X8412521Y6934200D01*
X8427679D01*
X8441682Y6940000D01*
X8452400Y6950718D01*
X8458200Y6964721D01*
Y6979879D01*
X8452400Y6993882D01*
X8441682Y7004600D01*
X8427679Y7010400D01*
D02*
G37*
G36*
X12684829Y6999200D02*
X12664371D01*
X12644609Y6993905D01*
X12626891Y6983675D01*
X12612425Y6969209D01*
X12602195Y6951491D01*
X12596900Y6931729D01*
Y6911271D01*
X12602195Y6891509D01*
X12612425Y6873791D01*
X12626891Y6859325D01*
X12644609Y6849095D01*
X12664371Y6843800D01*
X12684829D01*
X12704591Y6849095D01*
X12722309Y6859325D01*
X12736775Y6873791D01*
X12747005Y6891509D01*
X12752300Y6911271D01*
Y6931729D01*
X12747005Y6951491D01*
X12736775Y6969209D01*
X12722309Y6983675D01*
X12704591Y6993905D01*
X12684829Y6999200D01*
D02*
G37*
G36*
X8389579Y6896100D02*
X8374421D01*
X8360418Y6890300D01*
X8349700Y6879582D01*
X8343900Y6865579D01*
Y6850421D01*
X8349700Y6836418D01*
X8360418Y6825700D01*
X8374421Y6819900D01*
X8389579D01*
X8403582Y6825700D01*
X8414300Y6836418D01*
X8420100Y6850421D01*
Y6865579D01*
X8414300Y6879582D01*
X8403582Y6890300D01*
X8389579Y6896100D01*
D02*
G37*
G36*
X8453079Y6667500D02*
X8437921D01*
X8423918Y6661700D01*
X8413200Y6650982D01*
X8407400Y6636979D01*
Y6621821D01*
X8413200Y6607818D01*
X8423918Y6597100D01*
X8437921Y6591300D01*
X8453079D01*
X8467082Y6597100D01*
X8477800Y6607818D01*
X8483600Y6621821D01*
Y6636979D01*
X8477800Y6650982D01*
X8467082Y6661700D01*
X8453079Y6667500D01*
D02*
G37*
G36*
X10510479Y6362700D02*
X10495321D01*
X10481318Y6356900D01*
X10470600Y6346182D01*
X10464800Y6332179D01*
Y6317021D01*
X10470600Y6303018D01*
X10481318Y6292300D01*
X10495321Y6286500D01*
X10510479D01*
X10524482Y6292300D01*
X10535200Y6303018D01*
X10541000Y6317021D01*
Y6332179D01*
X10535200Y6346182D01*
X10524482Y6356900D01*
X10510479Y6362700D01*
D02*
G37*
G36*
X10700979Y6311900D02*
X10685821D01*
X10671818Y6306100D01*
X10661100Y6295382D01*
X10655300Y6281379D01*
Y6266221D01*
X10661100Y6252218D01*
X10671818Y6241500D01*
X10685821Y6235700D01*
X10700979D01*
X10714982Y6241500D01*
X10725700Y6252218D01*
X10731500Y6266221D01*
Y6281379D01*
X10725700Y6295382D01*
X10714982Y6306100D01*
X10700979Y6311900D01*
D02*
G37*
G36*
X10840679Y6299200D02*
X10825521D01*
X10811518Y6293400D01*
X10800800Y6282682D01*
X10795000Y6268679D01*
Y6253521D01*
X10800800Y6239518D01*
X10811518Y6228800D01*
X10825521Y6223000D01*
X10840679D01*
X10854682Y6228800D01*
X10865400Y6239518D01*
X10871200Y6253521D01*
Y6268679D01*
X10865400Y6282682D01*
X10854682Y6293400D01*
X10840679Y6299200D01*
D02*
G37*
G36*
X8669335Y6377810D02*
X8646244D01*
X8623939Y6371834D01*
X8603941Y6360288D01*
X8587612Y6343959D01*
X8576066Y6323961D01*
X8570090Y6301656D01*
Y6278565D01*
X8576066Y6256260D01*
X8587612Y6236261D01*
X8603941Y6219933D01*
X8623939Y6208387D01*
X8646244Y6202411D01*
X8669335D01*
X8691640Y6208387D01*
X8711639Y6219933D01*
X8727967Y6236261D01*
X8739513Y6256260D01*
X8745489Y6278565D01*
Y6301656D01*
X8739513Y6323961D01*
X8727967Y6343959D01*
X8711639Y6360288D01*
X8691640Y6371834D01*
X8669335Y6377810D01*
D02*
G37*
G36*
X10853379Y6159500D02*
X10838221D01*
X10824218Y6153700D01*
X10813500Y6142982D01*
X10807700Y6128979D01*
Y6113821D01*
X10813500Y6099818D01*
X10824218Y6089100D01*
X10838221Y6083300D01*
X10853379D01*
X10867382Y6089100D01*
X10878100Y6099818D01*
X10883900Y6113821D01*
Y6128979D01*
X10878100Y6142982D01*
X10867382Y6153700D01*
X10853379Y6159500D01*
D02*
G37*
G36*
X8848941Y6198205D02*
X8825849D01*
X8803544Y6192228D01*
X8783546Y6180683D01*
X8767217Y6164354D01*
X8755672Y6144356D01*
X8749695Y6122051D01*
Y6098959D01*
X8755672Y6076654D01*
X8767217Y6056656D01*
X8783546Y6040328D01*
X8803544Y6028782D01*
X8825849Y6022805D01*
X8848941D01*
X8871246Y6028782D01*
X8891244Y6040328D01*
X8907572Y6056656D01*
X8919118Y6076654D01*
X8925095Y6098959D01*
Y6122051D01*
X8919118Y6144356D01*
X8907572Y6164354D01*
X8891244Y6180683D01*
X8871246Y6192228D01*
X8848941Y6198205D01*
D02*
G37*
G36*
X10231079Y6083300D02*
X10215921D01*
X10201918Y6077500D01*
X10191200Y6066782D01*
X10185400Y6052779D01*
Y6037621D01*
X10191200Y6023618D01*
X10201918Y6012900D01*
X10215921Y6007100D01*
X10231079D01*
X10245082Y6012900D01*
X10255800Y6023618D01*
X10261600Y6037621D01*
Y6052779D01*
X10255800Y6066782D01*
X10245082Y6077500D01*
X10231079Y6083300D01*
D02*
G37*
G36*
X11755079Y5829300D02*
X11739921D01*
X11725918Y5823500D01*
X11715200Y5812782D01*
X11709400Y5798779D01*
Y5783621D01*
X11715200Y5769618D01*
X11725918Y5758900D01*
X11739921Y5753100D01*
X11755079D01*
X11769082Y5758900D01*
X11779800Y5769618D01*
X11785600Y5783621D01*
Y5798779D01*
X11779800Y5812782D01*
X11769082Y5823500D01*
X11755079Y5829300D01*
D02*
G37*
G36*
X10853379D02*
X10838221D01*
X10824218Y5823500D01*
X10813500Y5812782D01*
X10807700Y5798779D01*
Y5783621D01*
X10813500Y5769618D01*
X10824218Y5758900D01*
X10838221Y5753100D01*
X10853379D01*
X10867382Y5758900D01*
X10878100Y5769618D01*
X10883900Y5783621D01*
Y5798779D01*
X10878100Y5812782D01*
X10867382Y5823500D01*
X10853379Y5829300D01*
D02*
G37*
G36*
X11211629Y5792700D02*
X11191171D01*
X11171409Y5787405D01*
X11153691Y5777175D01*
X11139225Y5762709D01*
X11128995Y5744991D01*
X11123700Y5725229D01*
Y5704771D01*
X11128995Y5685009D01*
X11139225Y5667291D01*
X11153691Y5652825D01*
X11171409Y5642595D01*
X11191171Y5637300D01*
X11211629D01*
X11231391Y5642595D01*
X11249109Y5652825D01*
X11263575Y5667291D01*
X11273805Y5685009D01*
X11279100Y5704771D01*
Y5725229D01*
X11273805Y5744991D01*
X11263575Y5762709D01*
X11249109Y5777175D01*
X11231391Y5787405D01*
X11211629Y5792700D01*
D02*
G37*
G36*
X9560629D02*
X9540171D01*
X9520409Y5787405D01*
X9502691Y5777175D01*
X9488225Y5762709D01*
X9477995Y5744991D01*
X9472700Y5725229D01*
Y5704771D01*
X9477995Y5685009D01*
X9488225Y5667291D01*
X9502691Y5652825D01*
X9520409Y5642595D01*
X9540171Y5637300D01*
X9560629D01*
X9580391Y5642595D01*
X9598109Y5652825D01*
X9612575Y5667291D01*
X9622805Y5685009D01*
X9628100Y5704771D01*
Y5725229D01*
X9622805Y5744991D01*
X9612575Y5762709D01*
X9598109Y5777175D01*
X9580391Y5787405D01*
X9560629Y5792700D01*
D02*
G37*
G36*
X9196605Y5875321D02*
X9072579Y5751295D01*
X9196605Y5627268D01*
X9320632Y5751295D01*
X9196605Y5875321D01*
D02*
G37*
G36*
X11579929Y5691100D02*
X11559471D01*
X11539709Y5685805D01*
X11521991Y5675575D01*
X11507525Y5661109D01*
X11497295Y5643391D01*
X11492000Y5623629D01*
Y5603171D01*
X11497295Y5583409D01*
X11507525Y5565691D01*
X11521991Y5551225D01*
X11539709Y5540995D01*
X11559471Y5535700D01*
X11579929D01*
X11599691Y5540995D01*
X11617409Y5551225D01*
X11631875Y5565691D01*
X11642105Y5583409D01*
X11647400Y5603171D01*
Y5623629D01*
X11642105Y5643391D01*
X11631875Y5661109D01*
X11617409Y5675575D01*
X11599691Y5685805D01*
X11579929Y5691100D01*
D02*
G37*
G36*
X9573329Y5564100D02*
X9552871D01*
X9533109Y5558805D01*
X9515391Y5548575D01*
X9500925Y5534109D01*
X9490695Y5516391D01*
X9485400Y5496629D01*
Y5476171D01*
X9490695Y5456409D01*
X9500925Y5438691D01*
X9515391Y5424225D01*
X9533109Y5413995D01*
X9552871Y5408700D01*
X9573329D01*
X9593091Y5413995D01*
X9610809Y5424225D01*
X9625275Y5438691D01*
X9635505Y5456409D01*
X9640800Y5476171D01*
Y5496629D01*
X9635505Y5516391D01*
X9625275Y5534109D01*
X9610809Y5548575D01*
X9593091Y5558805D01*
X9573329Y5564100D01*
D02*
G37*
G36*
X11211629Y5526000D02*
X11191171D01*
X11171409Y5520705D01*
X11153691Y5510475D01*
X11139225Y5496009D01*
X11128995Y5478291D01*
X11123700Y5458529D01*
Y5438071D01*
X11128995Y5418309D01*
X11139225Y5400591D01*
X11153691Y5386125D01*
X11171409Y5375895D01*
X11191171Y5370600D01*
X11211629D01*
X11231391Y5375895D01*
X11249109Y5386125D01*
X11263575Y5400591D01*
X11273805Y5418309D01*
X11279100Y5438071D01*
Y5458529D01*
X11273805Y5478291D01*
X11263575Y5496009D01*
X11249109Y5510475D01*
X11231391Y5520705D01*
X11211629Y5526000D01*
D02*
G37*
%LPD*%
D39*
X11201400Y5448300D02*
D03*
Y5715000D02*
D03*
X9563100Y5486400D02*
D03*
X12700000Y8128000D02*
D03*
X11112500Y9525000D02*
D03*
X9436100Y9486900D02*
D03*
X9550400Y5715000D02*
D03*
X11569700Y5613400D02*
D03*
X8318500Y7213600D02*
D03*
Y7569200D02*
D03*
Y7924800D02*
D03*
X12725400Y7308850D02*
D03*
X12674600Y6921500D02*
D03*
X11493500Y9512300D02*
D03*
X12725400Y7734300D02*
D03*
D40*
X9196605Y5751295D02*
D03*
D41*
X9017000Y5930900D02*
D03*
X8837395Y6110505D02*
D03*
X8657790Y6290110D02*
D03*
X11023600Y9207500D02*
D03*
X11277600D02*
D03*
X11531600D02*
D03*
X11785600D02*
D03*
D42*
X12039600D02*
D03*
D43*
X10223500Y6045200D02*
D03*
X11747500Y5791200D02*
D03*
X10502900Y6324600D02*
D03*
X10845800Y6121400D02*
D03*
Y5791200D02*
D03*
X8216900Y7442200D02*
D03*
X8432800Y7670800D02*
D03*
X8369300Y8102600D02*
D03*
X8420100Y6972300D02*
D03*
X8445500Y6629400D02*
D03*
X8382000Y6858000D02*
D03*
X8369300Y7048500D02*
D03*
X8305800Y7404100D02*
D03*
X8318500Y7747000D02*
D03*
X8382000Y8216900D02*
D03*
X8420100Y8407400D02*
D03*
X9779000Y9715500D02*
D03*
X10312400Y9829800D02*
D03*
X10502900D02*
D03*
X11214100Y9728200D02*
D03*
X11010900Y9779000D02*
D03*
X11024167Y6836439D02*
D03*
X10871200Y7035800D02*
D03*
X10210800D02*
D03*
X10045700Y7264400D02*
D03*
X10058400Y7861300D02*
D03*
X10071100Y7937500D02*
D03*
X10947400Y7861300D02*
D03*
X11303000Y8877300D02*
D03*
X11264900Y8813800D02*
D03*
X10502900Y9131300D02*
D03*
X10426700D02*
D03*
X10096500Y6629400D02*
D03*
X10172700D02*
D03*
X9563100Y5956300D02*
D03*
X9486900D02*
D03*
X12230100Y6870700D02*
D03*
X12306300D02*
D03*
X12192000Y7124700D02*
D03*
X12293600Y7353300D02*
D03*
Y7188200D02*
D03*
X10833100Y6261100D02*
D03*
X10693400Y6273800D02*
D03*
X11113067Y6836439D02*
D03*
X11239500Y8013700D02*
D03*
X10325100Y5308600D02*
D03*
X10236200D02*
D03*
X11150600Y8013700D02*
D03*
X11099800Y8839200D02*
D03*
X11010900D02*
D03*
X10058400Y8572500D02*
D03*
X9982200D02*
D03*
X9245600Y7366000D02*
D03*
X9321800Y7315200D02*
D03*
X10490200Y9613900D02*
D03*
X9867900Y8864600D02*
D03*
X9944100D02*
D03*
D44*
X11328400Y7302500D02*
D03*
%TF.MD5,9ea06c0435b0be59ec5d31b6ac102520*%
M02*
