%TF.GenerationSoftware,Altium Limited,Altium Designer,25.0.2 (28)*%
G04 Layer_Color=2752767*
%FSLAX45Y45*%
%MOMM*%
%TF.SameCoordinates,35A56F3A-7D9F-4CF9-8D97-DF5CB8944ECC*%
%TF.FilePolarity,Positive*%
%TF.FileFunction,Drawing*%
%TF.Part,Single*%
G01*
G75*
%TA.AperFunction,NonConductor*%
%ADD59C,0.12700*%
%ADD100C,0.16933*%
D59*
X11150600Y5397500D02*
X11176000Y5448300D01*
X11150600Y5499100D01*
X11201400Y5473700D01*
X11252200Y5499100D01*
X11226800Y5448300D01*
X11252200Y5397500D01*
X11201400Y5422900D01*
X11150600Y5397500D01*
Y5664200D02*
X11176000Y5715000D01*
X11150600Y5765800D01*
X11201400Y5740400D01*
X11252200Y5765800D01*
X11226800Y5715000D01*
X11252200Y5664200D01*
X11201400Y5689600D01*
X11150600Y5664200D01*
X9512300Y5435600D02*
X9537700Y5486400D01*
X9512300Y5537200D01*
X9563100Y5511800D01*
X9613900Y5537200D01*
X9588500Y5486400D01*
X9613900Y5435600D01*
X9563100Y5461000D01*
X9512300Y5435600D01*
X12649200Y8077200D02*
X12674600Y8128000D01*
X12649200Y8178800D01*
X12700000Y8153400D01*
X12750800Y8178800D01*
X12725400Y8128000D01*
X12750800Y8077200D01*
X12700000Y8102600D01*
X12649200Y8077200D01*
X11061700Y9474200D02*
X11087100Y9525000D01*
X11061700Y9575800D01*
X11112500Y9550400D01*
X11163300Y9575800D01*
X11137900Y9525000D01*
X11163300Y9474200D01*
X11112500Y9499600D01*
X11061700Y9474200D01*
X9385300Y9436100D02*
X9410700Y9486900D01*
X9385300Y9537700D01*
X9436100Y9512300D01*
X9486900Y9537700D01*
X9461500Y9486900D01*
X9486900Y9436100D01*
X9436100Y9461500D01*
X9385300Y9436100D01*
X9499600Y5664200D02*
X9525000Y5715000D01*
X9499600Y5765800D01*
X9550400Y5740400D01*
X9601200Y5765800D01*
X9575800Y5715000D01*
X9601200Y5664200D01*
X9550400Y5689600D01*
X9499600Y5664200D01*
X11518900Y5562600D02*
X11544300Y5613400D01*
X11518900Y5664200D01*
X11569700Y5638800D01*
X11620500Y5664200D01*
X11595100Y5613400D01*
X11620500Y5562600D01*
X11569700Y5588000D01*
X11518900Y5562600D01*
X9145805Y5700495D02*
Y5802095D01*
X9247405D01*
Y5700495D01*
X9145805D01*
X8966200Y5880100D02*
Y5981700D01*
X9067800D01*
Y5880100D01*
X8966200D01*
X8786595Y6059705D02*
Y6161305D01*
X8888195D01*
Y6059705D01*
X8786595D01*
X8606990Y6239310D02*
Y6340910D01*
X8708590D01*
Y6239310D01*
X8606990D01*
X8267700Y7162800D02*
X8293100Y7213600D01*
X8267700Y7264400D01*
X8318500Y7239000D01*
X8369300Y7264400D01*
X8343900Y7213600D01*
X8369300Y7162800D01*
X8318500Y7188200D01*
X8267700Y7162800D01*
Y7518400D02*
X8293100Y7569200D01*
X8267700Y7620000D01*
X8318500Y7594600D01*
X8369300Y7620000D01*
X8343900Y7569200D01*
X8369300Y7518400D01*
X8318500Y7543800D01*
X8267700Y7518400D01*
Y7874000D02*
X8293100Y7924800D01*
X8267700Y7975600D01*
X8318500Y7950200D01*
X8369300Y7975600D01*
X8343900Y7924800D01*
X8369300Y7874000D01*
X8318500Y7899400D01*
X8267700Y7874000D01*
X10972800Y9156700D02*
Y9258300D01*
X11074400D01*
Y9156700D01*
X10972800D01*
X11226800D02*
Y9258300D01*
X11328400D01*
Y9156700D01*
X11226800D01*
X11480800D02*
Y9258300D01*
X11582400D01*
Y9156700D01*
X11480800D01*
X11734800D02*
Y9258300D01*
X11836400D01*
Y9156700D01*
X11734800D01*
X11988800D02*
Y9258300D01*
X12090400D01*
Y9156700D01*
X11988800D01*
X12674600Y7258050D02*
X12700000Y7308850D01*
X12674600Y7359650D01*
X12725400Y7334250D01*
X12776200Y7359650D01*
X12750800Y7308850D01*
X12776200Y7258050D01*
X12725400Y7283450D01*
X12674600Y7258050D01*
X12623800Y6870700D02*
X12649200Y6921500D01*
X12623800Y6972300D01*
X12674600Y6946900D01*
X12725400Y6972300D01*
X12700000Y6921500D01*
X12725400Y6870700D01*
X12674600Y6896100D01*
X12623800Y6870700D01*
X11442700Y9461500D02*
X11468100Y9512300D01*
X11442700Y9563100D01*
X11493500Y9537700D01*
X11544300Y9563100D01*
X11518900Y9512300D01*
X11544300Y9461500D01*
X11493500Y9486900D01*
X11442700Y9461500D01*
X12674600Y7683500D02*
X12700000Y7734300D01*
X12674600Y7785100D01*
X12725400Y7759700D01*
X12776200Y7785100D01*
X12750800Y7734300D01*
X12776200Y7683500D01*
X12725400Y7708900D01*
X12674600Y7683500D01*
X10223500Y5994400D02*
X10172700Y6096000D01*
X10274300D01*
X10223500Y5994400D01*
X11747500Y5740400D02*
X11696700Y5842000D01*
X11798300D01*
X11747500Y5740400D01*
X10502900Y6273800D02*
X10452100Y6375400D01*
X10553700D01*
X10502900Y6273800D01*
X8216900Y7391400D02*
X8166100Y7493000D01*
X8267700D01*
X8216900Y7391400D01*
X8432800Y7620000D02*
X8382000Y7721600D01*
X8483600D01*
X8432800Y7620000D01*
X8420100Y6921500D02*
X8369300Y7023100D01*
X8470900D01*
X8420100Y6921500D01*
X8382000Y8166100D02*
X8331200Y8267700D01*
X8432800D01*
X8382000Y8166100D01*
X10502900Y9080500D02*
X10452100Y9182100D01*
X10553700D01*
X10502900Y9080500D01*
X10426700D02*
X10375900Y9182100D01*
X10477500D01*
X10426700Y9080500D01*
X10693400Y6223000D02*
X10642600Y6324600D01*
X10744200D01*
X10693400Y6223000D01*
X11099800Y8788400D02*
X11049000Y8890000D01*
X11150600D01*
X11099800Y8788400D01*
X11010900D02*
X10960100Y8890000D01*
X11061700D01*
X11010900Y8788400D01*
X10490200Y9563100D02*
X10439400Y9664700D01*
X10541000D01*
X10490200Y9563100D01*
X9867900Y8813800D02*
X9817100Y8915400D01*
X9918700D01*
X9867900Y8813800D01*
X9944100D02*
X9893300Y8915400D01*
X9994900D01*
X9944100Y8813800D01*
D100*
X11379200Y7302500D02*
G03*
X11379200Y7302500I-50800J0D01*
G01*
%TF.MD5,b194bfa625277f6251cbe6c6761d1ac9*%
M02*
