%TF.GenerationSoftware,Altium Limited,Altium Designer,25.0.2 (28)*%
G04 Layer_Color=128*
%FSLAX45Y45*%
%MOMM*%
%TF.SameCoordinates,35A56F3A-7D9F-4CF9-8D97-DF5CB8944ECC*%
%TF.FilePolarity,Positive*%
%TF.FileFunction,Drillmap*%
%TF.Part,Single*%
G01*
G75*
%TA.AperFunction,NonConductor*%
%ADD59C,0.12700*%
D59*
X11151400Y5448300D02*
X11251400D01*
X11201400Y5398300D02*
Y5498300D01*
X11151400Y5715000D02*
X11251400D01*
X11201400Y5665000D02*
Y5765000D01*
X9513100Y5486400D02*
X9613100D01*
X9563100Y5436400D02*
Y5536400D01*
X12650000Y8128000D02*
X12750000D01*
X12700000Y8078000D02*
Y8178000D01*
X11062500Y9525000D02*
X11162500D01*
X11112500Y9475000D02*
Y9575000D01*
X9386100Y9486900D02*
X9486100D01*
X9436100Y9436900D02*
Y9536900D01*
X9500400Y5715000D02*
X9600400D01*
X9550400Y5665000D02*
Y5765000D01*
X11519700Y5613400D02*
X11619700D01*
X11569700Y5563400D02*
Y5663400D01*
X9151605Y5751295D02*
X9241605D01*
X9196605Y5706295D02*
Y5796295D01*
X8972000Y5930900D02*
X9062000D01*
X9017000Y5885900D02*
Y5975900D01*
X8792395Y6110505D02*
X8882395D01*
X8837395Y6065505D02*
Y6155505D01*
X8612790Y6290110D02*
X8702790D01*
X8657790Y6245110D02*
Y6335110D01*
X8268500Y7213600D02*
X8368500D01*
X8318500Y7163600D02*
Y7263600D01*
X8268500Y7569200D02*
X8368500D01*
X8318500Y7519200D02*
Y7619200D01*
X8268500Y7924800D02*
X8368500D01*
X8318500Y7874800D02*
Y7974800D01*
X10978600Y9207500D02*
X11068600D01*
X11023600Y9162500D02*
Y9252500D01*
X11232600Y9207500D02*
X11322600D01*
X11277600Y9162500D02*
Y9252500D01*
X11486600Y9207500D02*
X11576600D01*
X11531600Y9162500D02*
Y9252500D01*
X11740600Y9207500D02*
X11830600D01*
X11785600Y9162500D02*
Y9252500D01*
X11994600Y9207500D02*
X12084600D01*
X12039600Y9162500D02*
Y9252500D01*
X12675400Y7308850D02*
X12775400D01*
X12725400Y7258850D02*
Y7358850D01*
X12624600Y6921500D02*
X12724600D01*
X12674600Y6871500D02*
Y6971500D01*
X11443500Y9512300D02*
X11543500D01*
X11493500Y9462300D02*
Y9562300D01*
X12675400Y7734300D02*
X12775400D01*
X12725400Y7684300D02*
Y7784300D01*
X10213340Y6045200D02*
X10233660D01*
X10223500Y6035040D02*
Y6055360D01*
X11313400Y7302500D02*
X11343400D01*
X11328400Y7287500D02*
Y7317500D01*
X11737340Y5791200D02*
X11757660D01*
X11747500Y5781040D02*
Y5801360D01*
X10492740Y6324600D02*
X10513060D01*
X10502900Y6314440D02*
Y6334760D01*
X8206740Y7442200D02*
X8227060D01*
X8216900Y7432040D02*
Y7452360D01*
X8422640Y7670800D02*
X8442960D01*
X8432800Y7660640D02*
Y7680960D01*
X8409940Y6972300D02*
X8430260D01*
X8420100Y6962140D02*
Y6982460D01*
X8371840Y8216900D02*
X8392160D01*
X8382000Y8206740D02*
Y8227060D01*
X10492740Y9131300D02*
X10513060D01*
X10502900Y9121140D02*
Y9141460D01*
X10416540Y9131300D02*
X10436860D01*
X10426700Y9121140D02*
Y9141460D01*
X10683240Y6273800D02*
X10703560D01*
X10693400Y6263640D02*
Y6283960D01*
X11089640Y8839200D02*
X11109960D01*
X11099800Y8829040D02*
Y8849360D01*
X11000740Y8839200D02*
X11021060D01*
X11010900Y8829040D02*
Y8849360D01*
X10480040Y9613900D02*
X10500360D01*
X10490200Y9603740D02*
Y9624060D01*
X9857740Y8864600D02*
X9878060D01*
X9867900Y8854440D02*
Y8874760D01*
X9933940Y8864600D02*
X9954260D01*
X9944100Y8854440D02*
Y8874760D01*
%TF.MD5,b864c9c92504744251c3b4e60e21b510*%
M02*
