%TF.GenerationSoftware,Altium Limited,Altium Designer,25.0.2 (28)*%
G04 Layer_Color=65535*
%FSLAX45Y45*%
%MOMM*%
%TF.SameCoordinates,35A56F3A-7D9F-4CF9-8D97-DF5CB8944ECC*%
%TF.FilePolarity,Positive*%
%TF.FileFunction,Legend,Top*%
%TF.Part,Single*%
G01*
G75*
%TA.AperFunction,NonConductor*%
%ADD53C,0.15240*%
%ADD54C,0.25000*%
%ADD55C,0.17000*%
%ADD56C,0.20000*%
%ADD57C,0.07620*%
G36*
X10284250Y6820210D02*
X10246150D01*
Y6794810D01*
X10284250D01*
Y6820210D01*
D02*
G37*
G36*
X9830110Y7424350D02*
X9804710D01*
Y7386250D01*
X9830110D01*
Y7424350D01*
D02*
G37*
G36*
X10334250Y8140390D02*
X10296150D01*
Y8165790D01*
X10334250D01*
Y8140390D01*
D02*
G37*
G36*
X10784250Y6820210D02*
X10746150D01*
Y6794810D01*
X10784250D01*
Y6820210D01*
D02*
G37*
G36*
X11150290Y7474350D02*
X11175690D01*
Y7436250D01*
X11150290D01*
Y7474350D01*
D02*
G37*
G36*
X10834250Y8140390D02*
X10796150D01*
Y8165790D01*
X10834250D01*
Y8140390D01*
D02*
G37*
D53*
X10428921Y8756106D02*
G03*
X10428921Y8741344I-1892J-7381D01*
G01*
X9812730Y7855300D02*
G03*
X9812730Y7855300I-7620J0D01*
G01*
X11100075Y8770620D02*
X11246845D01*
X11100075Y8475980D02*
X11246845D01*
X10949940Y5744204D02*
Y5949950D01*
X9725660D02*
X9893966D01*
X10949940Y5403850D02*
Y5438896D01*
X9725660Y5403850D02*
X10949940D01*
X9725660Y5744204D02*
Y5949950D01*
X10781634D02*
X10949940D01*
X9725660Y5403850D02*
Y5438896D01*
X10454700Y8798700D02*
X10521795D01*
X10454700Y8498700D02*
X10521795D01*
X10712605D02*
X10779700D01*
X10712605Y8798700D02*
X10779700D01*
X9382760Y6055360D02*
Y6088066D01*
Y6586534D02*
Y6619240D01*
X9946640D01*
Y6055360D02*
Y6088066D01*
X9382760Y6055360D02*
X9946640D01*
Y6586534D02*
Y6619240D01*
X9824720Y8283215D02*
Y8429985D01*
X9530080Y8283215D02*
Y8429985D01*
X9977120Y6967220D02*
X10066761D01*
X11003280D02*
Y7056861D01*
X10913639Y7993380D02*
X11003280D01*
X9977120Y7903739D02*
Y7993380D01*
Y6967220D02*
Y7056861D01*
X10913639Y6967220D02*
X11003280D01*
Y7903739D02*
Y7993380D01*
X9977120D02*
X10066761D01*
X12321540Y6442704D02*
Y6648450D01*
X11097260D02*
X11265566D01*
X12321540Y6102350D02*
Y6137396D01*
X11097260Y6102350D02*
X12321540D01*
X11097260Y6442704D02*
Y6648450D01*
X12153234D02*
X12321540D01*
X11097260Y6102350D02*
Y6137396D01*
X11697100Y8993150D02*
X11771586D01*
X12222880Y6973850D02*
Y8993150D01*
X12148014D02*
X12222880D01*
X11697100Y8766304D02*
Y8993150D01*
Y6973850D02*
X11771586D01*
X11697100Y8566304D02*
Y8600696D01*
Y8366304D02*
Y8400696D01*
Y8166304D02*
Y8200696D01*
Y7966304D02*
Y8000696D01*
Y7766304D02*
Y7800696D01*
Y7566304D02*
Y7600696D01*
Y7366304D02*
Y7400696D01*
Y6973850D02*
Y7200696D01*
X12148014Y6973850D02*
X12222880D01*
X9545320Y8827770D02*
Y8957016D01*
X8945880Y8827770D02*
X9116806D01*
X8945880D02*
Y8957016D01*
X9085984Y9257030D02*
X9405216D01*
X9374394Y8827770D02*
X9545320D01*
X8948420Y8448294D02*
Y8619220D01*
X8519160Y8159884D02*
Y8479116D01*
X8819174Y8019780D02*
X8948420D01*
Y8190706D01*
X8819174Y8619220D02*
X8948420D01*
X8819174Y7895320D02*
X8948420D01*
Y7295880D02*
Y7466806D01*
X8819174Y7295880D02*
X8948420D01*
X8519160Y7435984D02*
Y7755216D01*
X8948420Y7724394D02*
Y7895320D01*
X8961120Y6985794D02*
Y7156720D01*
X8531860Y6697384D02*
Y7016616D01*
X8831874Y6557280D02*
X8961120D01*
Y6728206D01*
X8831874Y7156720D02*
X8961120D01*
X9832340Y5361919D02*
X9845036Y5374615D01*
X9870428D01*
X9883123Y5361919D01*
Y5349223D01*
X9870428Y5336528D01*
X9857732D01*
X9870428D01*
X9883123Y5323832D01*
Y5311136D01*
X9870428Y5298440D01*
X9845036D01*
X9832340Y5311136D01*
X9908515Y5374615D02*
Y5323832D01*
X9933907Y5298440D01*
X9959299Y5323832D01*
Y5374615D01*
X9984691Y5361919D02*
X9997387Y5374615D01*
X10022779D01*
X10035474Y5361919D01*
Y5349223D01*
X10022779Y5336528D01*
X10010083D01*
X10022779D01*
X10035474Y5323832D01*
Y5311136D01*
X10022779Y5298440D01*
X9997387D01*
X9984691Y5311136D01*
X11186185Y8321040D02*
X11262360D01*
Y8359128D01*
X11249664Y8371823D01*
X11236968D01*
X11224272Y8359128D01*
Y8321040D01*
Y8359128D01*
X11211577Y8371823D01*
X11198881D01*
X11186185Y8359128D01*
Y8321040D01*
Y8397215D02*
Y8447999D01*
Y8422607D01*
X11262360D01*
X11338581Y7279623D02*
X11325885Y7266928D01*
Y7241536D01*
X11338581Y7228840D01*
X11351277D01*
X11363972Y7241536D01*
Y7266928D01*
X11376668Y7279623D01*
X11389364D01*
X11402060Y7266928D01*
Y7241536D01*
X11389364Y7228840D01*
X11338581Y7355799D02*
X11325885Y7343103D01*
Y7317711D01*
X11338581Y7305015D01*
X11389364D01*
X11402060Y7317711D01*
Y7343103D01*
X11389364Y7355799D01*
X11402060Y7381191D02*
X11325885D01*
Y7419279D01*
X11338581Y7431974D01*
X11363972D01*
X11376668Y7419279D01*
Y7381191D01*
Y7406583D02*
X11402060Y7431974D01*
X11325885Y7508150D02*
Y7457366D01*
X11402060D01*
Y7508150D01*
X11363972Y7457366D02*
Y7482758D01*
X11325885Y7584325D02*
Y7533541D01*
X11402060D01*
Y7584325D01*
X11363972Y7533541D02*
Y7558933D01*
X11402060Y7609717D02*
X11325885D01*
X11402060Y7660500D01*
X11325885D01*
X10906785Y6238240D02*
X10982960D01*
X10944872D01*
Y6289023D01*
X10906785D01*
X10982960D01*
X10906785Y6365199D02*
Y6314415D01*
X10982960D01*
Y6365199D01*
X10944872Y6314415D02*
Y6339807D01*
X10982960Y6390591D02*
X10932177D01*
X10906785Y6415983D01*
X10932177Y6441374D01*
X10982960D01*
X10944872D01*
Y6390591D01*
X10982960Y6466766D02*
X10906785D01*
Y6504854D01*
X10919481Y6517550D01*
X10944872D01*
X10957568Y6504854D01*
Y6466766D01*
Y6492158D02*
X10982960Y6517550D01*
X10906785Y6542941D02*
Y6593725D01*
Y6568333D01*
X10982960D01*
X10314520Y6085395D02*
Y6009220D01*
X10352608D01*
X10365304Y6021916D01*
Y6034612D01*
X10352608Y6047308D01*
X10314520D01*
X10352608D01*
X10365304Y6060004D01*
Y6072700D01*
X10352608Y6085395D01*
X10314520D01*
X10390695D02*
Y6009220D01*
X10441479D01*
X10466871Y6085395D02*
Y6021916D01*
X10479567Y6009220D01*
X10504959D01*
X10517654Y6021916D01*
Y6085395D01*
X10593830D02*
X10543046D01*
Y6009220D01*
X10593830D01*
X10543046Y6047308D02*
X10568438D01*
X10619222Y6085395D02*
X10670005D01*
X10644613D01*
Y6009220D01*
X10733485Y6085395D02*
X10708093D01*
X10695397Y6072700D01*
Y6021916D01*
X10708093Y6009220D01*
X10733485D01*
X10746180Y6021916D01*
Y6072700D01*
X10733485Y6085395D01*
X10809660D02*
X10784268D01*
X10771572Y6072700D01*
Y6021916D01*
X10784268Y6009220D01*
X10809660D01*
X10822356Y6021916D01*
Y6072700D01*
X10809660Y6085395D01*
X10847748D02*
X10898531D01*
X10873140D01*
Y6009220D01*
X10923923Y6085395D02*
Y6009220D01*
Y6047308D01*
X10974707D01*
Y6085395D01*
Y6009220D01*
X9321017Y5984764D02*
X9356926Y5948854D01*
X9338971Y5966809D01*
X9285107Y5912945D01*
X9374881Y5930900D02*
X9356926Y5841126D01*
X9410790Y5894990D02*
X9321017Y5877036D01*
X8721053Y6464300D02*
X8774917Y6518164D01*
X8801849Y6491232D01*
X8801849Y6473277D01*
X8783894Y6455323D01*
X8765940Y6455322D01*
X8739007Y6482254D01*
X8756962Y6464300D02*
X8756962Y6428390D01*
X8828781Y6464300D02*
X8810826Y6374526D01*
X8864690Y6428390D02*
X8774917Y6410436D01*
X9552940Y8702015D02*
Y8625840D01*
X9591028D01*
X9603723Y8638536D01*
Y8651232D01*
X9591028Y8663928D01*
X9552940D01*
X9591028D01*
X9603723Y8676623D01*
Y8689319D01*
X9591028Y8702015D01*
X9552940D01*
X9667203D02*
X9641811D01*
X9629115Y8689319D01*
Y8638536D01*
X9641811Y8625840D01*
X9667203D01*
X9679899Y8638536D01*
Y8689319D01*
X9667203Y8702015D01*
X9743379D02*
X9717987D01*
X9705291Y8689319D01*
Y8638536D01*
X9717987Y8625840D01*
X9743379D01*
X9756074Y8638536D01*
Y8689319D01*
X9743379Y8702015D01*
X9781466D02*
X9832250D01*
X9806858D01*
Y8625840D01*
X9133840Y8613115D02*
Y8536940D01*
X9171928D01*
X9184624Y8549636D01*
Y8562332D01*
X9171928Y8575028D01*
X9133840D01*
X9171928D01*
X9184624Y8587723D01*
Y8600419D01*
X9171928Y8613115D01*
X9133840D01*
X9210016D02*
X9260799D01*
X9235407D01*
Y8536940D01*
X9286191D02*
Y8613115D01*
X9336974Y8536940D01*
Y8613115D01*
X9362366Y8536940D02*
X9387758D01*
X9375062D01*
Y8613115D01*
X9362366Y8600419D01*
X9166885Y8181340D02*
X9243060D01*
Y8219428D01*
X9230364Y8232123D01*
X9217668D01*
X9204972Y8219428D01*
Y8181340D01*
Y8219428D01*
X9192277Y8232123D01*
X9179581D01*
X9166885Y8219428D01*
Y8181340D01*
Y8257515D02*
Y8308299D01*
Y8282907D01*
X9243060D01*
Y8333691D02*
X9166885D01*
X9243060Y8384474D01*
X9166885D01*
X9243060Y8460650D02*
Y8409866D01*
X9192277Y8460650D01*
X9179581D01*
X9166885Y8447954D01*
Y8422562D01*
X9179581Y8409866D01*
X9166885Y7457440D02*
X9243060D01*
Y7495528D01*
X9230364Y7508223D01*
X9217668D01*
X9204972Y7495528D01*
Y7457440D01*
Y7495528D01*
X9192277Y7508223D01*
X9179581D01*
X9166885Y7495528D01*
Y7457440D01*
Y7533615D02*
Y7584399D01*
Y7559007D01*
X9243060D01*
Y7609791D02*
X9166885D01*
X9243060Y7660574D01*
X9166885D01*
X9179581Y7685966D02*
X9166885Y7698662D01*
Y7724054D01*
X9179581Y7736750D01*
X9192277D01*
X9204972Y7724054D01*
Y7711358D01*
Y7724054D01*
X9217668Y7736750D01*
X9230364D01*
X9243060Y7724054D01*
Y7698662D01*
X9230364Y7685966D01*
X8392185Y6568440D02*
X8468360D01*
X8430272D01*
Y6619223D01*
X8392185D01*
X8468360D01*
Y6644615D02*
X8417577D01*
X8392185Y6670007D01*
X8417577Y6695399D01*
X8468360D01*
X8430272D01*
Y6644615D01*
X8468360Y6720791D02*
X8392185D01*
Y6758879D01*
X8404881Y6771574D01*
X8430272D01*
X8442968Y6758879D01*
Y6720791D01*
X8392185Y6796966D02*
Y6847750D01*
Y6822358D01*
X8468360D01*
X8392185Y6873141D02*
Y6898533D01*
Y6885837D01*
X8468360D01*
Y6873141D01*
Y6898533D01*
X8404881Y6987404D02*
X8392185Y6974709D01*
Y6949317D01*
X8404881Y6936621D01*
X8455664D01*
X8468360Y6949317D01*
Y6974709D01*
X8455664Y6987404D01*
X9306568Y8625840D02*
Y8676623D01*
X9281177Y8651232D02*
X9331960D01*
X11623023Y9438615D02*
X11572240D01*
Y9400528D01*
X11597632D01*
X11572240D01*
Y9362440D01*
X11648415Y9438615D02*
Y9362440D01*
X11699199D01*
X11724591D02*
Y9413223D01*
X11749983Y9438615D01*
X11775374Y9413223D01*
Y9362440D01*
Y9400528D01*
X11724591D01*
X11851550Y9425919D02*
X11838854Y9438615D01*
X11813462D01*
X11800766Y9425919D01*
Y9413223D01*
X11813462Y9400528D01*
X11838854D01*
X11851550Y9387832D01*
Y9375136D01*
X11838854Y9362440D01*
X11813462D01*
X11800766Y9375136D01*
X11876941Y9438615D02*
Y9362440D01*
Y9400528D01*
X11927725D01*
Y9438615D01*
Y9362440D01*
X9121132Y6944360D02*
Y6893577D01*
X9146523Y6918968D02*
X9095740D01*
X9121140Y6817360D02*
Y6766577D01*
X9116060Y7508240D02*
Y7559023D01*
X9116068Y7635240D02*
Y7686023D01*
X9090677Y7660632D02*
X9141460D01*
X9128760Y8232140D02*
Y8282923D01*
X9204960Y8658860D02*
X9154177D01*
X9128768Y8346440D02*
Y8397223D01*
X9103377Y8371832D02*
X9154160D01*
X12321523Y7901919D02*
X12308828Y7914615D01*
X12283436D01*
X12270740Y7901919D01*
Y7851136D01*
X12283436Y7838440D01*
X12308828D01*
X12321523Y7851136D01*
X12397699Y7901919D02*
X12385003Y7914615D01*
X12359611D01*
X12346915Y7901919D01*
Y7889223D01*
X12359611Y7876528D01*
X12385003D01*
X12397699Y7863832D01*
Y7851136D01*
X12385003Y7838440D01*
X12359611D01*
X12346915Y7851136D01*
X12270740Y7724115D02*
Y7647940D01*
X12308828D01*
X12321523Y7660636D01*
Y7711419D01*
X12308828Y7724115D01*
X12270740D01*
X12397699Y7711419D02*
X12385003Y7724115D01*
X12359611D01*
X12346915Y7711419D01*
Y7660636D01*
X12359611Y7647940D01*
X12385003D01*
X12397699Y7660636D01*
X12270740Y7457440D02*
Y7533615D01*
X12308828D01*
X12321523Y7520919D01*
Y7495528D01*
X12308828Y7482832D01*
X12270740D01*
X12296132D02*
X12321523Y7457440D01*
X12397699Y7520919D02*
X12385003Y7533615D01*
X12359611D01*
X12346915Y7520919D01*
Y7508223D01*
X12359611Y7495528D01*
X12385003D01*
X12397699Y7482832D01*
Y7470136D01*
X12385003Y7457440D01*
X12359611D01*
X12346915Y7470136D01*
X12423091Y7533615D02*
X12473874D01*
X12448483D01*
Y7457440D01*
X12270740Y7330415D02*
Y7254240D01*
X12308828D01*
X12321523Y7266936D01*
Y7279632D01*
X12308828Y7292328D01*
X12270740D01*
X12308828D01*
X12321523Y7305023D01*
Y7317719D01*
X12308828Y7330415D01*
X12270740D01*
X12346915D02*
Y7254240D01*
X12397699D01*
X12321523Y8117819D02*
X12308828Y8130515D01*
X12283436D01*
X12270740Y8117819D01*
Y8105123D01*
X12283436Y8092428D01*
X12308828D01*
X12321523Y8079732D01*
Y8067036D01*
X12308828Y8054340D01*
X12283436D01*
X12270740Y8067036D01*
X12397699Y8117819D02*
X12385003Y8130515D01*
X12359611D01*
X12346915Y8117819D01*
Y8067036D01*
X12359611Y8054340D01*
X12385003D01*
X12397699Y8067036D01*
X12423091Y8130515D02*
Y8054340D01*
X12473874D01*
X12499266Y8130515D02*
Y8054340D01*
Y8079732D01*
X12550050Y8130515D01*
X12511962Y8092428D01*
X12550050Y8054340D01*
X12270740Y8257540D02*
Y8333715D01*
X12296132Y8308323D01*
X12321523Y8333715D01*
Y8257540D01*
X12385003Y8333715D02*
X12359611D01*
X12346915Y8321019D01*
Y8270236D01*
X12359611Y8257540D01*
X12385003D01*
X12397699Y8270236D01*
Y8321019D01*
X12385003Y8333715D01*
X12473874Y8321019D02*
X12461179Y8333715D01*
X12435787D01*
X12423091Y8321019D01*
Y8308323D01*
X12435787Y8295628D01*
X12461179D01*
X12473874Y8282932D01*
Y8270236D01*
X12461179Y8257540D01*
X12435787D01*
X12423091Y8270236D01*
X12499266Y8333715D02*
X12524658D01*
X12511962D01*
Y8257540D01*
X12499266D01*
X12524658D01*
X12321523Y8524219D02*
X12308828Y8536915D01*
X12283436D01*
X12270740Y8524219D01*
Y8473436D01*
X12283436Y8460740D01*
X12308828D01*
X12321523Y8473436D01*
Y8498828D01*
X12296132D01*
X12346915Y8460740D02*
Y8536915D01*
X12397699Y8460740D01*
Y8536915D01*
X12423091D02*
Y8460740D01*
X12461179D01*
X12473874Y8473436D01*
Y8524219D01*
X12461179Y8536915D01*
X12423091D01*
X12270740Y8727419D02*
X12283436Y8740115D01*
X12308828D01*
X12321523Y8727419D01*
Y8714723D01*
X12308828Y8702028D01*
X12296132D01*
X12308828D01*
X12321523Y8689332D01*
Y8676636D01*
X12308828Y8663940D01*
X12283436D01*
X12270740Y8676636D01*
X12346915Y8740115D02*
Y8689332D01*
X12372307Y8663940D01*
X12397699Y8689332D01*
Y8740115D01*
X12423091Y8727419D02*
X12435787Y8740115D01*
X12461179D01*
X12473874Y8727419D01*
Y8714723D01*
X12461179Y8702028D01*
X12448483D01*
X12461179D01*
X12473874Y8689332D01*
Y8676636D01*
X12461179Y8663940D01*
X12435787D01*
X12423091Y8676636D01*
X11376660Y5946140D02*
X11300485D01*
X11376660Y5996923D01*
X11300485D01*
X11313181Y6073099D02*
X11300485Y6060403D01*
Y6035011D01*
X11313181Y6022315D01*
X11363964D01*
X11376660Y6035011D01*
Y6060403D01*
X11363964Y6073099D01*
X11935481Y5882640D02*
X11922785Y5895336D01*
Y5920728D01*
X11935481Y5933423D01*
X11948177D01*
X11960872Y5920728D01*
Y5908032D01*
Y5920728D01*
X11973568Y5933423D01*
X11986264D01*
X11998960Y5920728D01*
Y5895336D01*
X11986264Y5882640D01*
X11922785Y5958815D02*
X11973568D01*
X11998960Y5984207D01*
X11973568Y6009599D01*
X11922785D01*
X11935481Y6034991D02*
X11922785Y6047687D01*
Y6073079D01*
X11935481Y6085774D01*
X11948177D01*
X11960872Y6073079D01*
Y6060383D01*
Y6073079D01*
X11973568Y6085774D01*
X11986264D01*
X11998960Y6073079D01*
Y6047687D01*
X11986264Y6034991D01*
X11579881Y5933423D02*
X11567185Y5920728D01*
Y5895336D01*
X11579881Y5882640D01*
X11592577D01*
X11605272Y5895336D01*
Y5920728D01*
X11617968Y5933423D01*
X11630664D01*
X11643360Y5920728D01*
Y5895336D01*
X11630664Y5882640D01*
X11567185Y5958815D02*
X11643360D01*
Y5996903D01*
X11630664Y6009599D01*
X11579881D01*
X11567185Y5996903D01*
Y5958815D01*
X11643360Y6034991D02*
X11592577D01*
X11567185Y6060383D01*
X11592577Y6085774D01*
X11643360D01*
X11605272D01*
Y6034991D01*
X11440181Y5933423D02*
X11427485Y5920728D01*
Y5895336D01*
X11440181Y5882640D01*
X11452877D01*
X11465572Y5895336D01*
Y5920728D01*
X11478268Y5933423D01*
X11490964D01*
X11503660Y5920728D01*
Y5895336D01*
X11490964Y5882640D01*
X11440181Y6009599D02*
X11427485Y5996903D01*
Y5971511D01*
X11440181Y5958815D01*
X11490964D01*
X11503660Y5971511D01*
Y5996903D01*
X11490964Y6009599D01*
X11427485Y6034991D02*
X11503660D01*
Y6085774D01*
X11821181Y5933423D02*
X11808485Y5920728D01*
Y5895336D01*
X11821181Y5882640D01*
X11871964D01*
X11884660Y5895336D01*
Y5920728D01*
X11871964Y5933423D01*
X11846572D01*
Y5908032D01*
X11884660Y5958815D02*
X11808485D01*
X11884660Y6009599D01*
X11808485D01*
Y6034991D02*
X11884660D01*
Y6073079D01*
X11871964Y6085774D01*
X11821181D01*
X11808485Y6073079D01*
Y6034991D01*
X11694185Y5882640D02*
Y5908032D01*
Y5895336D01*
X11770360D01*
Y5882640D01*
Y5908032D01*
Y5946119D02*
X11694185D01*
X11770360Y5996903D01*
X11694185D01*
Y6022295D02*
Y6073078D01*
Y6047687D01*
X11770360D01*
X10525785Y5234940D02*
Y5285723D01*
Y5260332D01*
X10601960D01*
X10525785Y5311115D02*
X10601960Y5361899D01*
X10525785D02*
X10601960Y5311115D01*
X10703581Y5285723D02*
X10690885Y5273028D01*
Y5247636D01*
X10703581Y5234940D01*
X10716277D01*
X10728972Y5247636D01*
Y5273028D01*
X10741668Y5285723D01*
X10754364D01*
X10767060Y5273028D01*
Y5247636D01*
X10754364Y5234940D01*
X10690885Y5311115D02*
Y5361899D01*
Y5336507D01*
X10767060D01*
X10246385Y5285723D02*
Y5234940D01*
X10322560D01*
Y5285723D01*
X10284472Y5234940D02*
Y5260332D01*
X10322560Y5311115D02*
X10246385D01*
X10322560Y5361899D01*
X10246385D01*
X8965416Y6314964D02*
X8911552Y6261100D01*
X8938485Y6234168D01*
X8956439Y6234168D01*
X8992349Y6270077D01*
X8992349Y6288032D01*
X8965416Y6314964D01*
X9055190Y6225191D02*
X9019281Y6261100D01*
X8965416Y6207236D01*
X9001326Y6171326D01*
X8992349Y6234168D02*
X9010304Y6216213D01*
X9073145Y6207236D02*
X9019281Y6153372D01*
X9046213Y6126440D01*
X9064167Y6126440D01*
X9073145Y6135417D01*
X9073145Y6153372D01*
X9046213Y6180304D01*
X9073145Y6153372D01*
X9091099D01*
X9100077Y6162349D01*
Y6180304D01*
X9073145Y6207236D01*
X9127009Y6153372D02*
X9082122Y6108485D01*
Y6090530D01*
X9100077Y6072576D01*
X9118032D01*
X9162918Y6117462D01*
X9207805Y6054621D02*
Y6072576D01*
X9189850Y6090530D01*
X9171896D01*
X9135986Y6054621D01*
Y6036666D01*
X9153941Y6018711D01*
X9171896Y6018712D01*
X9189850Y6036666D01*
X9171896Y6054621D01*
X10449560Y5234940D02*
X10373385D01*
Y5273028D01*
X10386081Y5285723D01*
X10411472D01*
X10424168Y5273028D01*
Y5234940D01*
Y5260332D02*
X10449560Y5285723D01*
X10373385Y5311115D02*
X10449560Y5361899D01*
X10373385D02*
X10449560Y5311115D01*
X10081281Y5285723D02*
X10068585Y5273028D01*
Y5247636D01*
X10081281Y5234940D01*
X10132064D01*
X10144760Y5247636D01*
Y5273028D01*
X10132064Y5285723D01*
X10106672D01*
Y5260332D01*
X10144760Y5311115D02*
X10068585D01*
X10144760Y5361899D01*
X10068585D01*
Y5387291D02*
X10144760D01*
Y5425379D01*
X10132064Y5438074D01*
X10081281D01*
X10068585Y5425379D01*
Y5387291D01*
X9448804Y7785092D02*
X9436108Y7797788D01*
X9410717D01*
X9398021Y7785092D01*
Y7734308D01*
X9410717Y7721612D01*
X9436108D01*
X9448804Y7734308D01*
X9474196Y7785092D02*
X9486892Y7797788D01*
X9512284D01*
X9524979Y7785092D01*
Y7772396D01*
X9512284Y7759700D01*
X9524979Y7747004D01*
Y7734308D01*
X9512284Y7721612D01*
X9486892D01*
X9474196Y7734308D01*
Y7747004D01*
X9486892Y7759700D01*
X9474196Y7772396D01*
Y7785092D01*
X9486892Y7759700D02*
X9512284D01*
X10274321Y8902688D02*
Y8839208D01*
X10287017Y8826512D01*
X10312408D01*
X10325104Y8839208D01*
Y8902688D01*
X10401279D02*
X10350496D01*
Y8864600D01*
X10375888Y8877296D01*
X10388584D01*
X10401279Y8864600D01*
Y8839208D01*
X10388584Y8826512D01*
X10363192D01*
X10350496Y8839208D01*
X10947408Y9372633D02*
X10934712Y9385329D01*
Y9410721D01*
X10947408Y9423417D01*
X10960104D01*
X10972800Y9410721D01*
Y9398025D01*
Y9410721D01*
X10985496Y9423417D01*
X10998192D01*
X11010888Y9410721D01*
Y9385329D01*
X10998192Y9372633D01*
X10934712Y9448808D02*
X10985496D01*
X11010888Y9474200D01*
X10985496Y9499592D01*
X10934712D01*
X10947408Y9524984D02*
X10934712Y9537680D01*
Y9563072D01*
X10947408Y9575767D01*
X10960104D01*
X10972800Y9563072D01*
Y9550376D01*
Y9563072D01*
X10985496Y9575767D01*
X10998192D01*
X11010888Y9563072D01*
Y9537680D01*
X10998192Y9524984D01*
X9118645Y9397988D02*
Y9347204D01*
X9144037Y9321812D01*
X9169429Y9347204D01*
Y9397988D01*
X9194821D02*
Y9321812D01*
X9232908D01*
X9245604Y9334508D01*
Y9347204D01*
X9232908Y9359900D01*
X9194821D01*
X9232908D01*
X9245604Y9372596D01*
Y9385292D01*
X9232908Y9397988D01*
X9194821D01*
X9270996Y9321812D02*
Y9372596D01*
X9296388Y9397988D01*
X9321779Y9372596D01*
Y9321812D01*
Y9359900D01*
X9270996D01*
X9347171Y9397988D02*
X9397955D01*
X9372563D01*
Y9321812D01*
X9594877Y7924812D02*
Y8000988D01*
X9632964D01*
X9645660Y7988292D01*
Y7962900D01*
X9632964Y7950204D01*
X9594877D01*
X9620269D02*
X9645660Y7924812D01*
X9671052D02*
X9696444D01*
X9683748D01*
Y8000988D01*
X9671052Y7988292D01*
X9734531Y7924812D02*
X9759923D01*
X9747227D01*
Y8000988D01*
X9734531Y7988292D01*
X10426721Y9804388D02*
Y9740908D01*
X10439417Y9728212D01*
X10464808D01*
X10477504Y9740908D01*
Y9804388D01*
X10502896D02*
X10553679D01*
Y9791692D01*
X10502896Y9740908D01*
Y9728212D01*
X10629921Y9766312D02*
Y9842488D01*
X10668008D01*
X10680704Y9829792D01*
Y9804400D01*
X10668008Y9791704D01*
X10629921D01*
X10655312D02*
X10680704Y9766312D01*
X10706096Y9779008D02*
X10718792Y9766312D01*
X10744184D01*
X10756879Y9779008D01*
Y9829792D01*
X10744184Y9842488D01*
X10718792D01*
X10706096Y9829792D01*
Y9817096D01*
X10718792Y9804400D01*
X10756879D01*
X9842521Y9753588D02*
Y9677412D01*
X9880608D01*
X9893304Y9690108D01*
Y9740892D01*
X9880608Y9753588D01*
X9842521D01*
X9969479Y9677412D02*
X9918696D01*
X9969479Y9728196D01*
Y9740892D01*
X9956784Y9753588D01*
X9931392D01*
X9918696Y9740892D01*
X10718808Y9480564D02*
X10706112Y9467869D01*
Y9442477D01*
X10718808Y9429781D01*
X10769592D01*
X10782288Y9442477D01*
Y9467869D01*
X10769592Y9480564D01*
X10782288Y9505956D02*
Y9531348D01*
Y9518652D01*
X10706112D01*
X10718808Y9505956D01*
X10706112Y9620219D02*
Y9569436D01*
X10744200D01*
X10731504Y9594828D01*
Y9607524D01*
X10744200Y9620219D01*
X10769592D01*
X10782288Y9607524D01*
Y9582132D01*
X10769592Y9569436D01*
X10229864Y9791692D02*
X10217169Y9804388D01*
X10191777D01*
X10179081Y9791692D01*
Y9740908D01*
X10191777Y9728212D01*
X10217169D01*
X10229864Y9740908D01*
X10255256Y9728212D02*
X10280648D01*
X10267952D01*
Y9804388D01*
X10255256Y9791692D01*
X10356824Y9728212D02*
Y9804388D01*
X10318736Y9766300D01*
X10369519D01*
X8382012Y7073904D02*
Y7048512D01*
Y7061208D01*
X8445492D01*
X8458188Y7048512D01*
Y7035817D01*
X8445492Y7023121D01*
X8458188Y7150079D02*
Y7099296D01*
X8407404Y7150079D01*
X8394708D01*
X8382012Y7137384D01*
Y7111992D01*
X8394708Y7099296D01*
X9283712Y7537464D02*
Y7512073D01*
Y7524769D01*
X9347192D01*
X9359888Y7512073D01*
Y7499377D01*
X9347192Y7486681D01*
X9359888Y7562856D02*
Y7588248D01*
Y7575552D01*
X9283712D01*
X9296408Y7562856D01*
X9359888Y7677119D02*
Y7626336D01*
X9309104Y7677119D01*
X9296408D01*
X9283712Y7664424D01*
Y7639032D01*
X9296408Y7626336D01*
X9270012Y8275061D02*
Y8249669D01*
Y8262365D01*
X9333491D01*
X9346187Y8249669D01*
Y8236973D01*
X9333491Y8224277D01*
X9346187Y8300453D02*
Y8325844D01*
Y8313148D01*
X9270012D01*
X9282708Y8300453D01*
X9346187Y8363932D02*
Y8389324D01*
Y8376628D01*
X9270012D01*
X9282708Y8363932D01*
X8769364Y9055088D02*
X8743973D01*
X8756669D01*
Y8991608D01*
X8743973Y8978912D01*
X8731277D01*
X8718581Y8991608D01*
X8794756Y8978912D02*
X8820148D01*
X8807452D01*
Y9055088D01*
X8794756Y9042392D01*
X8858236D02*
X8870932Y9055088D01*
X8896324D01*
X8909019Y9042392D01*
Y8991608D01*
X8896324Y8978912D01*
X8870932D01*
X8858236Y8991608D01*
Y9042392D01*
X10871204Y5346688D02*
X10845812D01*
X10858508D01*
Y5283208D01*
X10845812Y5270512D01*
X10833117D01*
X10820421Y5283208D01*
X10896596D02*
X10909292Y5270512D01*
X10934684D01*
X10947379Y5283208D01*
Y5333992D01*
X10934684Y5346688D01*
X10909292D01*
X10896596Y5333992D01*
Y5321296D01*
X10909292Y5308600D01*
X10947379D01*
X11074404Y6794488D02*
X11049012D01*
X11061708D01*
Y6731008D01*
X11049012Y6718312D01*
X11036317D01*
X11023621Y6731008D01*
X11099796Y6781792D02*
X11112492Y6794488D01*
X11137884D01*
X11150579Y6781792D01*
Y6769096D01*
X11137884Y6756400D01*
X11150579Y6743704D01*
Y6731008D01*
X11137884Y6718312D01*
X11112492D01*
X11099796Y6731008D01*
Y6743704D01*
X11112492Y6756400D01*
X11099796Y6769096D01*
Y6781792D01*
X11112492Y6756400D02*
X11137884D01*
X8255021Y7353312D02*
Y7429488D01*
X8280412Y7404096D01*
X8305804Y7429488D01*
Y7353312D01*
X8331196Y7416792D02*
X8343892Y7429488D01*
X8369284D01*
X8381979Y7416792D01*
Y7404096D01*
X8369284Y7391400D01*
X8356588D01*
X8369284D01*
X8381979Y7378704D01*
Y7366008D01*
X8369284Y7353312D01*
X8343892D01*
X8331196Y7366008D01*
X8255021Y7708912D02*
Y7785088D01*
X8280412Y7759696D01*
X8305804Y7785088D01*
Y7708912D01*
X8381979D02*
X8331196D01*
X8381979Y7759696D01*
Y7772392D01*
X8369284Y7785088D01*
X8343892D01*
X8331196Y7772392D01*
X11442717Y5499092D02*
X11430021Y5511788D01*
X11404629D01*
X11391933Y5499092D01*
Y5486396D01*
X11404629Y5473700D01*
X11430021D01*
X11442717Y5461004D01*
Y5448308D01*
X11430021Y5435612D01*
X11404629D01*
X11391933Y5448308D01*
X11468108Y5511788D02*
Y5435612D01*
X11506196D01*
X11518892Y5448308D01*
Y5499092D01*
X11506196Y5511788D01*
X11468108D01*
X11544284Y5435612D02*
Y5486396D01*
X11569676Y5511788D01*
X11595067Y5486396D01*
Y5435612D01*
Y5473700D01*
X11544284D01*
X9372621Y5613388D02*
X9423404D01*
X9398012D01*
Y5537212D01*
X9448796Y5613388D02*
X9499579Y5537212D01*
Y5613388D02*
X9448796Y5537212D01*
X8267717Y8064512D02*
Y8140688D01*
X8293108Y8115296D01*
X8318500Y8140688D01*
Y8064512D01*
X8343892D02*
X8369284D01*
X8356588D01*
Y8140688D01*
X8343892Y8127992D01*
X11074417Y5359392D02*
X11061721Y5372088D01*
X11036329D01*
X11023633Y5359392D01*
Y5346696D01*
X11036329Y5334000D01*
X11061721D01*
X11074417Y5321304D01*
Y5308608D01*
X11061721Y5295912D01*
X11036329D01*
X11023633Y5308608D01*
X11150592Y5359392D02*
X11137896Y5372088D01*
X11112504D01*
X11099808Y5359392D01*
Y5308608D01*
X11112504Y5295912D01*
X11137896D01*
X11150592Y5308608D01*
X11175984Y5372088D02*
Y5295912D01*
X11226767D01*
X9537721Y5829312D02*
Y5905488D01*
X9575808D01*
X9588504Y5892792D01*
Y5867400D01*
X9575808Y5854704D01*
X9537721D01*
X9563112D02*
X9588504Y5829312D01*
X9613896Y5905488D02*
X9664679Y5829312D01*
Y5905488D02*
X9613896Y5829312D01*
X12331700Y9004288D02*
X12306308D01*
X12319004D01*
Y8940808D01*
X12306308Y8928112D01*
X12293612D01*
X12280917Y8940808D01*
X12357092Y8928112D02*
X12382484D01*
X12369788D01*
Y9004288D01*
X12357092Y8991592D01*
X11210018Y7609445D02*
X11197322Y7596749D01*
Y7571357D01*
X11210018Y7558662D01*
X11260802D01*
X11273498Y7571357D01*
Y7596749D01*
X11260802Y7609445D01*
X11273498Y7634837D02*
Y7660229D01*
Y7647533D01*
X11197322D01*
X11210018Y7634837D01*
Y7698316D02*
X11197322Y7711012D01*
Y7736404D01*
X11210018Y7749100D01*
X11222714D01*
X11235410Y7736404D01*
Y7723708D01*
Y7736404D01*
X11248106Y7749100D01*
X11260802D01*
X11273498Y7736404D01*
Y7711012D01*
X11260802Y7698316D01*
X12611129Y7137392D02*
X12598433Y7150088D01*
X12573041D01*
X12560345Y7137392D01*
Y7124696D01*
X12573041Y7112000D01*
X12598433D01*
X12611129Y7099304D01*
Y7086608D01*
X12598433Y7073912D01*
X12573041D01*
X12560345Y7086608D01*
X12687304Y7137392D02*
X12674608Y7150088D01*
X12649217D01*
X12636521Y7137392D01*
Y7086608D01*
X12649217Y7073912D01*
X12674608D01*
X12687304Y7086608D01*
X12712696Y7150088D02*
Y7073912D01*
X12763479D01*
X12788871Y7150088D02*
Y7073912D01*
Y7099304D01*
X12839655Y7150088D01*
X12801567Y7112000D01*
X12839655Y7073912D01*
X12553993Y7899412D02*
Y7975588D01*
X12579385Y7950196D01*
X12604777Y7975588D01*
Y7899412D01*
X12630169Y7975588D02*
X12655560D01*
X12642864D01*
Y7899412D01*
X12630169D01*
X12655560D01*
X12744431Y7962892D02*
X12731736Y7975588D01*
X12706344D01*
X12693648Y7962892D01*
Y7950196D01*
X12706344Y7937500D01*
X12731736D01*
X12744431Y7924804D01*
Y7912108D01*
X12731736Y7899412D01*
X12706344D01*
X12693648Y7912108D01*
X12807912Y7975588D02*
X12782519D01*
X12769823Y7962892D01*
Y7912108D01*
X12782519Y7899412D01*
X12807912D01*
X12820607Y7912108D01*
Y7962892D01*
X12807912Y7975588D01*
X12611141Y7493012D02*
Y7569188D01*
X12636533Y7543796D01*
X12661925Y7569188D01*
Y7493012D01*
X12725404Y7569188D02*
X12700012D01*
X12687317Y7556492D01*
Y7505708D01*
X12700012Y7493012D01*
X12725404D01*
X12738100Y7505708D01*
Y7556492D01*
X12725404Y7569188D01*
X12814275Y7556492D02*
X12801579Y7569188D01*
X12776188D01*
X12763492Y7556492D01*
Y7543796D01*
X12776188Y7531100D01*
X12801579D01*
X12814275Y7518404D01*
Y7505708D01*
X12801579Y7493012D01*
X12776188D01*
X12763492Y7505708D01*
X12839667Y7569188D02*
X12865059D01*
X12852364D01*
Y7493012D01*
X12839667D01*
X12865059D01*
X11163353Y9417040D02*
X11150658Y9429736D01*
X11125266D01*
X11112570Y9417040D01*
Y9366256D01*
X11125266Y9353560D01*
X11150658D01*
X11163353Y9366256D01*
X11239529Y9417040D02*
X11226833Y9429736D01*
X11201441D01*
X11188745Y9417040D01*
Y9404344D01*
X11201441Y9391648D01*
X11226833D01*
X11239529Y9378952D01*
Y9366256D01*
X11226833Y9353560D01*
X11201441D01*
X11188745Y9366256D01*
X11264921Y9340864D02*
X11315704D01*
X11341096Y9353560D02*
Y9404344D01*
X11366488Y9429736D01*
X11391879Y9404344D01*
Y9353560D01*
Y9391648D01*
X11341096D01*
X11468055Y9417040D02*
X11455359Y9429736D01*
X11429967D01*
X11417271Y9417040D01*
Y9366256D01*
X11429967Y9353560D01*
X11455359D01*
X11468055Y9366256D01*
X11544230Y9417040D02*
X11531534Y9429736D01*
X11506143D01*
X11493447Y9417040D01*
Y9366256D01*
X11506143Y9353560D01*
X11531534D01*
X11544230Y9366256D01*
X12452360Y6858054D02*
X12439664Y6845358D01*
Y6819966D01*
X12452360Y6807270D01*
X12503143D01*
X12515839Y6819966D01*
Y6845358D01*
X12503143Y6858054D01*
X12452360Y6934229D02*
X12439664Y6921533D01*
Y6896141D01*
X12452360Y6883445D01*
X12465056D01*
X12477752Y6896141D01*
Y6921533D01*
X12490447Y6934229D01*
X12503143D01*
X12515839Y6921533D01*
Y6896141D01*
X12503143Y6883445D01*
X12528535Y6959621D02*
Y7010404D01*
X12439664Y7035796D02*
X12515839D01*
Y7086580D01*
X12452360Y7162755D02*
X12439664Y7150059D01*
Y7124667D01*
X12452360Y7111972D01*
X12503143D01*
X12515839Y7124667D01*
Y7150059D01*
X12503143Y7162755D01*
X12439664Y7188147D02*
X12515839D01*
Y7226235D01*
X12503143Y7238930D01*
X12452360D01*
X12439664Y7226235D01*
Y7188147D01*
X8462581Y6482254D02*
X8516445Y6536118D01*
X8543378Y6509186D01*
X8543377Y6491232D01*
X8525423Y6473277D01*
X8507468Y6473277D01*
X8480536Y6500209D01*
X8552355Y6392481D02*
X8516445Y6428390D01*
X8588264D01*
X8597241Y6437368D01*
X8597242Y6455322D01*
X8579287Y6473277D01*
X8561332D01*
X12192017Y9017012D02*
Y9093188D01*
X12230104D01*
X12242800Y9080492D01*
Y9055100D01*
X12230104Y9042404D01*
X12192017D01*
X12268192Y9017012D02*
X12293584D01*
X12280888D01*
Y9093188D01*
X12268192Y9080492D01*
X11112521Y8877312D02*
Y8953488D01*
X11150608D01*
X11163304Y8940792D01*
Y8915400D01*
X11150608Y8902704D01*
X11112521D01*
X11137912D02*
X11163304Y8877312D01*
X11239479Y8953488D02*
X11188696D01*
Y8915400D01*
X11214088Y8928096D01*
X11226784D01*
X11239479Y8915400D01*
Y8890008D01*
X11226784Y8877312D01*
X11201392D01*
X11188696Y8890008D01*
X11125217Y5918192D02*
X11112521Y5930888D01*
X11087129D01*
X11074433Y5918192D01*
Y5867408D01*
X11087129Y5854712D01*
X11112521D01*
X11125217Y5867408D01*
Y5892800D01*
X11099825D01*
X11150608Y5854712D02*
Y5930888D01*
X11201392Y5854712D01*
Y5930888D01*
X11226784D02*
Y5854712D01*
X11264872D01*
X11277567Y5867408D01*
Y5918192D01*
X11264872Y5930888D01*
X11226784D01*
X9804421Y8051788D02*
Y7988308D01*
X9817117Y7975612D01*
X9842508D01*
X9855204Y7988308D01*
Y8051788D01*
X9931379Y7975612D02*
X9880596D01*
X9931379Y8026396D01*
Y8039092D01*
X9918684Y8051788D01*
X9893292D01*
X9880596Y8039092D01*
X11264921Y6858012D02*
Y6934188D01*
X11303008D01*
X11315704Y6921492D01*
Y6896100D01*
X11303008Y6883404D01*
X11264921D01*
X11290312D02*
X11315704Y6858012D01*
X11379184D02*
Y6934188D01*
X11341096Y6896100D01*
X11391879D01*
X12661888Y6540521D02*
X12585712D01*
Y6578608D01*
X12598408Y6591304D01*
X12623800D01*
X12636496Y6578608D01*
Y6540521D01*
Y6565912D02*
X12661888Y6591304D01*
X12598408Y6616696D02*
X12585712Y6629392D01*
Y6654784D01*
X12598408Y6667479D01*
X12611104D01*
X12623800Y6654784D01*
Y6642088D01*
Y6654784D01*
X12636496Y6667479D01*
X12649192D01*
X12661888Y6654784D01*
Y6629392D01*
X12649192Y6616696D01*
X9550421Y6730988D02*
Y6667508D01*
X9563117Y6654812D01*
X9588508D01*
X9601204Y6667508D01*
Y6730988D01*
X9626596Y6718292D02*
X9639292Y6730988D01*
X9664684D01*
X9677379Y6718292D01*
Y6705596D01*
X9664684Y6692900D01*
X9651988D01*
X9664684D01*
X9677379Y6680204D01*
Y6667508D01*
X9664684Y6654812D01*
X9639292D01*
X9626596Y6667508D01*
X12057843Y6747331D02*
Y6823507D01*
X12095931D01*
X12108626Y6810811D01*
Y6785419D01*
X12095931Y6772723D01*
X12057843D01*
X12083235D02*
X12108626Y6747331D01*
X12184802D02*
X12134018D01*
X12184802Y6798115D01*
Y6810811D01*
X12172106Y6823507D01*
X12146714D01*
X12134018Y6810811D01*
X9372600Y6731008D02*
Y6781792D01*
X9359904Y6794488D01*
X9334512D01*
X9321817Y6781792D01*
Y6731008D01*
X9334512Y6718312D01*
X9359904D01*
X9347208Y6743704D02*
X9372600Y6718312D01*
X9359904D02*
X9372600Y6731008D01*
X9397992Y6718312D02*
X9423384D01*
X9410688D01*
Y6794488D01*
X9397992Y6781792D01*
X10864864Y8915392D02*
X10852169Y8928088D01*
X10826777D01*
X10814081Y8915392D01*
Y8864608D01*
X10826777Y8851912D01*
X10852169D01*
X10864864Y8864608D01*
X10890256Y8851912D02*
X10915648D01*
X10902952D01*
Y8928088D01*
X10890256Y8915392D01*
X11004519Y8851912D02*
X10953736D01*
X11004519Y8902696D01*
Y8915392D01*
X10991824Y8928088D01*
X10966432D01*
X10953736Y8915392D01*
X10724677Y9232340D02*
X10737373Y9245036D01*
Y9270427D01*
X10724677Y9283123D01*
X10673893D01*
X10661197Y9270427D01*
Y9245036D01*
X10673893Y9232340D01*
X10661197Y9206948D02*
Y9181556D01*
Y9194252D01*
X10737373D01*
X10724677Y9206948D01*
X10661197Y9143469D02*
Y9118077D01*
Y9130773D01*
X10737373D01*
X10724677Y9143469D01*
X10077464Y8775692D02*
X10064769Y8788388D01*
X10039377D01*
X10026681Y8775692D01*
Y8724908D01*
X10039377Y8712212D01*
X10064769D01*
X10077464Y8724908D01*
X10102856Y8712212D02*
X10128248D01*
X10115552D01*
Y8788388D01*
X10102856Y8775692D01*
X10166336D02*
X10179032Y8788388D01*
X10204424D01*
X10217119Y8775692D01*
Y8724908D01*
X10204424Y8712212D01*
X10179032D01*
X10166336Y8724908D01*
Y8775692D01*
X9423408Y7493004D02*
X9410712Y7480309D01*
Y7454917D01*
X9423408Y7442221D01*
X9474191D01*
X9486887Y7454917D01*
Y7480309D01*
X9474191Y7493004D01*
X9410712Y7518396D02*
Y7569180D01*
X9423408D01*
X9474191Y7518396D01*
X9486887D01*
X9702808Y7035804D02*
X9690112Y7023108D01*
Y6997717D01*
X9702808Y6985021D01*
X9753592D01*
X9766288Y6997717D01*
Y7023108D01*
X9753592Y7035804D01*
X9690112Y7111979D02*
X9702808Y7086588D01*
X9728200Y7061196D01*
X9753592D01*
X9766288Y7073892D01*
Y7099284D01*
X9753592Y7111979D01*
X9740896D01*
X9728200Y7099284D01*
Y7061196D01*
X9563108Y7035804D02*
X9550412Y7023108D01*
Y6997717D01*
X9563108Y6985021D01*
X9613892D01*
X9626588Y6997717D01*
Y7023108D01*
X9613892Y7035804D01*
X9550412Y7111979D02*
Y7061196D01*
X9588500D01*
X9575804Y7086588D01*
Y7099284D01*
X9588500Y7111979D01*
X9613892D01*
X9626588Y7099284D01*
Y7073892D01*
X9613892Y7061196D01*
X10370672Y8385605D02*
X10357976Y8398300D01*
X10332584D01*
X10319888Y8385605D01*
Y8334821D01*
X10332584Y8322125D01*
X10357976D01*
X10370672Y8334821D01*
X10434151Y8322125D02*
Y8398300D01*
X10396064Y8360213D01*
X10446847D01*
X9916145Y6752302D02*
X9903449Y6764998D01*
X9878057D01*
X9865362Y6752302D01*
Y6701518D01*
X9878057Y6688823D01*
X9903449D01*
X9916145Y6701518D01*
X9941537Y6752302D02*
X9954233Y6764998D01*
X9979625D01*
X9992320Y6752302D01*
Y6739606D01*
X9979625Y6726910D01*
X9966929D01*
X9979625D01*
X9992320Y6714214D01*
Y6701518D01*
X9979625Y6688823D01*
X9954233D01*
X9941537Y6701518D01*
X10328834Y8267692D02*
X10316138Y8280388D01*
X10290746D01*
X10278050Y8267692D01*
Y8216908D01*
X10290746Y8204212D01*
X10316138D01*
X10328834Y8216908D01*
X10405009Y8204212D02*
X10354225D01*
X10405009Y8254996D01*
Y8267692D01*
X10392313Y8280388D01*
X10366921D01*
X10354225Y8267692D01*
X10744200Y6769092D02*
X10731504Y6781788D01*
X10706112D01*
X10693417Y6769092D01*
Y6718308D01*
X10706112Y6705612D01*
X10731504D01*
X10744200Y6718308D01*
X10769592Y6705612D02*
X10794984D01*
X10782288D01*
Y6781788D01*
X10769592Y6769092D01*
D54*
X9813800Y9683600D02*
G03*
X9813800Y9683600I-12500J0D01*
G01*
D55*
X10192200Y9473500D02*
X10209700D01*
X10389700D02*
X10407200D01*
X10389700Y9703500D02*
X10407200D01*
X10192200D02*
X10257200D01*
D56*
X8478185Y6290110D02*
X8657790Y6469715D01*
X9376210Y5751295D01*
X8478185Y6290110D02*
X9196605Y5571690D01*
X9376210Y5751295D01*
X12166600Y9080500D02*
Y9334500D01*
X10896600Y9080500D02*
X12166600D01*
X10896600Y9334500D02*
X12166600D01*
X10896600Y9080500D02*
Y9334500D01*
D57*
X9401810Y6577719D02*
X9486449Y6493080D01*
X9401810D02*
X9486449Y6577719D01*
X9401810Y6535399D02*
X9486449D01*
X9444130Y6493080D02*
Y6577719D01*
%TF.MD5,514d32a383c4d9750d80e84c3ae27d60*%
M02*
