%TF.GenerationSoftware,Altium Limited,Altium Designer,25.0.2 (28)*%
G04 Layer_Color=128*
%FSLAX45Y45*%
%MOMM*%
%TF.SameCoordinates,35A56F3A-7D9F-4CF9-8D97-DF5CB8944ECC*%
%TF.FilePolarity,Positive*%
%TF.FileFunction,Drillmap*%
%TF.Part,Single*%
G01*
G75*
%TA.AperFunction,NonConductor*%
%ADD59C,0.12700*%
D59*
X11014007Y6836439D02*
X11034327D01*
X11024167Y6826279D02*
Y6846599D01*
X10861040Y7035800D02*
X10881360D01*
X10871200Y7025640D02*
Y7045960D01*
X10200640Y7035800D02*
X10220960D01*
X10210800Y7025640D02*
Y7045960D01*
X10035540Y7264400D02*
X10055860D01*
X10045700Y7254240D02*
Y7274560D01*
X10048240Y7861300D02*
X10068560D01*
X10058400Y7851140D02*
Y7871460D01*
X10060940Y7937500D02*
X10081260D01*
X10071100Y7927340D02*
Y7947660D01*
X10937240Y7861300D02*
X10957560D01*
X10947400Y7851140D02*
Y7871460D01*
X11292840Y8877300D02*
X11313160D01*
X11303000Y8867140D02*
Y8887460D01*
X11254740Y8813800D02*
X11275060D01*
X11264900Y8803640D02*
Y8823960D01*
X10086340Y6629400D02*
X10106660D01*
X10096500Y6619240D02*
Y6639560D01*
X10162540Y6629400D02*
X10182860D01*
X10172700Y6619240D02*
Y6639560D01*
X9552940Y5956300D02*
X9573260D01*
X9563100Y5946140D02*
Y5966460D01*
X9476740Y5956300D02*
X9497060D01*
X9486900Y5946140D02*
Y5966460D01*
X12219940Y6870700D02*
X12240260D01*
X12230100Y6860540D02*
Y6880860D01*
X12296140Y6870700D02*
X12316460D01*
X12306300Y6860540D02*
Y6880860D01*
X11102907Y6836439D02*
X11123227D01*
X11113067Y6826279D02*
Y6846599D01*
X11229340Y8013700D02*
X11249660D01*
X11239500Y8003540D02*
Y8023860D01*
X11140440Y8013700D02*
X11160760D01*
X11150600Y8003540D02*
Y8023860D01*
X10048240Y8572500D02*
X10068560D01*
X10058400Y8562340D02*
Y8582660D01*
X9972040Y8572500D02*
X9992360D01*
X9982200Y8562340D02*
Y8582660D01*
X9235440Y7366000D02*
X9255760D01*
X9245600Y7355840D02*
Y7376160D01*
X9311640Y7315200D02*
X9331960D01*
X9321800Y7305040D02*
Y7325360D01*
%TF.MD5,9d3d6308fe12de7fca74d48024d85a1e*%
M02*
