%TF.GenerationSoftware,Altium Limited,Altium Designer,25.0.2 (28)*%
G04 Layer_Physical_Order=2*
G04 Layer_Color=36540*
%FSLAX45Y45*%
%MOMM*%
%TF.SameCoordinates,35A56F3A-7D9F-4CF9-8D97-DF5CB8944ECC*%
%TF.FilePolarity,Positive*%
%TF.FileFunction,Copper,L2,Inr,Signal*%
%TF.Part,Single*%
G01*
G75*
%TA.AperFunction,Conductor*%
%ADD35C,0.25400*%
%TA.AperFunction,ComponentPad*%
%ADD39C,1.30000*%
%ADD40P,2.12132X4X180.0*%
%ADD41C,1.50000*%
%ADD42R,1.50000X1.50000*%
%TA.AperFunction,ViaPad*%
%ADD43C,0.50800*%
%ADD44C,0.60000*%
G36*
X10728388Y9915922D02*
X10861076Y9900972D01*
X10992723Y9878604D01*
X11122906Y9848891D01*
X11251214Y9811926D01*
X11377254Y9767822D01*
X11500620Y9716723D01*
X11620927Y9658785D01*
X11737796Y9594194D01*
X11850863Y9523150D01*
X11959761Y9445882D01*
X12064162Y9362625D01*
X12163724Y9273651D01*
X12258149Y9179227D01*
X12347123Y9079664D01*
X12430382Y8975261D01*
X12507653Y8866358D01*
X12578694Y8753296D01*
X12643286Y8636426D01*
X12701221Y8516122D01*
X12752322Y8392754D01*
X12796426Y8266714D01*
X12833391Y8138405D01*
X12863104Y8008223D01*
X12885472Y7876575D01*
X12900423Y7743888D01*
X12907909Y7610564D01*
Y7543800D01*
Y7477036D01*
X12900423Y7343712D01*
X12885472Y7211024D01*
X12863104Y7079377D01*
X12833391Y6949194D01*
X12796426Y6820886D01*
X12783115Y6782846D01*
X11010900D01*
X11001180Y6778820D01*
X10997154Y6769100D01*
Y5867400D01*
X11001180Y5857680D01*
X11010900Y5853654D01*
X12186836D01*
X12191696Y5841920D01*
X12163727Y5813951D01*
X12064164Y5724977D01*
X11959761Y5641718D01*
X11850858Y5564447D01*
X11737796Y5493406D01*
X11620926Y5428814D01*
X11500622Y5370878D01*
X11377254Y5319778D01*
X11251214Y5275674D01*
X11122905Y5238709D01*
X10992723Y5208996D01*
X10861075Y5186628D01*
X10728388Y5171678D01*
X10595064Y5164191D01*
X10461536D01*
X10328212Y5171678D01*
X10244565Y5181102D01*
X10245278Y5193802D01*
X10551116D01*
X10557518Y5187400D01*
X10571521Y5181600D01*
X10586679D01*
X10600682Y5187400D01*
X10611400Y5198118D01*
X10617200Y5212121D01*
Y5227279D01*
X10611400Y5241282D01*
X10600682Y5252000D01*
X10586679Y5257800D01*
X10571521D01*
X10557518Y5252000D01*
X10551116Y5245598D01*
X10246927D01*
X9962413Y5530112D01*
X9954011Y5535726D01*
X9944100Y5537698D01*
X9630279D01*
X9623112Y5536272D01*
X9610809Y5548575D01*
X9593091Y5558805D01*
X9573329Y5564100D01*
X9552871D01*
X9533109Y5558805D01*
X9515391Y5548575D01*
X9500925Y5534109D01*
X9490695Y5516391D01*
X9485400Y5496629D01*
Y5476171D01*
X9490695Y5456409D01*
X9500925Y5438691D01*
X9515391Y5424225D01*
X9533109Y5413995D01*
X9552871Y5408700D01*
X9573329D01*
X9593091Y5413995D01*
X9610809Y5424225D01*
X9625275Y5438691D01*
X9635505Y5456409D01*
X9640800Y5476171D01*
Y5485902D01*
X9933373D01*
X10217888Y5201388D01*
X10226289Y5195774D01*
X10223590Y5183466D01*
X10195524Y5186628D01*
X10063877Y5208996D01*
X9933694Y5238709D01*
X9805386Y5275674D01*
X9679345Y5319778D01*
X9555980Y5370877D01*
X9435673Y5428814D01*
X9318804Y5493406D01*
X9205737Y5564450D01*
X9096838Y5641718D01*
X8992438Y5724975D01*
X8892876Y5813948D01*
X8798451Y5908373D01*
X8709477Y6007935D01*
X8626218Y6112338D01*
X8548947Y6221241D01*
X8477906Y6334304D01*
X8413314Y6451174D01*
X8355378Y6571478D01*
X8304278Y6694845D01*
X8260174Y6820886D01*
X8223209Y6949195D01*
X8193496Y7079377D01*
X8171128Y7211025D01*
X8156178Y7343712D01*
X8148691Y7477036D01*
Y7543800D01*
Y7610564D01*
X8156178Y7743888D01*
X8171128Y7876576D01*
X8193496Y8008223D01*
X8223209Y8138406D01*
X8260174Y8266714D01*
X8304278Y8392754D01*
X8355377Y8516120D01*
X8413314Y8636427D01*
X8477906Y8753296D01*
X8548950Y8866363D01*
X8626218Y8975261D01*
X8709475Y9079662D01*
X8798448Y9179224D01*
X8892873Y9273649D01*
X8992435Y9362623D01*
X9096838Y9445882D01*
X9205741Y9523153D01*
X9318804Y9594194D01*
X9435674Y9658786D01*
X9555978Y9716721D01*
X9679345Y9767822D01*
X9805386Y9811926D01*
X9933695Y9848891D01*
X10063877Y9878604D01*
X10195525Y9900972D01*
X10328211Y9915922D01*
X10461536Y9923409D01*
X10595064D01*
X10728388Y9915922D01*
D02*
G37*
%LPC*%
G36*
X10497779Y9652000D02*
X10482621D01*
X10468618Y9646200D01*
X10457900Y9635482D01*
X10452100Y9621479D01*
Y9606321D01*
X10457900Y9592318D01*
X10468618Y9581600D01*
X10482621Y9575800D01*
X10497779D01*
X10511782Y9581600D01*
X10522500Y9592318D01*
X10528300Y9606321D01*
Y9621479D01*
X10522500Y9635482D01*
X10511782Y9646200D01*
X10497779Y9652000D01*
D02*
G37*
G36*
X11122729Y9602700D02*
X11102271D01*
X11082509Y9597405D01*
X11064791Y9587175D01*
X11050325Y9572709D01*
X11040095Y9554991D01*
X11034800Y9535229D01*
Y9514771D01*
X11040095Y9495009D01*
X11050325Y9477291D01*
X11064791Y9462825D01*
X11082509Y9452595D01*
X11102271Y9447300D01*
X11122729D01*
X11142491Y9452595D01*
X11160209Y9462825D01*
X11174675Y9477291D01*
X11184905Y9495009D01*
X11190200Y9514771D01*
Y9535229D01*
X11184905Y9554991D01*
X11174675Y9572709D01*
X11160209Y9587175D01*
X11142491Y9597405D01*
X11122729Y9602700D01*
D02*
G37*
G36*
X11503729Y9590000D02*
X11483271D01*
X11463509Y9584705D01*
X11445791Y9574475D01*
X11431325Y9560009D01*
X11421095Y9542291D01*
X11415800Y9522529D01*
Y9502071D01*
X11421095Y9482309D01*
X11431325Y9464591D01*
X11432945Y9462970D01*
X11366559Y9396584D01*
X10983586D01*
X10973676Y9394612D01*
X10965274Y9388998D01*
X10890988Y9314712D01*
X10885374Y9306311D01*
X10883402Y9296400D01*
Y8689673D01*
X10870702Y8682979D01*
X10861479Y8686800D01*
X10846321D01*
X10832318Y8681000D01*
X10825916Y8674598D01*
X10653153D01*
X10643242Y8672626D01*
X10634840Y8667012D01*
X10432057Y8464229D01*
X10426858Y8464953D01*
X10419357Y8468703D01*
Y8574776D01*
X10420900Y8576318D01*
X10426700Y8590321D01*
Y8605479D01*
X10420900Y8619482D01*
X10410182Y8630200D01*
X10396179Y8636000D01*
X10381021D01*
X10367018Y8630200D01*
X10356300Y8619482D01*
X10350500Y8605479D01*
Y8590321D01*
X10356300Y8576318D01*
X10367018Y8565600D01*
X10367562Y8565375D01*
Y8237440D01*
X10369533Y8227530D01*
X10375147Y8219128D01*
X10408388Y8185888D01*
X10416789Y8180274D01*
X10426700Y8178302D01*
X10754316D01*
X10760718Y8171900D01*
X10774721Y8166100D01*
X10789879D01*
X10803882Y8171900D01*
X10814600Y8182618D01*
X10820400Y8196621D01*
Y8211779D01*
X10814600Y8225782D01*
X10803882Y8236500D01*
X10789879Y8242300D01*
X10774721D01*
X10760718Y8236500D01*
X10754316Y8230098D01*
X10651440D01*
X10646179Y8242798D01*
X10649500Y8246118D01*
X10655300Y8260121D01*
Y8269175D01*
X10666027Y8279902D01*
X10754316D01*
X10760718Y8273500D01*
X10774721Y8267700D01*
X10789879D01*
X10803882Y8273500D01*
X10814600Y8284218D01*
X10820400Y8298221D01*
Y8313379D01*
X10814600Y8327382D01*
X10803882Y8338100D01*
X10789879Y8343900D01*
X10774721D01*
X10760718Y8338100D01*
X10754316Y8331698D01*
X10655300D01*
X10645389Y8329726D01*
X10636988Y8324112D01*
X10618675Y8305800D01*
X10609621D01*
X10595618Y8300000D01*
X10584900Y8289282D01*
X10579100Y8275279D01*
Y8260121D01*
X10584900Y8246118D01*
X10588221Y8242798D01*
X10582960Y8230098D01*
X10437427D01*
X10419357Y8248167D01*
Y8337329D01*
X10432058Y8345815D01*
X10436681Y8343900D01*
X10451838D01*
X10465842Y8349700D01*
X10476559Y8360418D01*
X10482360Y8374421D01*
Y8389579D01*
X10479093Y8397465D01*
X10489860Y8404659D01*
X10494018Y8400500D01*
X10508021Y8394700D01*
X10521935D01*
X10526416Y8390626D01*
X10531398Y8384358D01*
X10528300Y8376879D01*
Y8361721D01*
X10534100Y8347718D01*
X10544818Y8337000D01*
X10558821Y8331200D01*
X10573979D01*
X10587982Y8337000D01*
X10598700Y8347718D01*
X10604500Y8361721D01*
Y8364285D01*
X10635147Y8394931D01*
X10739163D01*
X10745566Y8388529D01*
X10759569Y8382729D01*
X10774726D01*
X10788729Y8388529D01*
X10794403Y8394202D01*
X10894421D01*
X10904332Y8396174D01*
X10912733Y8401788D01*
X10927612Y8416667D01*
X10933226Y8425068D01*
X10935198Y8434979D01*
Y9159818D01*
X10947898Y9163221D01*
X10953423Y9153651D01*
X10969751Y9137323D01*
X10989749Y9125777D01*
X11012054Y9119800D01*
X11035146D01*
X11057451Y9125777D01*
X11077449Y9137323D01*
X11093777Y9153651D01*
X11105323Y9173649D01*
X11111300Y9195954D01*
Y9219046D01*
X11105323Y9241351D01*
X11093777Y9261349D01*
X11077449Y9277677D01*
X11057451Y9289223D01*
X11035146Y9295200D01*
X11012054D01*
X10989749Y9289223D01*
X10969751Y9277677D01*
X10953423Y9261349D01*
X10947898Y9251779D01*
X10935198Y9255182D01*
Y9285673D01*
X10994313Y9344789D01*
X11377286D01*
X11387197Y9346760D01*
X11395598Y9352374D01*
X11478976Y9435751D01*
X11483271Y9434600D01*
X11503729D01*
X11523491Y9439895D01*
X11541209Y9450125D01*
X11555675Y9464591D01*
X11565905Y9482309D01*
X11571200Y9502071D01*
Y9522529D01*
X11565905Y9542291D01*
X11555675Y9560009D01*
X11541209Y9574475D01*
X11523491Y9584705D01*
X11503729Y9590000D01*
D02*
G37*
G36*
X9446329Y9564600D02*
X9425871D01*
X9406109Y9559305D01*
X9388391Y9549075D01*
X9373925Y9534609D01*
X9363695Y9516891D01*
X9358400Y9497129D01*
Y9476671D01*
X9363695Y9456909D01*
X9373925Y9439191D01*
X9388391Y9424725D01*
X9406109Y9414495D01*
X9425871Y9409200D01*
X9446329D01*
X9466091Y9414495D01*
X9483809Y9424725D01*
X9498275Y9439191D01*
X9508505Y9456909D01*
X9513800Y9476671D01*
Y9497129D01*
X9508505Y9516891D01*
X9498275Y9534609D01*
X9483809Y9549075D01*
X9466091Y9559305D01*
X9446329Y9564600D01*
D02*
G37*
G36*
X10510479Y9169400D02*
X10495321D01*
X10481318Y9163600D01*
X10472118Y9154399D01*
X10464800Y9153553D01*
X10457482Y9154399D01*
X10448282Y9163600D01*
X10434279Y9169400D01*
X10419121D01*
X10405118Y9163600D01*
X10394400Y9152882D01*
X10388600Y9138879D01*
Y9123721D01*
X10394400Y9109718D01*
X10405118Y9099000D01*
X10419121Y9093200D01*
X10434279D01*
X10448282Y9099000D01*
X10457482Y9108201D01*
X10464800Y9109047D01*
X10472118Y9108201D01*
X10481318Y9099000D01*
X10495321Y9093200D01*
X10510479D01*
X10524482Y9099000D01*
X10535200Y9109718D01*
X10541000Y9123721D01*
Y9138879D01*
X10535200Y9152882D01*
X10524482Y9163600D01*
X10510479Y9169400D01*
D02*
G37*
G36*
X11658600Y9360398D02*
X11468100D01*
X11458189Y9358426D01*
X11449788Y9352812D01*
X11386288Y9289312D01*
X11380674Y9280911D01*
X11378702Y9271000D01*
Y9103927D01*
X11189198Y8914422D01*
X11176498Y8919683D01*
Y9069773D01*
X11236618Y9129894D01*
X11243749Y9125777D01*
X11266054Y9119800D01*
X11289146D01*
X11311451Y9125777D01*
X11331449Y9137323D01*
X11347777Y9153651D01*
X11359323Y9173649D01*
X11365300Y9195954D01*
Y9219046D01*
X11359323Y9241351D01*
X11347777Y9261349D01*
X11331449Y9277677D01*
X11311451Y9289223D01*
X11289146Y9295200D01*
X11266054D01*
X11243749Y9289223D01*
X11223751Y9277677D01*
X11207423Y9261349D01*
X11195877Y9241351D01*
X11189900Y9219046D01*
Y9195954D01*
X11195877Y9173649D01*
X11199994Y9166518D01*
X11132288Y9098812D01*
X11126674Y9090411D01*
X11124702Y9080500D01*
Y8883871D01*
X11112002Y8875385D01*
X11107379Y8877300D01*
X11092221D01*
X11078218Y8871500D01*
X11067500Y8860782D01*
X11061700Y8846779D01*
Y8831621D01*
X11067500Y8817618D01*
X11078218Y8806900D01*
X11092221Y8801100D01*
X11107379D01*
X11112002Y8803015D01*
X11124702Y8794529D01*
Y8583227D01*
X10992103Y8450628D01*
X10986489Y8442226D01*
X10984518Y8432316D01*
Y8146862D01*
X10978116Y8140460D01*
X10972316Y8126456D01*
Y8111299D01*
X10978116Y8097296D01*
X10988834Y8086578D01*
X11002837Y8080778D01*
X11017994D01*
X11027210Y8084595D01*
X11034404Y8073828D01*
X10619173Y7658598D01*
X10181664D01*
X10163849Y7676412D01*
X10155447Y7682026D01*
X10145537Y7683998D01*
X9870455D01*
X9860545Y7682026D01*
X9852143Y7676412D01*
X9821628Y7645898D01*
X9743484D01*
X9737082Y7652300D01*
X9723079Y7658100D01*
X9707921D01*
X9693918Y7652300D01*
X9683200Y7641582D01*
X9677400Y7627579D01*
Y7612421D01*
X9683200Y7598418D01*
X9693918Y7587700D01*
X9707921Y7581900D01*
X9723079D01*
X9737082Y7587700D01*
X9743484Y7594102D01*
X9832355D01*
X9842266Y7596074D01*
X9850668Y7601688D01*
X9881182Y7632202D01*
X10134810D01*
X10152624Y7614388D01*
X10161026Y7608774D01*
X10170937Y7606802D01*
X10629900D01*
X10639811Y7608774D01*
X10648212Y7614388D01*
X10896600Y7862775D01*
X10909300Y7857515D01*
Y7853721D01*
X10915100Y7839718D01*
X10925818Y7829000D01*
X10939821Y7823200D01*
X10954979D01*
X10968982Y7829000D01*
X10979700Y7839718D01*
X10985500Y7853721D01*
Y7868879D01*
X10979700Y7882882D01*
X10968982Y7893600D01*
X10954979Y7899400D01*
X10951185D01*
X10945925Y7912100D01*
X11219712Y8185888D01*
X11225326Y8194289D01*
X11227298Y8204200D01*
Y8779560D01*
X11239998Y8784821D01*
X11243318Y8781500D01*
X11257321Y8775700D01*
X11272479D01*
X11277102Y8777615D01*
X11289802Y8769129D01*
Y8022480D01*
X11277600Y8021279D01*
X11271800Y8035282D01*
X11261082Y8046000D01*
X11247079Y8051800D01*
X11231921D01*
X11217918Y8046000D01*
X11207200Y8035282D01*
X11201400Y8021279D01*
Y8006121D01*
X11207200Y7992118D01*
X11217918Y7981400D01*
X11231921Y7975600D01*
X11247079D01*
X11261082Y7981400D01*
X11271800Y7992118D01*
X11277600Y8006121D01*
X11289802Y8004920D01*
Y7946863D01*
X11291774Y7936952D01*
X11297388Y7928550D01*
X11316655Y7909283D01*
X11315700Y7906979D01*
Y7891821D01*
X11321500Y7877818D01*
X11332218Y7867100D01*
X11346221Y7861300D01*
X11361379D01*
X11375382Y7867100D01*
X11386100Y7877818D01*
X11391900Y7891821D01*
Y7906979D01*
X11386100Y7920982D01*
X11375382Y7931700D01*
X11361906Y7937282D01*
X11341598Y7957590D01*
Y8385920D01*
X11353800Y8387121D01*
X11359600Y8373118D01*
X11370318Y8362400D01*
X11384321Y8356600D01*
X11399479D01*
X11413482Y8362400D01*
X11419884Y8368802D01*
X12333673D01*
X12592788Y8109688D01*
X12601189Y8104074D01*
X12611100Y8102102D01*
X12626498D01*
X12627595Y8098009D01*
X12637825Y8080291D01*
X12652291Y8065825D01*
X12670009Y8055595D01*
X12689771Y8050300D01*
X12710229D01*
X12729991Y8055595D01*
X12747709Y8065825D01*
X12762175Y8080291D01*
X12772405Y8098009D01*
X12777700Y8117771D01*
Y8138229D01*
X12772405Y8157991D01*
X12762175Y8175709D01*
X12747709Y8190175D01*
X12729991Y8200405D01*
X12710229Y8205700D01*
X12689771D01*
X12670009Y8200405D01*
X12652291Y8190175D01*
X12637825Y8175709D01*
X12630560Y8163126D01*
X12617514Y8160089D01*
X12615142Y8160583D01*
X12362712Y8413012D01*
X12354311Y8418626D01*
X12344400Y8420598D01*
X11419884D01*
X11413482Y8427000D01*
X11399479Y8432800D01*
X11384321D01*
X11370318Y8427000D01*
X11359600Y8416282D01*
X11353800Y8402279D01*
X11341598Y8403480D01*
Y8790373D01*
X11549912Y8998688D01*
X11555526Y9007089D01*
X11557498Y9017000D01*
Y9123646D01*
X11565451Y9125777D01*
X11585449Y9137323D01*
X11601777Y9153651D01*
X11613323Y9173649D01*
X11619300Y9195954D01*
Y9219046D01*
X11613323Y9241351D01*
X11601777Y9261349D01*
X11585449Y9277677D01*
X11565451Y9289223D01*
X11543146Y9295200D01*
X11520054D01*
X11497749Y9289223D01*
X11477751Y9277677D01*
X11461423Y9261349D01*
X11449877Y9241351D01*
X11443900Y9219046D01*
Y9195954D01*
X11449877Y9173649D01*
X11461423Y9153651D01*
X11477751Y9137323D01*
X11497749Y9125777D01*
X11505702Y9123646D01*
Y9027727D01*
X11353800Y8875825D01*
X11341100Y8881085D01*
Y8884879D01*
X11335300Y8898882D01*
X11324582Y8909600D01*
X11310579Y8915400D01*
X11295421D01*
X11281418Y8909600D01*
X11270700Y8898882D01*
X11264900Y8884879D01*
Y8869721D01*
X11267021Y8864600D01*
X11258535Y8851900D01*
X11257321D01*
X11243318Y8846100D01*
X11239998Y8842779D01*
X11227298Y8848040D01*
Y8879273D01*
X11422912Y9074888D01*
X11428526Y9083289D01*
X11430498Y9093200D01*
Y9260273D01*
X11478827Y9308602D01*
X11647873D01*
X11707994Y9248482D01*
X11703877Y9241351D01*
X11697900Y9219046D01*
Y9195954D01*
X11703877Y9173649D01*
X11715423Y9153651D01*
X11731751Y9137323D01*
X11751749Y9125777D01*
X11774054Y9119800D01*
X11797146D01*
X11819451Y9125777D01*
X11839449Y9137323D01*
X11855777Y9153651D01*
X11867323Y9173649D01*
X11873300Y9195954D01*
Y9219046D01*
X11867323Y9241351D01*
X11855777Y9261349D01*
X11839449Y9277677D01*
X11819451Y9289223D01*
X11797146Y9295200D01*
X11774054D01*
X11751749Y9289223D01*
X11744618Y9285106D01*
X11676912Y9352812D01*
X11668511Y9358426D01*
X11658600Y9360398D01*
D02*
G37*
G36*
X9951679Y8902700D02*
X9936521D01*
X9922518Y8896900D01*
X9913318Y8887699D01*
X9906000Y8886853D01*
X9898682Y8887699D01*
X9889482Y8896900D01*
X9875479Y8902700D01*
X9860321D01*
X9846318Y8896900D01*
X9835600Y8886182D01*
X9829800Y8872179D01*
Y8857021D01*
X9835600Y8843018D01*
X9846318Y8832300D01*
X9860321Y8826500D01*
X9875479D01*
X9889482Y8832300D01*
X9898682Y8841501D01*
X9906000Y8842347D01*
X9913318Y8841501D01*
X9922518Y8832300D01*
X9936521Y8826500D01*
X9951679D01*
X9965682Y8832300D01*
X9976400Y8843018D01*
X9982200Y8857021D01*
Y8872179D01*
X9976400Y8886182D01*
X9965682Y8896900D01*
X9951679Y8902700D01*
D02*
G37*
G36*
X11018479Y8877300D02*
X11003321D01*
X10989318Y8871500D01*
X10978600Y8860782D01*
X10972800Y8846779D01*
Y8831621D01*
X10978600Y8817618D01*
X10989318Y8806900D01*
X11003321Y8801100D01*
X11018479D01*
X11032482Y8806900D01*
X11043200Y8817618D01*
X11049000Y8831621D01*
Y8846779D01*
X11043200Y8860782D01*
X11032482Y8871500D01*
X11018479Y8877300D01*
D02*
G37*
G36*
X10065979Y8610600D02*
X10050821D01*
X10036818Y8604800D01*
X10027618Y8595599D01*
X10020300Y8594753D01*
X10012982Y8595599D01*
X10003782Y8604800D01*
X9989779Y8610600D01*
X9974621D01*
X9960618Y8604800D01*
X9949900Y8594082D01*
X9944100Y8580079D01*
Y8564921D01*
X9949900Y8550918D01*
X9960618Y8540200D01*
X9974621Y8534400D01*
X9989779D01*
X10003782Y8540200D01*
X10012982Y8549401D01*
X10020300Y8550247D01*
X10027618Y8549401D01*
X10036818Y8540200D01*
X10050821Y8534400D01*
X10065979D01*
X10079982Y8540200D01*
X10090700Y8550918D01*
X10096500Y8564921D01*
Y8580079D01*
X10090700Y8594082D01*
X10079982Y8604800D01*
X10065979Y8610600D01*
D02*
G37*
G36*
X10307279Y8267700D02*
X10292121D01*
X10278118Y8261900D01*
X10271716Y8255498D01*
X9969500D01*
X9959589Y8253526D01*
X9951188Y8247912D01*
X9793673Y8090398D01*
X9705384D01*
X9698982Y8096800D01*
X9684979Y8102600D01*
X9669821D01*
X9655818Y8096800D01*
X9645100Y8086082D01*
X9639300Y8072079D01*
Y8056921D01*
X9645100Y8042918D01*
X9655818Y8032200D01*
X9669821Y8026400D01*
X9684979D01*
X9698982Y8032200D01*
X9705384Y8038602D01*
X9804400D01*
X9814311Y8040574D01*
X9822712Y8046188D01*
X9980227Y8203702D01*
X10271716D01*
X10278118Y8197300D01*
X10292121Y8191500D01*
X10307279D01*
X10321282Y8197300D01*
X10332000Y8208018D01*
X10337800Y8222021D01*
Y8237179D01*
X10332000Y8251182D01*
X10321282Y8261900D01*
X10307279Y8267700D01*
D02*
G37*
G36*
X11158179Y8051800D02*
X11143021D01*
X11129018Y8046000D01*
X11118300Y8035282D01*
X11112500Y8021279D01*
Y8006121D01*
X11118300Y7992118D01*
X11129018Y7981400D01*
X11143021Y7975600D01*
X11158179D01*
X11172182Y7981400D01*
X11182900Y7992118D01*
X11188700Y8006121D01*
Y8021279D01*
X11182900Y8035282D01*
X11172182Y8046000D01*
X11158179Y8051800D01*
D02*
G37*
G36*
X10078679Y7975600D02*
X10063521D01*
X10049518Y7969800D01*
X10038800Y7959082D01*
X10033000Y7945079D01*
Y7929921D01*
X10038800Y7915918D01*
X10044281Y7910437D01*
X10041841Y7895680D01*
X10036818Y7893600D01*
X10026100Y7882882D01*
X10020300Y7868879D01*
Y7853721D01*
X10026100Y7839718D01*
X10036818Y7829000D01*
X10050821Y7823200D01*
X10065979D01*
X10079982Y7829000D01*
X10090700Y7839718D01*
X10096500Y7853721D01*
Y7868879D01*
X10090700Y7882882D01*
X10085219Y7888363D01*
X10087659Y7903120D01*
X10092682Y7905200D01*
X10103400Y7915918D01*
X10109200Y7929921D01*
Y7945079D01*
X10103400Y7959082D01*
X10092682Y7969800D01*
X10078679Y7975600D01*
D02*
G37*
G36*
X12735629Y7812000D02*
X12715171D01*
X12695409Y7806705D01*
X12677691Y7796475D01*
X12663225Y7782009D01*
X12652995Y7764291D01*
X12647700Y7744529D01*
Y7724071D01*
X12652995Y7704309D01*
X12663225Y7686591D01*
X12677691Y7672125D01*
X12695409Y7661895D01*
X12715171Y7656600D01*
X12735629D01*
X12755391Y7661895D01*
X12773109Y7672125D01*
X12787575Y7686591D01*
X12797805Y7704309D01*
X12803101Y7724071D01*
Y7744529D01*
X12797805Y7764291D01*
X12787575Y7782009D01*
X12773109Y7796475D01*
X12755391Y7806705D01*
X12735629Y7812000D01*
D02*
G37*
G36*
X8328729Y8002500D02*
X8308271D01*
X8288509Y7997205D01*
X8270791Y7986975D01*
X8256325Y7972509D01*
X8246095Y7954791D01*
X8240800Y7935029D01*
Y7914571D01*
X8246095Y7894809D01*
X8256325Y7877091D01*
X8270791Y7862625D01*
X8288509Y7852395D01*
X8308271Y7847100D01*
X8328729D01*
X8348491Y7852395D01*
X8352161Y7854514D01*
X8662378Y7544298D01*
X8657117Y7531598D01*
X8421032D01*
X8395663Y7556967D01*
X8396200Y7558971D01*
Y7579429D01*
X8390905Y7599191D01*
X8380675Y7616909D01*
X8366209Y7631375D01*
X8348491Y7641605D01*
X8328729Y7646900D01*
X8308271D01*
X8288509Y7641605D01*
X8270791Y7631375D01*
X8256325Y7616909D01*
X8246095Y7599191D01*
X8240800Y7579429D01*
Y7558971D01*
X8246095Y7539209D01*
X8256325Y7521491D01*
X8270791Y7507025D01*
X8288509Y7496795D01*
X8308271Y7491500D01*
X8328729D01*
X8348491Y7496795D01*
X8366209Y7507025D01*
X8369282Y7510098D01*
X8391992Y7487388D01*
X8400394Y7481774D01*
X8410305Y7479802D01*
X9004289D01*
X9009403Y7474688D01*
X9017805Y7469074D01*
X9022712Y7468098D01*
X9021462Y7455398D01*
X8534400D01*
X8524489Y7453426D01*
X8516088Y7447812D01*
X8352161Y7283886D01*
X8348491Y7286005D01*
X8328729Y7291300D01*
X8308271D01*
X8288509Y7286005D01*
X8270791Y7275775D01*
X8256325Y7261309D01*
X8246095Y7243591D01*
X8240800Y7223829D01*
Y7203371D01*
X8246095Y7183609D01*
X8256325Y7165891D01*
X8270791Y7151425D01*
X8288509Y7141195D01*
X8308271Y7135900D01*
X8328729D01*
X8348491Y7141195D01*
X8366209Y7151425D01*
X8380675Y7165891D01*
X8390905Y7183609D01*
X8396200Y7203371D01*
Y7223829D01*
X8390905Y7243591D01*
X8388786Y7247261D01*
X8545127Y7403602D01*
X9211360D01*
X9216621Y7390902D01*
X9213300Y7387582D01*
X9207500Y7373579D01*
Y7358421D01*
X9213300Y7344418D01*
X9224018Y7333700D01*
X9238021Y7327900D01*
X9253179D01*
X9267182Y7333700D01*
X9277900Y7344418D01*
X9283700Y7358421D01*
Y7373579D01*
X9277900Y7387582D01*
X9274579Y7390902D01*
X9279840Y7403602D01*
X9712916D01*
X9719318Y7397200D01*
X9733321Y7391400D01*
X9748479D01*
X9762482Y7397200D01*
X9773200Y7407918D01*
X9779000Y7421921D01*
Y7437079D01*
X9773200Y7451082D01*
X9762482Y7461800D01*
X9748479Y7467600D01*
X9733321D01*
X9719318Y7461800D01*
X9712916Y7455398D01*
X9660840D01*
X9655579Y7468098D01*
X9658900Y7471418D01*
X9664700Y7485421D01*
Y7500579D01*
X9658900Y7514582D01*
X9648182Y7525300D01*
X9634179Y7531100D01*
X9619021D01*
X9605018Y7525300D01*
X9598616Y7518898D01*
X9508440D01*
X9503179Y7531598D01*
X9506500Y7534918D01*
X9512300Y7548921D01*
Y7564079D01*
X9506500Y7578082D01*
X9495782Y7588800D01*
X9481779Y7594600D01*
X9466621D01*
X9452618Y7588800D01*
X9446216Y7582398D01*
X8697527D01*
X8388786Y7891139D01*
X8390905Y7894809D01*
X8396200Y7914571D01*
Y7935029D01*
X8390905Y7954791D01*
X8380675Y7972509D01*
X8366209Y7986975D01*
X8348491Y7997205D01*
X8328729Y8002500D01*
D02*
G37*
G36*
X9329379Y7353300D02*
X9314221D01*
X9300218Y7347500D01*
X9289500Y7336782D01*
X9283700Y7322779D01*
Y7307621D01*
X9289500Y7293618D01*
X9300218Y7282900D01*
X9314221Y7277100D01*
X9329379D01*
X9343382Y7282900D01*
X9354100Y7293618D01*
X9359900Y7307621D01*
Y7322779D01*
X9354100Y7336782D01*
X9343382Y7347500D01*
X9329379Y7353300D01*
D02*
G37*
G36*
X12301179Y7391400D02*
X12286021D01*
X12272018Y7385600D01*
X12261300Y7374882D01*
X12255500Y7360879D01*
Y7351825D01*
X12168573Y7264898D01*
X11369145D01*
X11363884Y7277598D01*
X11364599Y7278313D01*
X11371100Y7294006D01*
Y7310994D01*
X11364599Y7326687D01*
X11352587Y7338699D01*
X11336894Y7345200D01*
X11319906D01*
X11304213Y7338699D01*
X11292201Y7326687D01*
X11285700Y7310994D01*
Y7294006D01*
X11292201Y7278313D01*
X11292916Y7277598D01*
X11287655Y7264898D01*
X11247123D01*
X11237212Y7262926D01*
X11228811Y7257312D01*
X10852888Y6881389D01*
X10847274Y6872988D01*
X10845302Y6863077D01*
Y6498480D01*
X10833100Y6497279D01*
X10827300Y6511282D01*
X10816582Y6522000D01*
X10802579Y6527800D01*
X10793525D01*
X10686312Y6635012D01*
X10677911Y6640626D01*
X10668000Y6642598D01*
X10474587D01*
X10464676Y6640626D01*
X10456274Y6635012D01*
X10451159Y6629898D01*
X10289584D01*
X10283182Y6636300D01*
X10269179Y6642100D01*
X10254021D01*
X10240018Y6636300D01*
X10229300Y6625582D01*
X10223500Y6611579D01*
Y6596421D01*
X10229300Y6582418D01*
X10240018Y6571700D01*
X10254021Y6565900D01*
X10252820Y6553698D01*
X9232900D01*
X9222989Y6551726D01*
X9214588Y6546112D01*
X9107375Y6438900D01*
X9098321D01*
X9084318Y6433100D01*
X9073600Y6422382D01*
X9067800Y6408379D01*
Y6393221D01*
X9073600Y6379218D01*
X9084318Y6368500D01*
X9098321Y6362700D01*
X9113479D01*
X9127482Y6368500D01*
X9138200Y6379218D01*
X9144000Y6393221D01*
Y6402275D01*
X9243627Y6501902D01*
X10151160D01*
X10156421Y6489202D01*
X10153100Y6485882D01*
X10147300Y6471879D01*
Y6456721D01*
X10153100Y6442718D01*
X10163818Y6432000D01*
X10177821Y6426200D01*
X10176620Y6413998D01*
X9829205D01*
X9819295Y6412026D01*
X9810893Y6406412D01*
X9704178Y6299698D01*
X9146584D01*
X9140182Y6306100D01*
X9126179Y6311900D01*
X9111021D01*
X9097018Y6306100D01*
X9086300Y6295382D01*
X9080500Y6281379D01*
Y6266221D01*
X9086300Y6252218D01*
X9097018Y6241500D01*
X9111021Y6235700D01*
X9126179D01*
X9140182Y6241500D01*
X9146584Y6247902D01*
X9714905D01*
X9724816Y6249874D01*
X9733218Y6255488D01*
X9839932Y6362202D01*
X10439400D01*
X10449311Y6364174D01*
X10457712Y6369788D01*
X10579100Y6491175D01*
X10591800Y6485915D01*
Y6482121D01*
X10597600Y6468118D01*
X10604002Y6461716D01*
Y6335327D01*
X10568373Y6299698D01*
X10547571D01*
X10539085Y6312398D01*
X10541000Y6317021D01*
Y6332179D01*
X10535200Y6346182D01*
X10524482Y6356900D01*
X10510479Y6362700D01*
X10495321D01*
X10481318Y6356900D01*
X10470600Y6346182D01*
X10464800Y6332179D01*
Y6317021D01*
X10466715Y6312398D01*
X10458229Y6299698D01*
X10287000D01*
X10277089Y6297726D01*
X10268688Y6292112D01*
X10250375Y6273800D01*
X10241321D01*
X10227318Y6268000D01*
X10216600Y6257282D01*
X10210800Y6243279D01*
Y6228121D01*
X10216600Y6214118D01*
X10227318Y6203400D01*
X10241321Y6197600D01*
X10256479D01*
X10270482Y6203400D01*
X10281200Y6214118D01*
X10287000Y6228121D01*
Y6237175D01*
X10297727Y6247902D01*
X10579100D01*
X10589011Y6249874D01*
X10597412Y6255488D01*
X10648212Y6306288D01*
X10653826Y6314689D01*
X10655798Y6324600D01*
Y6461716D01*
X10662200Y6468118D01*
X10668000Y6482121D01*
Y6497279D01*
X10662200Y6511282D01*
X10651482Y6522000D01*
X10646459Y6524080D01*
X10644019Y6538837D01*
X10649500Y6544318D01*
X10655300Y6558321D01*
Y6573479D01*
X10654355Y6575759D01*
X10665122Y6582953D01*
X10756900Y6491175D01*
Y6482121D01*
X10762700Y6468118D01*
X10773418Y6457400D01*
X10787421Y6451600D01*
X10802579D01*
X10816582Y6457400D01*
X10827300Y6468118D01*
X10833100Y6482121D01*
X10845302Y6480920D01*
Y6309927D01*
X10834575Y6299200D01*
X10825521D01*
X10811518Y6293400D01*
X10800800Y6282682D01*
X10795000Y6268679D01*
Y6253521D01*
X10800800Y6239518D01*
X10811518Y6228800D01*
X10825521Y6223000D01*
X10840679D01*
X10854682Y6228800D01*
X10865400Y6239518D01*
X10871200Y6253521D01*
X10883402Y6252320D01*
Y6195627D01*
X10847275Y6159500D01*
X10838221D01*
X10824218Y6153700D01*
X10813500Y6142982D01*
X10807700Y6128979D01*
Y6113821D01*
X10813500Y6099818D01*
X10824218Y6089100D01*
X10838221Y6083300D01*
X10853379D01*
X10867382Y6089100D01*
X10878100Y6099818D01*
X10883900Y6113821D01*
Y6122875D01*
X10909769Y6148744D01*
X10921502Y6143884D01*
Y5903527D01*
X10847275Y5829300D01*
X10838221D01*
X10824218Y5823500D01*
X10813500Y5812782D01*
X10807700Y5798779D01*
Y5783621D01*
X10813500Y5769618D01*
X10824218Y5758900D01*
X10838221Y5753100D01*
X10853379D01*
X10867382Y5758900D01*
X10878100Y5769618D01*
X10883900Y5783621D01*
Y5792675D01*
X10965712Y5874488D01*
X10971326Y5882889D01*
X10973298Y5892800D01*
Y6809844D01*
X10978447Y6814070D01*
X10991868Y6814857D01*
X11002585Y6804139D01*
X11016588Y6798339D01*
X11031746D01*
X11045749Y6804139D01*
X11056467Y6814857D01*
X11062267Y6828860D01*
Y6844018D01*
X11056467Y6858021D01*
X11045749Y6868739D01*
X11041125Y6870654D01*
X11038145Y6885634D01*
X11251313Y7098802D01*
X12164016D01*
X12170418Y7092400D01*
X12184421Y7086600D01*
X12199579D01*
X12213582Y7092400D01*
X12224300Y7103118D01*
X12230100Y7117121D01*
Y7132279D01*
X12224300Y7146282D01*
X12220979Y7149602D01*
X12226240Y7162302D01*
X12265616D01*
X12272018Y7155900D01*
X12286021Y7150100D01*
X12301179D01*
X12315182Y7155900D01*
X12325900Y7166618D01*
X12331700Y7180621D01*
Y7195779D01*
X12325900Y7209782D01*
X12315182Y7220500D01*
X12301179Y7226300D01*
X12286021D01*
X12272018Y7220500D01*
X12265616Y7214098D01*
X12208983D01*
X12203722Y7226798D01*
X12292125Y7315200D01*
X12301179D01*
X12315182Y7321000D01*
X12325900Y7331718D01*
X12331700Y7345721D01*
Y7360879D01*
X12325900Y7374882D01*
X12315182Y7385600D01*
X12301179Y7391400D01*
D02*
G37*
G36*
X12735629Y7386550D02*
X12715171D01*
X12695409Y7381255D01*
X12677691Y7371025D01*
X12663225Y7356559D01*
X12652995Y7338841D01*
X12647700Y7319079D01*
Y7298621D01*
X12652995Y7278859D01*
X12663225Y7261141D01*
X12677691Y7246675D01*
X12695409Y7236445D01*
X12715171Y7231150D01*
X12735629D01*
X12755391Y7236445D01*
X12773109Y7246675D01*
X12787575Y7261141D01*
X12797805Y7278859D01*
X12803101Y7298621D01*
Y7319079D01*
X12797805Y7338841D01*
X12787575Y7356559D01*
X12773109Y7371025D01*
X12755391Y7381255D01*
X12735629Y7386550D01*
D02*
G37*
G36*
X10053279Y7302500D02*
X10038121D01*
X10024118Y7296700D01*
X10013400Y7285982D01*
X10007600Y7271979D01*
Y7256821D01*
X10013400Y7242818D01*
X10024118Y7232100D01*
X10038121Y7226300D01*
X10053279D01*
X10067282Y7232100D01*
X10078000Y7242818D01*
X10083800Y7256821D01*
Y7271979D01*
X10078000Y7285982D01*
X10067282Y7296700D01*
X10053279Y7302500D01*
D02*
G37*
G36*
X10878779Y7073900D02*
X10863621D01*
X10849618Y7068100D01*
X10838900Y7057382D01*
X10833100Y7043379D01*
Y7028221D01*
X10838900Y7014218D01*
X10849618Y7003500D01*
X10863621Y6997700D01*
X10878779D01*
X10892782Y7003500D01*
X10903500Y7014218D01*
X10909300Y7028221D01*
Y7043379D01*
X10903500Y7057382D01*
X10892782Y7068100D01*
X10878779Y7073900D01*
D02*
G37*
G36*
X10218379D02*
X10203221D01*
X10189218Y7068100D01*
X10178500Y7057382D01*
X10172700Y7043379D01*
Y7028221D01*
X10178500Y7014218D01*
X10189218Y7003500D01*
X10203221Y6997700D01*
X10218379D01*
X10232382Y7003500D01*
X10243100Y7014218D01*
X10248900Y7028221D01*
Y7043379D01*
X10243100Y7057382D01*
X10232382Y7068100D01*
X10218379Y7073900D01*
D02*
G37*
G36*
X12313879Y6908800D02*
X12298721D01*
X12284718Y6903000D01*
X12275518Y6893799D01*
X12268200Y6892953D01*
X12260882Y6893799D01*
X12251682Y6903000D01*
X12237679Y6908800D01*
X12222521D01*
X12208518Y6903000D01*
X12197800Y6892282D01*
X12192000Y6878279D01*
Y6863121D01*
X12197800Y6849118D01*
X12208518Y6838400D01*
X12222521Y6832600D01*
X12237679D01*
X12251682Y6838400D01*
X12260882Y6847601D01*
X12268200Y6848447D01*
X12275518Y6847601D01*
X12284718Y6838400D01*
X12298721Y6832600D01*
X12313879D01*
X12327882Y6838400D01*
X12338600Y6849118D01*
X12344400Y6863121D01*
Y6878279D01*
X12338600Y6892282D01*
X12327882Y6903000D01*
X12313879Y6908800D01*
D02*
G37*
G36*
X9811979Y6985000D02*
X9796821D01*
X9782818Y6979200D01*
X9772100Y6968482D01*
X9766300Y6954479D01*
Y6939321D01*
X9772100Y6925318D01*
X9778502Y6918916D01*
Y6866840D01*
X9765802Y6861579D01*
X9762482Y6864900D01*
X9748479Y6870700D01*
X9733321D01*
X9719318Y6864900D01*
X9712916Y6858498D01*
X9200279D01*
X9190369Y6856526D01*
X9181967Y6850912D01*
X8698771Y6367717D01*
X8691640Y6371834D01*
X8669335Y6377810D01*
X8646244D01*
X8623939Y6371834D01*
X8603941Y6360288D01*
X8587612Y6343959D01*
X8576066Y6323961D01*
X8570090Y6301656D01*
Y6278565D01*
X8576066Y6256260D01*
X8587612Y6236261D01*
X8603941Y6219933D01*
X8623939Y6208387D01*
X8646244Y6202411D01*
X8669335D01*
X8691640Y6208387D01*
X8711639Y6219933D01*
X8727967Y6236261D01*
X8739513Y6256260D01*
X8745489Y6278565D01*
Y6301656D01*
X8739513Y6323961D01*
X8735396Y6331092D01*
X9211006Y6806702D01*
X9712916D01*
X9719318Y6800300D01*
X9733321Y6794500D01*
X9738017Y6781800D01*
X9658144Y6701927D01*
X9241429D01*
X9231518Y6699955D01*
X9223117Y6694341D01*
X9107375Y6578600D01*
X9098321D01*
X9084318Y6572800D01*
X9073600Y6562082D01*
X9067800Y6548079D01*
Y6532921D01*
X9073600Y6518918D01*
X9084318Y6508200D01*
X9098321Y6502400D01*
X9113479D01*
X9127482Y6508200D01*
X9138200Y6518918D01*
X9144000Y6532921D01*
Y6541975D01*
X9252156Y6650131D01*
X9668871D01*
X9678782Y6652103D01*
X9687183Y6657717D01*
X9822712Y6793246D01*
X9828326Y6801648D01*
X9830298Y6811558D01*
Y6918916D01*
X9836700Y6925318D01*
X9842500Y6939321D01*
Y6954479D01*
X9836700Y6968482D01*
X9825982Y6979200D01*
X9811979Y6985000D01*
D02*
G37*
G36*
X12684829Y6999200D02*
X12664371D01*
X12644609Y6993905D01*
X12626891Y6983675D01*
X12612425Y6969209D01*
X12602195Y6951491D01*
X12596900Y6931729D01*
Y6911271D01*
X12602195Y6891509D01*
X12612425Y6873791D01*
X12626891Y6859325D01*
X12644609Y6849095D01*
X12664371Y6843800D01*
X12684829D01*
X12704591Y6849095D01*
X12722309Y6859325D01*
X12736775Y6873791D01*
X12747005Y6891509D01*
X12752300Y6911271D01*
Y6931729D01*
X12747005Y6951491D01*
X12736775Y6969209D01*
X12722309Y6983675D01*
X12704591Y6993905D01*
X12684829Y6999200D01*
D02*
G37*
G36*
X11120646Y6874539D02*
X11105488D01*
X11091485Y6868739D01*
X11080767Y6858021D01*
X11074967Y6844018D01*
Y6828860D01*
X11080767Y6814857D01*
X11091485Y6804139D01*
X11105488Y6798339D01*
X11120646D01*
X11134649Y6804139D01*
X11145367Y6814857D01*
X11151167Y6828860D01*
Y6844018D01*
X11145367Y6858021D01*
X11134649Y6868739D01*
X11120646Y6874539D01*
D02*
G37*
G36*
X10180279Y6667500D02*
X10165121D01*
X10151118Y6661700D01*
X10141918Y6652499D01*
X10134600Y6651653D01*
X10127282Y6652499D01*
X10118082Y6661700D01*
X10104079Y6667500D01*
X10088921D01*
X10074918Y6661700D01*
X10064200Y6650982D01*
X10058400Y6636979D01*
Y6621821D01*
X10064200Y6607818D01*
X10074918Y6597100D01*
X10088921Y6591300D01*
X10104079D01*
X10118082Y6597100D01*
X10127282Y6606301D01*
X10134600Y6607147D01*
X10141918Y6606301D01*
X10151118Y6597100D01*
X10165121Y6591300D01*
X10180279D01*
X10194282Y6597100D01*
X10205000Y6607818D01*
X10210800Y6621821D01*
Y6636979D01*
X10205000Y6650982D01*
X10194282Y6661700D01*
X10180279Y6667500D01*
D02*
G37*
G36*
X10700979Y6311900D02*
X10685821D01*
X10671818Y6306100D01*
X10661100Y6295382D01*
X10655300Y6281379D01*
Y6266221D01*
X10661100Y6252218D01*
X10671818Y6241500D01*
X10685821Y6235700D01*
X10700979D01*
X10714982Y6241500D01*
X10725700Y6252218D01*
X10731500Y6266221D01*
Y6281379D01*
X10725700Y6295382D01*
X10714982Y6306100D01*
X10700979Y6311900D01*
D02*
G37*
G36*
X10231079Y6083300D02*
X10215921D01*
X10201918Y6077500D01*
X10191200Y6066782D01*
X10185400Y6052779D01*
Y6037621D01*
X10191200Y6023618D01*
X10201918Y6012900D01*
X10215921Y6007100D01*
X10231079D01*
X10245082Y6012900D01*
X10255800Y6023618D01*
X10261600Y6037621D01*
Y6052779D01*
X10255800Y6066782D01*
X10245082Y6077500D01*
X10231079Y6083300D01*
D02*
G37*
G36*
X9570679Y5994400D02*
X9555521D01*
X9541518Y5988600D01*
X9532318Y5979399D01*
X9525000Y5978553D01*
X9517682Y5979399D01*
X9508482Y5988600D01*
X9494479Y5994400D01*
X9479321D01*
X9465318Y5988600D01*
X9454600Y5977882D01*
X9448800Y5963879D01*
Y5948721D01*
X9454600Y5934718D01*
X9465318Y5924000D01*
X9479321Y5918200D01*
X9494479D01*
X9508482Y5924000D01*
X9517682Y5933201D01*
X9525000Y5934047D01*
X9532318Y5933201D01*
X9541518Y5924000D01*
X9555521Y5918200D01*
X9570679D01*
X9584682Y5924000D01*
X9595400Y5934718D01*
X9601200Y5948721D01*
Y5963879D01*
X9595400Y5977882D01*
X9584682Y5988600D01*
X9570679Y5994400D01*
D02*
G37*
G36*
X9028546Y6018600D02*
X9005454D01*
X8983149Y6012623D01*
X8963151Y6001077D01*
X8946823Y5984749D01*
X8935277Y5964751D01*
X8929300Y5942446D01*
Y5919354D01*
X8935277Y5897049D01*
X8946823Y5877051D01*
X8963151Y5860723D01*
X8983149Y5849177D01*
X9005454Y5843200D01*
X9028546D01*
X9050851Y5849177D01*
X9070849Y5860723D01*
X9087177Y5877051D01*
X9098723Y5897049D01*
X9104700Y5919354D01*
Y5942446D01*
X9098723Y5964751D01*
X9087177Y5984749D01*
X9070849Y6001077D01*
X9050851Y6012623D01*
X9028546Y6018600D01*
D02*
G37*
G36*
X10853379Y6045200D02*
X10838221D01*
X10824218Y6039400D01*
X10813500Y6028682D01*
X10807700Y6014679D01*
Y6005625D01*
X10669973Y5867898D01*
X9287310D01*
X9277400Y5865926D01*
X9268998Y5860312D01*
X9240306Y5831621D01*
X9196605Y5875321D01*
X9072579Y5751295D01*
X9196605Y5627268D01*
X9320632Y5751295D01*
X9276931Y5794996D01*
X9298038Y5816102D01*
X10680700D01*
X10690611Y5818074D01*
X10699012Y5823688D01*
X10844325Y5969000D01*
X10853379D01*
X10867382Y5974800D01*
X10878100Y5985518D01*
X10883900Y5999521D01*
Y6014679D01*
X10878100Y6028682D01*
X10867382Y6039400D01*
X10853379Y6045200D01*
D02*
G37*
G36*
X11214100Y5805186D02*
Y5727700D01*
X11291586D01*
X11285639Y5749893D01*
X11273738Y5770507D01*
X11256907Y5787338D01*
X11236293Y5799239D01*
X11214100Y5805186D01*
D02*
G37*
G36*
X11188700D02*
X11166507Y5799239D01*
X11145893Y5787338D01*
X11129062Y5770507D01*
X11117161Y5749893D01*
X11111214Y5727700D01*
X11188700D01*
Y5805186D01*
D02*
G37*
G36*
X11291586Y5702300D02*
X11214100D01*
Y5624814D01*
X11236293Y5630761D01*
X11256907Y5642662D01*
X11273738Y5659493D01*
X11285639Y5680107D01*
X11291586Y5702300D01*
D02*
G37*
G36*
X11188700D02*
X11111214D01*
X11117161Y5680107D01*
X11129062Y5659493D01*
X11145893Y5642662D01*
X11166507Y5630761D01*
X11188700Y5624814D01*
Y5702300D01*
D02*
G37*
G36*
X11579929Y5691100D02*
X11559471D01*
X11539709Y5685805D01*
X11521991Y5675575D01*
X11507525Y5661109D01*
X11497295Y5643391D01*
X11492000Y5623629D01*
Y5603171D01*
X11497295Y5583409D01*
X11507525Y5565691D01*
X11521991Y5551225D01*
X11539709Y5540995D01*
X11559471Y5535700D01*
X11579929D01*
X11599691Y5540995D01*
X11617409Y5551225D01*
X11631875Y5565691D01*
X11642105Y5583409D01*
X11647400Y5603171D01*
Y5623629D01*
X11642105Y5643391D01*
X11631875Y5661109D01*
X11617409Y5675575D01*
X11599691Y5685805D01*
X11579929Y5691100D01*
D02*
G37*
G36*
X11211629Y5526000D02*
X11191171D01*
X11171409Y5520705D01*
X11153691Y5510475D01*
X11139225Y5496009D01*
X11128995Y5478291D01*
X11123700Y5458529D01*
Y5438071D01*
X11128995Y5418309D01*
X11139225Y5400591D01*
X11153691Y5386125D01*
X11171409Y5375895D01*
X11191171Y5370600D01*
X11211629D01*
X11231391Y5375895D01*
X11249109Y5386125D01*
X11263575Y5400591D01*
X11273805Y5418309D01*
X11279100Y5438071D01*
Y5458529D01*
X11273805Y5478291D01*
X11263575Y5496009D01*
X11249109Y5510475D01*
X11231391Y5520705D01*
X11211629Y5526000D01*
D02*
G37*
G36*
X9560629Y5792700D02*
X9540171D01*
X9520409Y5787405D01*
X9502691Y5777175D01*
X9488225Y5762709D01*
X9477995Y5744991D01*
X9472700Y5725229D01*
Y5704771D01*
X9477995Y5685009D01*
X9488225Y5667291D01*
X9502691Y5652825D01*
X9520409Y5642595D01*
X9540171Y5637300D01*
X9560629D01*
X9580391Y5642595D01*
X9598109Y5652825D01*
X9612575Y5667291D01*
X9622805Y5685009D01*
X9628100Y5704771D01*
Y5708139D01*
X9806373D01*
X10157105Y5357407D01*
X10165506Y5351793D01*
X10175417Y5349822D01*
X10179197D01*
X10189218Y5339800D01*
X10203221Y5334000D01*
X10218379D01*
X10232382Y5339800D01*
X10243100Y5350518D01*
X10248900Y5364521D01*
Y5379679D01*
X10243100Y5393682D01*
X10232382Y5404400D01*
X10218379Y5410200D01*
X10203221D01*
X10189218Y5404400D01*
X10186435Y5401617D01*
X10186144D01*
X9835412Y5752349D01*
X9827011Y5757963D01*
X9817100Y5759934D01*
X9614178D01*
X9612575Y5762709D01*
X9598109Y5777175D01*
X9580391Y5787405D01*
X9560629Y5792700D01*
D02*
G37*
%LPD*%
G36*
X10824218Y8527500D02*
X10838221Y8521700D01*
X10853379D01*
X10867382Y8527500D01*
X10870702Y8530821D01*
X10883402Y8525560D01*
Y8445998D01*
X10795860D01*
X10788729Y8453128D01*
X10774726Y8458929D01*
X10759569D01*
X10745566Y8453128D01*
X10739163Y8446726D01*
X10624419D01*
X10614509Y8444755D01*
X10606107Y8439141D01*
X10574252Y8407286D01*
X10573979Y8407400D01*
X10560065D01*
X10555584Y8411474D01*
X10550602Y8417742D01*
X10553700Y8425221D01*
Y8434275D01*
X10653327Y8533902D01*
X10817816D01*
X10824218Y8527500D01*
D02*
G37*
G36*
X11175502Y8542817D02*
Y8214927D01*
X11055465Y8094890D01*
X11044699Y8102084D01*
X11048516Y8111299D01*
Y8126456D01*
X11042715Y8140460D01*
X11036313Y8146862D01*
Y8421588D01*
X11162802Y8548078D01*
X11175502Y8542817D01*
D02*
G37*
D35*
X11247123Y7239000D02*
X12179300D01*
X12293600Y7353300D01*
X10871200Y6863077D02*
X11247123Y7239000D01*
X11250205Y7188200D02*
X12293600D01*
X10909300Y6847295D02*
X11250205Y7188200D01*
X9583114Y5506414D02*
X9624893D01*
X9630279Y5511800D01*
X9563100Y5486400D02*
X9583114Y5506414D01*
X9944100Y5511800D02*
X10236200Y5219700D01*
X9630279Y5511800D02*
X9944100D01*
X10236200Y5219700D02*
X10579100D01*
X9817100Y5734036D02*
X10175417Y5375719D01*
X10207181D02*
X10210800Y5372100D01*
X9569436Y5734036D02*
X9817100D01*
X9550400Y5715000D02*
X9569436Y5734036D01*
X10175417Y5375719D02*
X10207181D01*
X10680700Y5842000D02*
X10845800Y6007100D01*
X9196605Y5751295D02*
X9287310Y5842000D01*
X10680700D01*
X10248900Y6235700D02*
X10287000Y6273800D01*
X10579100D01*
X10629900Y6324600D01*
Y6489700D01*
X10845800Y6121400D02*
X10909300Y6184900D01*
Y6847295D01*
X9715500Y7620000D02*
X9832355D01*
X9870455Y7658100D01*
X8534400Y7429500D02*
X9740900D01*
X9870455Y7658100D02*
X10145537D01*
X8331200Y7912100D02*
X8686800Y7556500D01*
X9474200D01*
X9027716Y7493000D02*
X9626600D01*
X9015016Y7505700D02*
X9027716Y7493000D01*
X8410305Y7505700D02*
X9015016D01*
X10145537Y7658100D02*
X10170937Y7632700D01*
X10629900D01*
X8318500Y7912100D02*
X8331200D01*
X10439400Y6388100D02*
X10617200Y6565900D01*
X9829205Y6388100D02*
X10439400D01*
X10515600Y8432800D02*
X10642600Y8559800D01*
X10845800D01*
X10947400Y5892800D02*
Y6831514D01*
X10871200Y6299200D02*
Y6863077D01*
X11240586Y7124700D02*
X12192000D01*
X10947400Y6831514D02*
X11240586Y7124700D01*
X11315700Y8801100D02*
X11531600Y9017000D01*
Y9207500D01*
X11315700Y7946863D02*
Y8801100D01*
X11201400Y8204200D02*
Y8890000D01*
X11404600Y9093200D01*
X10629900Y7632700D02*
X11201400Y8204200D01*
X10393460Y8237440D02*
X10426700Y8204200D01*
X10449120Y8444667D02*
X10653153Y8648700D01*
X10393460Y8237440D02*
Y8593040D01*
X10449120Y8386860D02*
Y8444667D01*
X10444260Y8382000D02*
X10449120Y8386860D01*
X10388600Y8597900D02*
X10393460Y8593040D01*
X10461887Y6604000D02*
X10474587Y6616700D01*
X10668000D01*
X10261600Y6604000D02*
X10461887D01*
X10668000Y6616700D02*
X10795000Y6489700D01*
X9105900Y6400800D02*
X9232900Y6527800D01*
X10369121Y6553200D02*
X10375900D01*
X10343721Y6527800D02*
X10369121Y6553200D01*
X9232900Y6527800D02*
X10343721D01*
X10404637Y6464300D02*
X10430037Y6489700D01*
X10185400Y6464300D02*
X10404637D01*
X12611100Y8128000D02*
X12700000D01*
X10833100Y6261100D02*
X10871200Y6299200D01*
X10845800Y5791200D02*
X10947400Y5892800D01*
X10566400Y8369300D02*
X10572891D01*
X10624419Y8420829D02*
X10767147D01*
X10572891Y8369300D02*
X10624419Y8420829D01*
X11315700Y7946863D02*
X11353800Y7908763D01*
Y7899400D02*
Y7908763D01*
X11391900Y8394700D02*
X12344400D01*
X11658600Y9334500D02*
X11785600Y9207500D01*
X11468100Y9334500D02*
X11658600D01*
X11404600Y9271000D02*
X11468100Y9334500D01*
X11404600Y9093200D02*
Y9271000D01*
X10655300Y8305800D02*
X10782300D01*
X10617200Y8267700D02*
X10655300Y8305800D01*
X12344400Y8394700D02*
X12611100Y8128000D01*
X10767147Y8420100D02*
X10894421D01*
X10909300Y8434979D01*
Y9296400D01*
X10983586Y9370686D01*
X10653153Y8648700D02*
X10853900D01*
X11493500Y9486900D02*
Y9512300D01*
X10983586Y9370686D02*
X11377286D01*
X11493500Y9486900D01*
X11150600Y8572500D02*
Y9080500D01*
X11277600Y9207500D01*
X11010416Y8432316D02*
X11150600Y8572500D01*
X11010416Y8118878D02*
Y8432316D01*
X9804400Y6811558D02*
Y6946900D01*
X9668871Y6676029D02*
X9804400Y6811558D01*
X9200279Y6832600D02*
X9740900D01*
X8657790Y6290110D02*
X9200279Y6832600D01*
X9105900Y6540500D02*
X9241429Y6676029D01*
X9668871D01*
X9714905Y6273800D02*
X9829205Y6388100D01*
X10426700Y8204200D02*
X10782300D01*
X10430037Y6489700D02*
X10439400D01*
X9118600Y6273800D02*
X9714905D01*
X8318500Y7569200D02*
X8346805D01*
X8410305Y7505700D01*
X8318500Y7213600D02*
X8534400Y7429500D01*
X9677400Y8064500D02*
X9804400D01*
X9969500Y8229600D01*
X10299700D01*
D39*
X11201400Y5448300D02*
D03*
Y5715000D02*
D03*
X9563100Y5486400D02*
D03*
X12700000Y8128000D02*
D03*
X11112500Y9525000D02*
D03*
X9436100Y9486900D02*
D03*
X9550400Y5715000D02*
D03*
X11569700Y5613400D02*
D03*
X8318500Y7213600D02*
D03*
Y7569200D02*
D03*
Y7924800D02*
D03*
X12725400Y7308850D02*
D03*
X12674600Y6921500D02*
D03*
X11493500Y9512300D02*
D03*
X12725400Y7734300D02*
D03*
D40*
X9196605Y5751295D02*
D03*
D41*
X9017000Y5930900D02*
D03*
X8837395Y6110505D02*
D03*
X8657790Y6290110D02*
D03*
X11023600Y9207500D02*
D03*
X11277600D02*
D03*
X11531600D02*
D03*
X11785600D02*
D03*
D42*
X12039600D02*
D03*
D43*
X10223500Y6045200D02*
D03*
X10210800Y5372100D02*
D03*
X10579100Y5219700D02*
D03*
X11823700Y5715000D02*
D03*
X11747500Y5791200D02*
D03*
X10248900Y6235700D02*
D03*
X10502900Y6324600D02*
D03*
X10845800Y6121400D02*
D03*
Y5791200D02*
D03*
X9715500Y7620000D02*
D03*
X9740900Y7429500D02*
D03*
X9474200Y7556500D02*
D03*
X9626600Y7493000D02*
D03*
X8216900Y7442200D02*
D03*
X8432800Y7670800D02*
D03*
X8369300Y8102600D02*
D03*
X8420100Y6972300D02*
D03*
X8445500Y6629400D02*
D03*
X8382000Y6858000D02*
D03*
X8369300Y7048500D02*
D03*
X8305800Y7404100D02*
D03*
X8318500Y7747000D02*
D03*
X8382000Y8216900D02*
D03*
X8420100Y8407400D02*
D03*
X9779000Y9715500D02*
D03*
X10312400Y9829800D02*
D03*
X10502900D02*
D03*
X11214100Y9728200D02*
D03*
X11010900Y9779000D02*
D03*
X10629900Y6489700D02*
D03*
X10617200Y6565900D02*
D03*
X11264900Y6959600D02*
D03*
X10833100Y8483600D02*
D03*
X10845800Y8559800D02*
D03*
X10668000Y8712200D02*
D03*
X10566400Y8661400D02*
D03*
X10147300Y7721600D02*
D03*
X9779000Y6210300D02*
D03*
X9626600Y6197600D02*
D03*
X9461500D02*
D03*
X9867900Y6273800D02*
D03*
X9690100Y6350000D02*
D03*
X9537700D02*
D03*
X9766300Y6438900D02*
D03*
X9613900D02*
D03*
X9448800D02*
D03*
X11024167Y6836439D02*
D03*
X10172700Y7188200D02*
D03*
X10350500Y7874000D02*
D03*
X10541000Y7899400D02*
D03*
X10883900Y7670800D02*
D03*
Y7493000D02*
D03*
Y7302500D02*
D03*
X10642600Y7289800D02*
D03*
X10464800D02*
D03*
X10375900Y7150100D02*
D03*
X10553700D02*
D03*
X10744200D02*
D03*
X10706100Y7556500D02*
D03*
X10464800Y7569200D02*
D03*
X10642600Y7429500D02*
D03*
X10464800D02*
D03*
X10642600Y7797800D02*
D03*
X10477500Y7734300D02*
D03*
X10287000Y7721600D02*
D03*
X10160000Y7531100D02*
D03*
X10274300Y7429500D02*
D03*
Y7289800D02*
D03*
X10071100Y7404100D02*
D03*
X10871200Y7035800D02*
D03*
X10210800D02*
D03*
X10045700Y7264400D02*
D03*
X10058400Y7861300D02*
D03*
X10071100Y7937500D02*
D03*
X10947400Y7861300D02*
D03*
X11303000Y8877300D02*
D03*
X11264900Y8813800D02*
D03*
X10502900Y9131300D02*
D03*
X10426700D02*
D03*
X10553700Y8877300D02*
D03*
X10444260Y8382000D02*
D03*
X10388600Y8597900D02*
D03*
X10871200Y8255000D02*
D03*
X10071100Y9169400D02*
D03*
X9194800Y9410700D02*
D03*
X9918700Y9728200D02*
D03*
X10223500Y9398000D02*
D03*
X10297515Y9553268D02*
D03*
X10299900Y9626800D02*
D03*
X10261600Y6604000D02*
D03*
X10096500Y6629400D02*
D03*
X10172700D02*
D03*
X10185400Y6464300D02*
D03*
X9563100Y5956300D02*
D03*
X9486900D02*
D03*
X12230100Y6870700D02*
D03*
X12306300D02*
D03*
X12192000Y7124700D02*
D03*
X12293600Y7353300D02*
D03*
Y7188200D02*
D03*
X10833100Y6261100D02*
D03*
X10845800Y6007100D02*
D03*
X10693400Y6273800D02*
D03*
X11150600Y8343900D02*
D03*
X10744200Y6375400D02*
D03*
X10566400Y8369300D02*
D03*
X11113067Y6836439D02*
D03*
X11391900Y8394700D02*
D03*
X11239500Y8013700D02*
D03*
X10782300Y8305800D02*
D03*
X10767147Y8420829D02*
D03*
X10853900Y8648700D02*
D03*
X10617200Y8267700D02*
D03*
X11150600Y8013700D02*
D03*
X11010416Y8118878D02*
D03*
X9804400Y6946900D02*
D03*
X9740900Y6832600D02*
D03*
X9105900Y6540500D02*
D03*
X11099800Y8839200D02*
D03*
X11010900D02*
D03*
X10058400Y8572500D02*
D03*
X9982200D02*
D03*
X10795000Y6489700D02*
D03*
X11353800Y7899400D02*
D03*
X10375900Y6553200D02*
D03*
X9118600Y6273800D02*
D03*
X10439400Y6489700D02*
D03*
X9105900Y6400800D02*
D03*
X9245600Y7366000D02*
D03*
X9321800Y7315200D02*
D03*
X9677400Y8064500D02*
D03*
X10299700Y8229600D02*
D03*
X10490200Y9613900D02*
D03*
X9867900Y8864600D02*
D03*
X9944100D02*
D03*
X10782300Y8204200D02*
D03*
X10515600Y8432800D02*
D03*
D44*
X11328400Y7302500D02*
D03*
%TF.MD5,4e10bad19907161bb83acb25b4476a85*%
M02*
