%TF.GenerationSoftware,Altium Limited,Altium Designer,25.0.2 (28)*%
G04 Layer_Color=255*
%FSLAX45Y45*%
%MOMM*%
%TF.SameCoordinates,35A56F3A-7D9F-4CF9-8D97-DF5CB8944ECC*%
%TF.FilePolarity,Positive*%
%TF.FileFunction,Pads,Top*%
%TF.Part,Single*%
G01*
G75*
%TA.AperFunction,SMDPad,CuDef*%
%ADD10R,1.01600X2.69240*%
%ADD11R,1.15000X1.10000*%
%ADD12R,1.60020X2.38760*%
%ADD13R,0.71120X3.40360*%
%ADD14R,1.25000X2.00000*%
%ADD15R,0.70000X0.60000*%
%ADD16R,0.47500X0.24994*%
%ADD17R,0.24994X0.35000*%
G04:AMPARAMS|DCode=18|XSize=1.4986mm|YSize=0.5334mm|CornerRadius=0.13335mm|HoleSize=0mm|Usage=FLASHONLY|Rotation=0.000|XOffset=0mm|YOffset=0mm|HoleType=Round|Shape=RoundedRectangle|*
%AMROUNDEDRECTD18*
21,1,1.49860,0.26670,0,0,0.0*
21,1,1.23190,0.53340,0,0,0.0*
1,1,0.26670,0.61595,-0.13335*
1,1,0.26670,-0.61595,-0.13335*
1,1,0.26670,-0.61595,0.13335*
1,1,0.26670,0.61595,0.13335*
%
%ADD18ROUNDEDRECTD18*%
%ADD19R,1.10000X1.15000*%
%ADD20R,0.60000X0.70000*%
%ADD21R,2.69240X1.01600*%
%ADD22R,1.19380X0.30480*%
%ADD23R,0.30480X1.19380*%
%ADD24R,1.47000X1.16000*%
%ADD25R,5.51180X0.99060*%
%ADD26R,3.09880X1.70180*%
%ADD27R,1.09220X2.79400*%
%ADD28R,0.66040X1.80340*%
%ADD29R,1.80340X0.66040*%
%ADD30R,2.79400X1.09220*%
%ADD31R,0.50000X0.25000*%
%ADD32R,0.90000X1.60000*%
%ADD33R,1.39000X1.40000*%
%ADD34R,3.36000X4.86000*%
%TA.AperFunction,ComponentPad*%
%ADD39C,1.30000*%
%ADD40P,2.12132X4X180.0*%
%ADD41C,1.50000*%
%ADD42R,1.50000X1.50000*%
D10*
X11328400Y8623300D02*
D03*
X11018520D02*
D03*
D11*
X11967200Y6781800D02*
D03*
X11807200D02*
D03*
X10626100Y9020400D02*
D03*
X10786100D02*
D03*
X10226275Y8364090D02*
D03*
X10066275D02*
D03*
X11471900Y6769100D02*
D03*
X11311900D02*
D03*
D12*
X9757800Y5591550D02*
D03*
X10917800D02*
D03*
X11129400Y6290050D02*
D03*
X12289400D02*
D03*
D13*
X9962800Y5786550D02*
D03*
X10112800D02*
D03*
X10262800D02*
D03*
X10412800D02*
D03*
X10562800D02*
D03*
X10712800D02*
D03*
X11334400Y6485050D02*
D03*
X11484400D02*
D03*
X11634400D02*
D03*
X11784400D02*
D03*
X11934400D02*
D03*
X12084400D02*
D03*
D14*
X10766841Y9309100D02*
D03*
X10491841D02*
D03*
D15*
X9588500Y7620000D02*
D03*
Y7720000D02*
D03*
X11226800Y7923200D02*
D03*
Y7823200D02*
D03*
X9734670Y7238066D02*
D03*
Y7338066D02*
D03*
D16*
X10485946Y8748725D02*
D03*
Y8698713D02*
D03*
Y8648700D02*
D03*
Y8598687D02*
D03*
Y8548675D02*
D03*
X10748454D02*
D03*
Y8598687D02*
D03*
Y8648700D02*
D03*
Y8698713D02*
D03*
Y8748725D02*
D03*
D17*
X10567187Y8521205D02*
D03*
X10617200D02*
D03*
X10667213D02*
D03*
Y8776195D02*
D03*
X10617200D02*
D03*
X10567187D02*
D03*
D18*
X10030460Y6527800D02*
D03*
Y6400800D02*
D03*
Y6273800D02*
D03*
Y6146800D02*
D03*
X9298940Y6273800D02*
D03*
Y6400800D02*
D03*
Y6527800D02*
D03*
Y6146800D02*
D03*
D19*
X12496800Y6586200D02*
D03*
Y6426200D02*
D03*
X9442270Y7365215D02*
D03*
Y7205214D02*
D03*
X10602800Y9667000D02*
D03*
Y9507000D02*
D03*
X10096500Y9563100D02*
D03*
Y9723100D02*
D03*
D20*
X10069341Y6726910D02*
D03*
X10169341D02*
D03*
X10102894Y8233690D02*
D03*
X10202894D02*
D03*
X9404100Y7046900D02*
D03*
X9214100D02*
D03*
X9309100Y6846900D02*
D03*
X10961707Y6739610D02*
D03*
X10861707D02*
D03*
X10361589Y8757232D02*
D03*
X10261589D02*
D03*
X10756100Y8890000D02*
D03*
X10656100D02*
D03*
D21*
X9677400Y8201660D02*
D03*
Y8511540D02*
D03*
D22*
X9915200Y7855300D02*
D03*
Y7805300D02*
D03*
Y7755300D02*
D03*
Y7705300D02*
D03*
Y7655300D02*
D03*
Y7605300D02*
D03*
Y7555300D02*
D03*
Y7505300D02*
D03*
Y7455300D02*
D03*
Y7405300D02*
D03*
Y7355300D02*
D03*
Y7305300D02*
D03*
Y7255300D02*
D03*
Y7205300D02*
D03*
Y7155300D02*
D03*
Y7105300D02*
D03*
X11065200D02*
D03*
Y7155300D02*
D03*
Y7205300D02*
D03*
Y7255300D02*
D03*
Y7305300D02*
D03*
Y7355300D02*
D03*
Y7405300D02*
D03*
Y7455300D02*
D03*
Y7505300D02*
D03*
Y7555300D02*
D03*
Y7605300D02*
D03*
Y7655300D02*
D03*
Y7705300D02*
D03*
Y7755300D02*
D03*
Y7805300D02*
D03*
Y7855300D02*
D03*
D23*
X10115200Y6905300D02*
D03*
X10165200D02*
D03*
X10215200D02*
D03*
X10265200D02*
D03*
X10315200D02*
D03*
X10365200D02*
D03*
X10415200D02*
D03*
X10465200D02*
D03*
X10515200D02*
D03*
X10565200D02*
D03*
X10615200D02*
D03*
X10665200D02*
D03*
X10715200D02*
D03*
X10765200D02*
D03*
X10815200D02*
D03*
X10865200D02*
D03*
Y8055300D02*
D03*
X10815200D02*
D03*
X10765200D02*
D03*
X10715200D02*
D03*
X10665200D02*
D03*
X10615200D02*
D03*
X10565200D02*
D03*
X10515200D02*
D03*
X10465200D02*
D03*
X10415200D02*
D03*
X10365200D02*
D03*
X10315200D02*
D03*
X10265200D02*
D03*
X10215200D02*
D03*
X10165200D02*
D03*
X10115200D02*
D03*
D24*
X9598470Y7201835D02*
D03*
Y7377836D02*
D03*
D25*
X11734800Y8683500D02*
D03*
Y8483500D02*
D03*
Y8283500D02*
D03*
Y8083500D02*
D03*
Y7883500D02*
D03*
Y7683500D02*
D03*
Y7483500D02*
D03*
Y7283500D02*
D03*
D26*
X11959990Y7043500D02*
D03*
Y8923500D02*
D03*
D27*
X8998100Y9129990D02*
D03*
X9493100D02*
D03*
D28*
X9183100Y8809990D02*
D03*
X9308100D02*
D03*
D29*
X8966200Y8382000D02*
D03*
Y8257000D02*
D03*
Y7533100D02*
D03*
Y7658100D02*
D03*
X8978900Y6919500D02*
D03*
Y6794500D02*
D03*
D30*
X8646200Y8567000D02*
D03*
Y8072000D02*
D03*
Y7348100D02*
D03*
Y7843100D02*
D03*
X8658900Y7104500D02*
D03*
Y6609500D02*
D03*
D31*
X10204700Y9663500D02*
D03*
Y9613500D02*
D03*
Y9563500D02*
D03*
Y9513500D02*
D03*
X10394700D02*
D03*
Y9563500D02*
D03*
Y9613500D02*
D03*
Y9663500D02*
D03*
D32*
X10299700Y9588500D02*
D03*
D33*
X9709300Y8991600D02*
D03*
X9893300D02*
D03*
D34*
X9801300Y9389800D02*
D03*
D39*
X11201400Y5448300D02*
D03*
Y5715000D02*
D03*
X9563100Y5486400D02*
D03*
X12700000Y8128000D02*
D03*
X11112500Y9525000D02*
D03*
X9436100Y9486900D02*
D03*
X9550400Y5715000D02*
D03*
X11569700Y5613400D02*
D03*
X8318500Y7213600D02*
D03*
Y7569200D02*
D03*
Y7924800D02*
D03*
X12725400Y7308850D02*
D03*
X12674600Y6921500D02*
D03*
X11493500Y9512300D02*
D03*
X12725400Y7734300D02*
D03*
D40*
X9196605Y5751295D02*
D03*
D41*
X9017000Y5930900D02*
D03*
X8837395Y6110505D02*
D03*
X8657790Y6290110D02*
D03*
X11023600Y9207500D02*
D03*
X11277600D02*
D03*
X11531600D02*
D03*
X11785600D02*
D03*
D42*
X12039600D02*
D03*
%TF.MD5,43c382fb079f88b5fcf31ce500feff84*%
M02*
